<?xml version="1.0" standalone="no"?>
<!DOCTYPE svg PUBLIC "-//W3C//DTD SVG 1.1//EN" "http://www.w3.org/Graphics/SVG/1.1/DTD/svg11.dtd" >
<svg xmlns="http://www.w3.org/2000/svg" xmlns:xlink="http://www.w3.org/1999/xlink" version="1.1">
<metadata>
Created by FontForge 20200511 at Thu Sep  7 08:35:33 2023
 By convertio
</metadata>
<defs>
<font id="SuperMilk" horiz-adv-x="681" >
  <font-face 
    font-family="Super Milk"
    font-weight="400"
    font-stretch="normal"
    units-per-em="1000"
    panose-1="0 0 0 0 0 0 0 0 0 0"
    ascent="800"
    descent="-200"
    x-height="694"
    cap-height="683"
    bbox="-54 -231 1216 950"
    underline-thickness="50"
    underline-position="-125"
    unicode-range="U+000D-FB02"
  />
<missing-glyph horiz-adv-x="250" 
 />
    <glyph glyph-name="fi" unicode="fi" horiz-adv-x="1011" 
d="M346 61q0 -23 -12.5 -41t-33.5 -31t-47 -19.5t-53 -6.5q-41 0 -70.5 17t-49.5 45.5t-32 64.5t-18 74.5t-8 76t-2 67.5q0 45 2 90.5t13 90.5q26 107 100 169t186 62h83q26 0 66 -5t77.5 -17.5t64.5 -35t27 -57.5q0 -27 -6.5 -52.5t-20.5 -45t-35.5 -31t-52.5 -11.5
q-28 0 -55.5 4t-55.5 4q-12 0 -29 -2.5t-32.5 -9.5t-26.5 -20.5t-11 -35.5q0 -44 15 -59t34 -15q29 0 58.5 3t58.5 3q19 0 36 -1.5t29.5 -8t20 -19t7.5 -34.5v-24q0 -27 -22.5 -39t-52.5 -16t-60.5 -2.5t-47.5 1.5q-27 0 -41.5 -12t-14.5 -40q0 -16 2 -24.5t4 -16t4 -16
t2 -24.5zM840 -3q-29 0 -52 4t-46 24t-39 54.5t-25.5 76.5t-14 89t-6 92t-1.5 85.5v70.5q0 52 14.5 88t41.5 58.5t65.5 33t87.5 10.5q60 0 94.5 -26.5t34.5 -89.5q0 -58 -7.5 -117t-14.5 -117q-7 -57 -13 -115t-19 -115q-4 -21 -11 -40t-18.5 -34t-28.5 -23.5t-42 -8.5z" />
    <glyph glyph-name="fl" unicode="fl" horiz-adv-x="1172" 
d="M346 61q0 -23 -12.5 -41t-33.5 -31t-47 -19.5t-53 -6.5q-41 0 -70.5 17t-49.5 45.5t-32 64.5t-18 74.5t-8 76t-2 67.5q0 45 2 90.5t13 90.5q26 107 100 169t186 62h83q26 0 66 -5t77.5 -17.5t64.5 -35t27 -57.5q0 -27 -6.5 -52.5t-20.5 -45t-35.5 -31t-52.5 -11.5
q-28 0 -55.5 4t-55.5 4q-12 0 -29 -2.5t-32.5 -9.5t-26.5 -20.5t-11 -35.5q0 -44 15 -59t34 -15q29 0 58.5 3t58.5 3q19 0 36 -1.5t29.5 -8t20 -19t7.5 -34.5v-24q0 -27 -22.5 -39t-52.5 -16t-60.5 -2.5t-47.5 1.5q-27 0 -41.5 -12t-14.5 -40q0 -16 2 -24.5t4 -16t4 -16
t2 -24.5zM956 311q0 -13 1 -30.5t5.5 -34t15 -28t28.5 -11.5q17 0 32 6.5t32 6.5q22 0 40 -14t30.5 -34.5t19.5 -43.5t7 -42q0 -31 -21.5 -51.5t-52.5 -32.5t-64 -16.5t-57 -4.5q-103 0 -163.5 30t-92.5 84t-41.5 127.5t-9.5 160.5q0 57 5.5 120t27 116.5t64.5 88t118 34.5
q61 0 94.5 -38t33.5 -97q0 -21 -4.5 -41t-10.5 -39.5t-12.5 -39.5t-10.5 -40q-14 -68 -14 -136z" />
    <glyph glyph-name=".notdef" horiz-adv-x="250" 
 />
    <glyph glyph-name=".null" horiz-adv-x="0" 
 />
    <glyph glyph-name=".null" horiz-adv-x="0" 
 />
    <glyph glyph-name="uni000D" unicode="&#xd;" horiz-adv-x="250" 
 />
    <glyph glyph-name="space" unicode=" " horiz-adv-x="250" 
 />
    <glyph glyph-name="exclam" unicode="!" horiz-adv-x="372" 
d="M178 198q-8 0 -15 1.5t-14 6.5q-16 13 -32 42.5t-30.5 68.5t-27 83.5t-21.5 87t-14 78t-5 56.5q0 38 21.5 58.5t52.5 30.5t66 11.5t63 1.5q24 0 48 -3t43.5 -12t32 -27t12.5 -48q0 -24 -4 -48t-7 -48q-3 -22 -8.5 -56t-14 -71.5t-21.5 -75.5t-30.5 -68.5t-41 -49.5
t-53.5 -19zM84 83q0 19 10 33.5t25 24t33 14.5t34 5q20 0 39 -3.5t33.5 -12.5t23 -24t8.5 -39q0 -44 -27.5 -70t-70.5 -26q-45 0 -76.5 25t-31.5 73z" />
    <glyph glyph-name="quotedbl" unicode="&#x22;" horiz-adv-x="389" 
d="M11 625q0 20 4.5 39t14.5 34t26 24t38 9q41 0 60.5 -24.5t19.5 -62.5q0 -45 -7.5 -93t-17.5 -93q-7 -31 -39 -31q-26 0 -44.5 24t-30.5 56.5t-18 65.5t-6 52zM280 421q-17 0 -30 7t-17 25q-9 44 -16.5 91t-7.5 92q0 85 85 85q42 0 63 -24t21 -64q0 -45 -14 -91.5
t-31 -88.5q-7 -17 -21.5 -24.5t-31.5 -7.5z" />
    <glyph glyph-name="numbersign" unicode="#" horiz-adv-x="705" 
d="M112 158q-10 1 -27.5 4.5t-34 9.5t-28.5 15.5t-12 22.5q0 17 17 28.5t40 19t46.5 11t35.5 4.5q11 30 20 60l18 60q-11 0 -34 2t-46 8t-40 16t-17 26q0 19 21.5 31.5t50.5 20t57.5 11t42.5 4.5q6 19 18 51t29.5 62.5t38.5 52.5t45 22q14 0 22.5 -7.5t13.5 -18t7 -23
t2 -23.5q0 -29 -9 -56t-17 -54q23 1 47 1.5t47 0.5l19 59q6 17 17.5 38.5t27.5 40t35 31.5t39 13q23 0 30.5 -19.5t7.5 -38.5q0 -33 -8.5 -65t-19.5 -63l-1 -1v-2l-1 -1q11 -2 24.5 -6.5t25.5 -12t20.5 -17.5t8.5 -23q0 -18 -13.5 -29.5t-32.5 -19t-39.5 -11t-33.5 -4.5
q-9 -29 -16.5 -58.5t-15.5 -58.5q15 0 35 -3.5t38 -11t30.5 -20.5t12.5 -32q0 -22 -18.5 -33.5t-43.5 -17t-50.5 -6.5t-40.5 -1l-18 -46t-21 -45t-27.5 -40.5t-37.5 -32.5q-7 -5 -15 -8t-16 -3q-11 0 -18 6t-10.5 15t-4.5 19t-1 19q0 29 6.5 58t14.5 57l-95 3
q-6 -15 -16.5 -41t-25.5 -50.5t-32.5 -42.5t-37.5 -18q-14 0 -23 9.5t-14 23t-7 28.5t-2 25q0 19 2.5 37.5t7.5 37.5zM303 276h45t45 -1q8 28 16 55t16 55h-46t-46 1q-8 -27 -15 -54.5t-15 -55.5z" />
    <glyph glyph-name="dollar" unicode="$" horiz-adv-x="620" 
d="M307 753q19 0 33.5 -9t24.5 -23.5t15.5 -31.5t5.5 -34q26 -4 61.5 -14.5t68 -27t55.5 -41t23 -57.5q0 -20 -9 -35t-23 -24.5t-31.5 -14t-35.5 -4.5q-30 0 -59 8.5t-58 17.5q-1 -14 -1 -27.5t-1 -27.5q41 -12 81.5 -31.5t72.5 -48t52 -66t20 -85.5q0 -52 -20.5 -85
t-54 -52t-75.5 -27t-85 -10q0 -17 0.5 -32.5t0.5 -32.5q0 -32 -20 -54.5t-53 -22.5q-21 0 -34 8t-19.5 20.5t-9 29t-2.5 33.5q0 14 0.5 28t1.5 28q-31 5 -68.5 17t-69.5 31.5t-54 48t-22 66.5q0 32 16.5 57t51.5 25q11 0 31.5 -6t43 -14.5t44 -16.5t33.5 -12l2 78
q-40 11 -78.5 26.5t-68.5 39t-48.5 57t-18.5 81.5q0 53 18 88t49 55.5t72.5 28.5t87.5 8q0 14 1.5 29.5t7 28.5t16.5 21t29 8zM248 494q-5 1 -8.5 1h-8.5q-12 0 -24 -3.5t-12 -18.5q0 -7 6 -12.5t14.5 -10t17 -7t13.5 -4.5zM369 167q17 -4 39 -4q11 0 22 3.5t11 17.5
q0 10 -8 18.5t-19.5 16t-23 13t-19.5 8.5q-1 -18 -1 -36.5t-1 -36.5z" />
    <glyph glyph-name="percent" unicode="%" horiz-adv-x="850" 
d="M630 153q0 -23 12.5 -35t35.5 -12q25 0 37.5 16.5t12.5 39.5q0 20 -11.5 29.5t-30.5 9.5q-23 0 -39.5 -11.5t-16.5 -36.5zM170 523q0 -23 12.5 -35t35.5 -12q25 0 37.5 16.5t12.5 39.5q0 20 -11.5 29.5t-30.5 9.5q-23 0 -39.5 -11.5t-16.5 -36.5zM18 532q0 41 12.5 74.5
t36 58.5t56.5 38.5t74 13.5q84 0 130 -49.5t46 -131.5q0 -37 -13.5 -69.5t-37.5 -57t-56 -38.5t-69 -14q-40 0 -73 12t-56.5 35t-36.5 55.5t-13 72.5zM624 702q28 0 46 -20.5t18 -47.5q0 -26 -16 -48q-31 -46 -62.5 -91t-62.5 -92q-56 -84 -110.5 -168t-112.5 -167
q-19 -26 -45.5 -46t-60.5 -20q-27 0 -46 15.5t-19 44.5q0 15 5 28.5t13 26.5q23 40 50 78t53 76q62 90 122.5 178.5t122.5 178.5q9 13 20 26.5t24 24t28.5 17t32.5 6.5zM478 162q0 41 12.5 74.5t36 58.5t56.5 38.5t74 13.5q84 0 130 -49.5t46 -131.5q0 -36 -13 -68
t-36.5 -57t-55 -39.5t-67.5 -14.5q-82 0 -132.5 45t-50.5 130z" />
    <glyph glyph-name="ampersand" unicode="&#x26;" horiz-adv-x="677" 
d="M95 519q0 42 11.5 78.5t37 63.5t66.5 42.5t100 15.5q118 0 175 -42.5t57 -127.5q0 -38 -22.5 -71.5t-49.5 -60t-49.5 -43.5t-22.5 -22q0 -10 10.5 -22.5t25 -23.5t30 -20t24.5 -13q9 3 18 13t20 20.5t24 19t29 8.5q14 0 27.5 -6.5t24 -17.5t17.5 -24t7 -27
q0 -12 -8 -24.5t-19.5 -25t-23.5 -23.5t-20 -20q3 -2 5.5 -2.5t5.5 -2.5q12 -5 24.5 -15.5t22 -23.5t15.5 -27.5t6 -29.5q0 -10 -6 -23.5t-15.5 -25t-21 -19.5t-22.5 -8q-31 0 -56.5 7.5t-44 17t-30.5 17t-17 7.5q-2 0 -14.5 -8t-35 -17.5t-55.5 -17.5t-77 -8
q-46 0 -91.5 12t-81.5 37.5t-58 64.5t-22 93q0 38 19.5 66.5t43.5 49t43.5 34t19.5 21.5q0 6 -5 14q-21 34 -31 66.5t-10 73.5zM327 470q17 0 30 14t13 31q0 18 -10 32t-30 14q-17 0 -29 -10t-12 -27q0 -18 9 -36t29 -18zM279 115q9 0 19.5 4.5t19.5 11.5t15 16t6 19
q0 11 -7 24t-17.5 24.5t-23 19.5t-23.5 8q-9 0 -19.5 -3.5t-19.5 -10.5t-15 -17t-6 -24q0 -39 21.5 -55.5t49.5 -16.5z" />
    <glyph glyph-name="quotesingle" unicode="'" horiz-adv-x="197" 
d="M12 623q0 22 4.5 41.5t15 34.5t27 23.5t41.5 8.5q86 0 86 -88q0 -47 -8 -95.5t-17 -94.5q-4 -17 -15 -24t-28 -7t-33 8t-29.5 33t-23 55t-15 59t-5.5 46z" />
    <glyph glyph-name="parenleft" unicode="(" horiz-adv-x="326" 
d="M252 726q23 0 40.5 -11t17.5 -37q0 -17 -11.5 -41t-27 -49.5t-30.5 -50t-23 -42.5q-17 -39 -24 -80.5t-7 -83.5q0 -71 18.5 -139.5t50.5 -131.5q7 -14 17 -29.5t19 -32t15 -33t6 -32.5q0 -31 -21.5 -46.5t-50.5 -15.5q-39 0 -71 25.5t-57.5 66.5t-44 91.5t-30.5 101.5
t-18 96.5t-6 75.5q0 29 2.5 57t9.5 56q9 39 27.5 88.5t47 93t66 73.5t85.5 30z" />
    <glyph glyph-name="parenright" unicode=")" horiz-adv-x="327" 
d="M313 328q0 -30 -6 -75.5t-18 -96.5t-30.5 -101.5t-44 -91.5t-57.5 -66.5t-71 -25.5q-29 0 -50.5 15.5t-21.5 46.5q0 16 6.5 32.5t15.5 33t19 32t17 29.5q32 62 50 131.5t18 139.5q0 42 -7 83.5t-24 80.5q-7 18 -22.5 42.5t-31 50t-27 49.5t-11.5 41q0 26 17.5 37t40.5 11
q47 0 85 -30t67 -74t48 -93t27 -88q6 -28 8.5 -56t2.5 -57z" />
    <glyph glyph-name="asterisk" unicode="*" horiz-adv-x="601" 
d="M229 301q-11 -11 -23 -25t-25.5 -26.5t-28.5 -21t-33 -8.5q-23 0 -35.5 16.5t-12.5 37.5q0 16 9.5 32.5t22.5 32.5t28 30t25 24q-14 0 -27.5 -0.5t-27.5 -0.5q-15 0 -31.5 2.5t-30.5 9.5t-23 19t-9 30q0 29 17 42t41 17t50.5 2.5t44.5 -1.5l-24.5 24.5t-25 28.5t-19 31.5
t-7.5 33.5q0 23 14.5 36.5t36.5 13.5q15 0 28.5 -8t25 -19.5t22 -24.5t19.5 -23q0 11 -0.5 22.5t-0.5 22.5q0 15 2 32t8 30.5t17.5 22.5t30.5 9q26 0 38 -17t17 -41t4.5 -49.5t-0.5 -42.5q10 11 24 27.5t30 32t32.5 27t31.5 11.5q23 0 38 -17t15 -39q0 -13 -9.5 -30.5
t-22.5 -35t-27.5 -33.5t-23.5 -26h93q28 0 47.5 -16.5t19.5 -45.5q0 -23 -11.5 -35.5t-28 -17.5t-36 -6t-36.5 -2q-12 -1 -24.5 -1t-24.5 2q11 -11 27 -26.5t30.5 -32.5t25 -34.5t10.5 -34.5q0 -23 -14.5 -40.5t-38.5 -17.5q-15 0 -33.5 12.5t-37 29.5t-35 35t-26.5 28
q0 -19 0.5 -37.5t0.5 -37.5q0 -13 -2.5 -29.5t-9 -31.5t-17.5 -25t-28 -10q-28 0 -40 20t-15.5 46.5t-2 54t1.5 42.5z" />
    <glyph glyph-name="plus" unicode="+" horiz-adv-x="521" 
d="M182 445q1 20 5.5 51t15 60t28.5 49.5t45 20.5q28 0 43 -21.5t22 -51.5t8 -61t1 -50q17 -2 35 -2.5t35.5 -3t33.5 -8.5t29 -18q11 -10 18 -23t7 -28q0 -20 -10.5 -36t-24.5 -27q-29 -23 -62 -25.5t-68 -2.5q-2 -20 -3.5 -42.5t-4.5 -45t-9.5 -43t-18.5 -37.5
q-9 -12 -22 -21.5t-29 -9.5q-22 0 -37 10.5t-24.5 28t-14.5 39.5t-7 44.5t-2 43t1 35.5q-21 0 -48.5 4.5t-52.5 15t-42 28.5t-17 45q0 30 19 45.5t45.5 23t55.5 9.5t50 4z" />
    <glyph glyph-name="comma" unicode="," horiz-adv-x="318" 
d="M163 242q27 0 52 -10t43.5 -28t29.5 -43t11 -55q0 -5 -1 -10l-2 -10q-18 -81 -71.5 -126.5t-136.5 -45.5q-7 0 -16.5 1t-18 4t-14 8.5t-5.5 14.5q0 15 10 30t22.5 27t23.5 21t12 13q-8 6 -21 11t-25 14.5t-21 27.5t-9 50q0 28 12.5 48t32 33t44 19t48.5 6z" />
    <glyph glyph-name="hyphen" unicode="-" horiz-adv-x="430" 
d="M12 426q0 33 22.5 51t54 26.5t65.5 10t57 1.5q24 0 59.5 -1.5t68.5 -10.5t56 -27.5t23 -53.5q0 -32 -16.5 -51.5t-41 -30.5t-53 -14.5t-52.5 -3.5q-27 0 -68.5 2t-80 11.5t-66.5 30.5t-28 60z" />
    <glyph glyph-name="period" unicode="." horiz-adv-x="345" 
d="M24 134q0 27 13 48.5t33.5 36t45.5 22.5t49 8q30 0 56 -6t45.5 -20.5t30.5 -37.5t11 -56q0 -30 -9 -56.5t-26 -46t-42 -30.5t-57 -11q-68 0 -109 40t-41 109z" />
    <glyph glyph-name="slash" unicode="/" horiz-adv-x="472" 
d="M389 717q29 0 51 -20t22 -49q0 -9 -2.5 -17.5t-6.5 -16.5q-27 -60 -54 -119.5t-53 -119.5q-35 -84 -70 -167t-73 -165q-17 -36 -47 -62.5t-72 -26.5q-29 0 -48.5 17.5t-19.5 47.5q0 13 16.5 56.5t42.5 103.5t57 128.5t60 131t52.5 112t32.5 70.5q8 17 18.5 34.5t24 31
t31 22t38.5 8.5z" />
    <glyph glyph-name="zero" unicode="0" horiz-adv-x="722" 
d="M15 334q0 80 23.5 148.5t68 118.5t109 79t147.5 29q86 0 150 -27.5t107.5 -76.5t65 -117t21.5 -150q0 -70 -25.5 -135.5t-71 -115.5t-107.5 -80t-135 -30q-82 0 -147 25.5t-111 72t-70.5 112.5t-24.5 147zM279 272q0 -41 20 -63t62 -22q20 0 34.5 9t24.5 23.5t14.5 32.5
t4.5 35q0 32 -18 50.5t-50 18.5q-41 0 -66.5 -20.5t-25.5 -63.5z" />
    <glyph glyph-name="one" unicode="1" horiz-adv-x="495" 
d="M440 377q0 -22 0.5 -54t-1 -68t-5.5 -73.5t-12.5 -70.5t-23 -58t-36.5 -38q-19 -11 -38 -13.5t-40 -2.5q-75 0 -122.5 37.5t-47.5 116.5q0 19 3 38q5 34 7.5 68t2.5 69q0 36 -4 72t-16 71q-10 2 -23.5 4.5t-25.5 7.5t-20 13.5t-8 23.5q0 11 8 24q48 76 120 118.5
t163 42.5q44 0 68 -26.5t35 -64.5t13.5 -80t2.5 -73v-84z" />
    <glyph glyph-name="two" unicode="2" horiz-adv-x="704" 
d="M576 224q23 0 42.5 -8.5t34 -23.5t23 -34.5t8.5 -42.5q0 -49 -28.5 -74.5t-70 -36.5t-87 -12t-79.5 -1t-77 -0.5t-87.5 3t-87 13.5t-75.5 30t-53.5 52.5t-20.5 81.5t25 82.5t62.5 56.5t81 37.5t81 25.5t62.5 21t25 24q0 12 -5 20t-19 8q-21 0 -41.5 -10t-41.5 -22.5
t-44 -22.5t-49 -10q-30 0 -54.5 13t-42.5 34.5t-28 48.5t-10 55q0 40 22 75q18 29 56.5 51t84.5 37t92 22.5t77 7.5q56 0 107.5 -14.5t91 -44t63 -75t23.5 -107.5q0 -67 -25 -110.5t-65.5 -71t-91.5 -44t-104 -29.5q-3 -1 -9 -2.5t-12 -4t-11 -5t-5 -5.5q0 -5 10 -6t13 -1
q60 0 119.5 9.5t119.5 9.5z" />
    <glyph glyph-name="three" unicode="3" horiz-adv-x="669" 
d="M362 443q0 7 -4 13t-12 6q-16 0 -36.5 -13t-45 -28.5t-52 -28.5t-57.5 -13q-28 0 -51.5 11.5t-40.5 31t-26.5 44.5t-9.5 52q0 62 33.5 101t84 62t108 31.5t105.5 8.5q45 0 95 -5.5t92 -24t70 -53t28 -92.5q0 -33 -12.5 -63.5t-33.5 -54.5t-49 -41t-60 -24q37 0 68 -12.5
t53 -34.5t34 -53t12 -68q0 -56 -23.5 -97t-62 -67.5t-86.5 -39t-98 -12.5q-27 0 -65.5 3.5t-80 11.5t-82 22t-72.5 34.5t-52 48.5t-20 65q0 17 3 34.5t10.5 31t21 22t34.5 8.5q16 0 33 -5t34 -11.5t33.5 -14t31.5 -12.5q53 -18 109 -18q9 0 19 1t18.5 4.5t14 10t5.5 18.5
q0 21 -14 30.5t-34.5 13t-45 4t-45 3.5t-34.5 12t-14 29t7 31t25 18q10 4 32.5 10t46 14.5t41 19.5t17.5 25z" />
    <glyph glyph-name="four" unicode="4" horiz-adv-x="657" 
d="M635 376v-52.5t-2 -68t-6 -73.5t-12.5 -70.5t-22 -59t-33.5 -37.5q-18 -11 -36 -13.5t-38 -2.5q-70 0 -108 29t-38 103q0 6 -5 9t-11.5 4.5t-13 1.5h-10.5q-26 0 -53 -1.5t-54 -1.5q-33 0 -65.5 4.5t-58 18t-41.5 38.5t-16 65q0 35 8 69.5t13 69.5q6 38 13.5 88t24.5 94
t48.5 74.5t83.5 30.5q32 0 54.5 -10.5t36.5 -28.5t20.5 -43t6.5 -55q0 -41 -7.5 -80.5t-19.5 -77.5q-6 -20 -11.5 -39.5t-5.5 -39.5q0 -17 7.5 -26.5t25.5 -9.5q21 0 28 25.5t8 65.5t0.5 87.5t5 92.5t21.5 80.5t49 50.5q14 6 29.5 8t30.5 2q18 0 36 -2t34 -13q30 -20 47 -58
t25.5 -82.5t10 -89t1.5 -76.5z" />
    <glyph glyph-name="five" unicode="5" horiz-adv-x="675" 
d="M383 722q38 0 83.5 -4.5t85 -19.5t66 -45t26.5 -81q0 -30 -11 -56t-30 -44.5t-45 -29t-56 -10.5q-24 0 -47 5t-46 10.5t-46 10.5t-47 5q-17 0 -28 -4t-11 -24q0 -8 9.5 -11t22.5 -3t25.5 1.5t17.5 1.5q56 0 111 -9.5t99 -34t71.5 -67.5t27.5 -110q0 -59 -23.5 -101.5
t-62 -69.5t-88 -40t-102.5 -13q-27 0 -65.5 3.5t-80 11.5t-82 22t-72.5 34.5t-52 48.5t-20 65q0 17 3 34.5t10.5 31t21 22t34.5 8.5q23 0 48.5 -9.5t54 -20.5t60 -20.5t65.5 -9.5q10 0 20.5 2t19.5 7.5t14.5 13.5t5.5 20q0 25 -16.5 36.5t-40 15t-48 2.5t-40.5 -1
q-83 0 -128.5 35.5t-45.5 123.5q0 79 26 130.5t71 82t105.5 42.5t129.5 12z" />
    <glyph glyph-name="six" unicode="6" horiz-adv-x="677" 
d="M406 712q32 0 75 -7t81 -24t64.5 -44.5t26.5 -69.5q0 -57 -33 -91t-91 -34q-23 0 -46 5t-45.5 10.5t-45 10.5t-46.5 5q-16 0 -32.5 -3t-29 -10.5t-20.5 -20t-8 -32.5q0 -3 0.5 -5.5t0.5 -5.5q14 10 34.5 17t42.5 11t44 5.5t39 1.5q48 0 92.5 -12t78 -37t54 -63.5
t20.5 -91.5q0 -60 -24 -105t-63.5 -74.5t-91 -44.5t-105.5 -15q-92 0 -160.5 19t-113.5 61t-67 108.5t-22 160.5q0 36 3.5 73t16.5 72q21 58 59.5 101t88.5 71.5t107.5 43t115.5 14.5zM352 160q23 0 40.5 12t17.5 38q0 21 -15 31.5t-35 10.5q-10 0 -22 -2t-22 -7.5t-17 -14
t-7 -21.5q0 -24 19.5 -35.5t40.5 -11.5z" />
    <glyph glyph-name="seven" unicode="7" horiz-adv-x="614" 
d="M602 528q0 -26 -6 -50q-12 -58 -39 -111.5t-51 -107.5q-11 -25 -21 -52.5t-20.5 -54.5t-23 -53t-28.5 -47q-21 -28 -52.5 -41t-66.5 -13q-33 0 -60 12.5t-46.5 34.5t-30.5 50.5t-11 59.5q0 39 16.5 73t41.5 63.5t53.5 53.5t53.5 42.5t41.5 30.5t16.5 18q0 3 -7.5 3.5
t-9.5 0.5q-25 0 -50 -4t-50 -9.5t-49.5 -9.5t-50.5 -4q-29 0 -54.5 10t-44 27.5t-29 42t-10.5 54.5q0 49 27 79.5t67.5 48t86.5 23.5t84 6q27 0 67.5 -4t81.5 -13t77 -23t55 -34q20 -22 31 -47t11 -55z" />
    <glyph glyph-name="eight" unicode="8" horiz-adv-x="732" 
d="M705 470q0 -42 -12 -80.5t-51 -61.5q23 -8 37.5 -23t22 -34.5t10 -41.5t2.5 -43q0 -48 -16 -82t-43 -56.5t-63 -35.5t-75 -19.5t-79 -8.5t-76 -2q-35 0 -74.5 3t-77.5 11t-73 23t-61.5 38t-42.5 56.5t-16 79.5q0 23 5 45t16.5 40.5t28.5 32t41 19.5q-39 26 -56 66t-17 85
q0 80 28 126.5t74 70.5t106.5 31t124.5 7q62 0 122.5 -10.5t108 -38.5t77 -75.5t29.5 -121.5zM363 445q-26 0 -42 -13t-16 -40q0 -20 13 -33t33 -13q10 0 21.5 3t21.5 9t16.5 15t6.5 21q0 23 -16 37t-38 14zM316 167q0 -19 17.5 -26.5t33.5 -7.5q17 0 34.5 8.5t17.5 28.5
q0 19 -16 26.5t-32 7.5q-18 0 -36.5 -7.5t-18.5 -29.5z" />
    <glyph glyph-name="nine" unicode="9" horiz-adv-x="683" 
d="M668 338q0 -67 -16 -127.5t-49.5 -108.5t-85 -79.5t-123.5 -38.5q-22 -2 -43.5 -3t-43.5 -1q-31 0 -76.5 4.5t-88.5 18t-73.5 39t-30.5 67.5q0 46 24 68t69 22q28 0 55 -5.5t54 -12t54 -12t55 -5.5q16 0 32 2.5t28.5 9.5t20.5 19.5t8 31.5q0 8 -1 12q-13 -11 -32.5 -18.5
t-40.5 -12t-42 -6.5t-38 -2q-29 0 -56.5 6t-54.5 14q-159 50 -159 219q0 74 25.5 124t69 81t101.5 44.5t124 13.5q88 0 151.5 -25.5t104 -73t59.5 -114.5t19 -151zM358 434q-29 0 -43 -20t-14 -46q0 -23 12.5 -38.5t36.5 -15.5t46.5 14.5t22.5 41.5q0 26 -17 45t-44 19z" />
    <glyph glyph-name="colon" unicode=":" horiz-adv-x="221" 
d="M206 468q0 -18 -8.5 -31.5t-22 -23.5t-29.5 -15t-32 -5q-38 0 -65.5 16.5t-27.5 59.5q0 41 22 68.5t65 27.5q45 0 71.5 -26t26.5 -71zM15 82q0 18 8.5 31.5t22 23.5t29.5 15t32 5q39 0 66 -17t27 -61q0 -40 -22.5 -67t-64.5 -27q-45 0 -71.5 26t-26.5 71z" />
    <glyph glyph-name="semicolon" unicode=";" horiz-adv-x="242" 
d="M215 463q0 -18 -8.5 -33t-22.5 -25.5t-31 -16t-34 -5.5q-42 0 -70 17.5t-28 64.5q0 43 24 71.5t69 28.5q46 0 73.5 -28t27.5 -74zM114 186q21 0 41.5 -6t36.5 -18t26 -30t10 -42q0 -6 -2 -16q-14 -63 -56 -98.5t-107 -35.5q-6 0 -13 0.5t-13.5 3t-11 6.5t-4.5 12
q0 12 13.5 24.5t29.5 23t29.5 19t14.5 11.5q-6 5 -21.5 7.5t-31 9t-28 19t-12.5 37.5q0 22 8.5 36t22.5 22.5t31.5 11.5t36.5 3z" />
    <glyph glyph-name="less" unicode="&#x3c;" horiz-adv-x="414" 
d="M382 123q0 -13 -2.5 -26t-8.5 -23t-16.5 -16t-26.5 -6q-28 0 -69.5 15t-83 37.5t-77 49t-51.5 49.5q-32 47 -32 104q0 56 26.5 96.5t67 69.5t90 47.5t94.5 31.5q17 5 30 5q20 0 34.5 -8.5t23.5 -22.5t13.5 -31.5t4.5 -34.5q0 -34 -10.5 -58t-29 -41t-43.5 -28t-54 -20
q-4 -1 -15.5 -4t-24.5 -7t-23 -7.5t-10 -6.5q0 -5 5.5 -7t8.5 -3q31 -9 62.5 -20t57.5 -27.5t42.5 -42.5t16.5 -65z" />
    <glyph glyph-name="equal" unicode="=" horiz-adv-x="559" 
d="M184 380q-22 0 -50.5 4.5t-54 16t-42.5 30.5t-17 48q0 20 10 35t26 26q17 12 56.5 18t85 8.5t88 3t66.5 0.5q23 0 55 -1.5t60.5 -10t48.5 -26.5t20 -51q0 -20 -10.5 -37t-24.5 -30q-16 -13 -34.5 -19.5t-38.5 -8.5t-40.5 -2t-39.5 -1q-82 -3 -164 -3zM21 228
q0 24 19.5 39.5t50.5 24.5t69.5 13t75 5t67.5 0.5t48 -0.5q24 0 54 -2t57 -11t45.5 -27.5t18.5 -51.5q0 -34 -16.5 -53t-41 -28t-53.5 -11t-55 -2h-67q-17 0 -44 1t-57 4t-60.5 9.5t-55 18.5t-40 29t-15.5 42z" />
    <glyph glyph-name="greater" unicode="&#x3e;" horiz-adv-x="411" 
d="M223 298q0 3 -10 6.5t-22.5 7.5t-24 7t-15.5 4q-28 8 -53 19t-44 27.5t-30 39.5t-11 56q0 17 4.5 33.5t14 29.5t23.5 21t33 8q14 0 31 -5q45 -13 94.5 -32t90 -47.5t67 -68.5t26.5 -97t-31 -104q-15 -23 -51 -49.5t-78 -49t-84 -37.5t-69 -15q-16 0 -26.5 7t-16.5 17.5
t-8.5 24.5t-2.5 27q0 51 23 80t68 50q6 3 22.5 8.5l34.5 11.5t31.5 11.5t13.5 8.5z" />
    <glyph glyph-name="question" unicode="?" horiz-adv-x="631" 
d="M261 184q-51 0 -78.5 24.5t-27.5 77.5q0 32 14.5 53.5t36 36.5t47 25t47 18.5t36 17t14.5 21.5q0 12 -5 20t-19 8q-21 0 -42 -10.5t-43 -23t-45.5 -23t-50.5 -10.5t-51 11.5t-41.5 31t-27.5 44t-10 51.5q0 37 22 72q18 28 57 49.5t84.5 36.5t91.5 22.5t77 7.5
q50 0 98 -11t86.5 -35.5t62 -64t23.5 -96.5q0 -44 -10.5 -77t-30.5 -58t-49.5 -44t-68.5 -34q-19 -7 -41.5 -13t-39.5 -14q-6 -3 -8 -10.5t-2.5 -16.5t-0.5 -17.5t-2 -14.5q-4 -15 -15.5 -25.5t-26.5 -17t-31 -9.5t-30 -3zM179 83q0 19 10 33.5t25 24t33 14.5t34 5
q20 0 39 -3.5t33.5 -12.5t23 -24t8.5 -39q0 -44 -27.5 -70t-70.5 -26q-45 0 -76.5 25t-31.5 73z" />
    <glyph glyph-name="at" unicode="@" horiz-adv-x="898" 
d="M656 340q0 -18 7 -35.5t29 -17.5q16 0 26.5 11t16.5 26.5t8.5 32.5t2.5 29q0 44 -15 78.5t-41 58.5t-62 36.5t-78 12.5q-72 0 -129.5 -20.5t-97.5 -59.5t-61.5 -95.5t-21.5 -129.5q0 -94 53.5 -142.5t145.5 -48.5q40 0 85 12t81 29q8 4 19 10l22 12t22 10t20 4
q21 0 38.5 -15.5t17.5 -37.5q0 -19 -10 -33t-24 -25q-33 -27 -70.5 -43.5t-78 -25.5t-82 -12.5t-82.5 -3.5q-44 0 -85 7t-81 25q-46 21 -85.5 53.5t-68 73.5t-44.5 89t-16 100q0 107 41 187.5t110 135.5t159 82.5t189 27.5q80 0 147 -25t116.5 -71t77 -111.5t27.5 -146.5
q0 -43 -11 -82.5t-34 -69.5t-58 -48t-83 -18q-35 0 -68.5 12.5t-56.5 40.5q-21 -40 -56.5 -63t-80.5 -23q-62 0 -95.5 37t-33.5 97q0 56 19.5 103t54.5 80.5t82.5 52t102.5 18.5q15 0 34.5 -1.5t36.5 -7.5t28.5 -18t11.5 -33q0 -15 -3.5 -30l-7 -30l-7 -30t-3.5 -31z
M577 351q0 30 -31 30q-10 0 -19 -5t-15.5 -13.5t-10.5 -18.5t-4 -19q0 -14 9 -22.5t23 -8.5q26 0 37 17t11 40z" />
    <glyph glyph-name="A" unicode="A" 
d="M346 700q75 0 128 -31.5t88 -82.5t55 -114.5t30 -126.5t12.5 -120.5t2.5 -95.5q0 -27 -11.5 -50t-31 -39t-44 -25t-50.5 -9q-30 0 -50 4.5t-31 13.5t-15.5 23.5t-4.5 34.5q0 35 -10.5 51.5t-52.5 16.5q-21 0 -35.5 -10t-24 -26.5t-17 -37.5t-15.5 -43q-7 -21 -17 -34.5
t-24 -21.5t-34.5 -11t-50.5 -3q-27 0 -50 12.5t-40.5 32t-27.5 45t-10 50.5q0 46 3.5 107.5t15.5 128t34 131.5t58.5 116t90.5 82.5t129 31.5zM312 337q0 -14 2 -30t6.5 -29.5t12.5 -22.5t20 -9q23 0 37 17t14 52q0 18 -2.5 38t-9 36.5t-17 27.5t-25.5 11q-13 0 -20.5 -9
t-11.5 -22.5t-5 -29.5t-1 -30z" />
    <glyph glyph-name="B" unicode="B" horiz-adv-x="648" 
d="M19 346q0 173 70.5 263.5t224.5 90.5q51 0 102 -6t91.5 -23t65.5 -47.5t25 -78.5q0 -65 -36.5 -108t-100.5 -53q43 -4 74 -13.5t50.5 -27.5t28.5 -47.5t9 -73.5q0 -76 -24 -123.5t-65.5 -74t-96.5 -35.5t-118 -9q-79 0 -136 30t-93.5 80.5t-53.5 117t-17 138.5zM272 465
q0 -20 15.5 -33t34.5 -13q20 0 32.5 14t12.5 33q0 43 -43 43q-22 0 -37 -10t-15 -34zM352 125q51 0 51 52q0 30 -18 47.5t-48 17.5q-24 0 -37.5 -12t-13.5 -37q0 -29 18 -48.5t48 -19.5z" />
    <glyph glyph-name="C" unicode="C" horiz-adv-x="757" 
d="M414 686q39 0 89.5 -11t95.5 -34t75.5 -58.5t30.5 -83.5q0 -19 -7 -38t-20 -34.5t-30.5 -25.5t-37.5 -10q-17 0 -34 7.5t-35 16t-37.5 16t-41.5 7.5q-32 0 -60 -12t-48.5 -32.5t-32 -48.5t-11.5 -60q0 -24 7 -45t20.5 -36.5t33 -25t44.5 -9.5q43 0 73.5 16.5t56 37t51 37
t59.5 16.5q38 0 62 -24.5t24 -62.5q0 -33 -19.5 -61t-48 -50t-61 -38t-59.5 -26q-85 -32 -176 -32q-73 0 -139 24t-115.5 67.5t-78.5 106t-29 138.5q0 51 16 98t44 88t66 74.5t82.5 57.5t93 37t97.5 13z" />
    <glyph glyph-name="D" unicode="D" horiz-adv-x="689" 
d="M20 389q0 26 2 67t8 83t18.5 78t33.5 54q15 12 33 20t37.5 12t39.5 5.5t38 1.5q46 0 92 -6t90 -22q51 -19 98.5 -51t83.5 -75t58 -94.5t22 -108.5q0 -123 -56 -215.5t-174 -136.5q-31 -11 -63.5 -18t-65.5 -7q-22 0 -49.5 1t-55 4t-53 10t-44.5 19q-21 14 -36 41
t-25.5 61t-16.5 73t-9.5 76.5t-4.5 71t-1 56.5zM287 304q0 -12 2.5 -32.5t9 -41t17.5 -35t27 -14.5q21 0 38.5 10t29.5 25.5t19 35t7 38.5q0 21 -6 41.5t-18 37.5t-29.5 27.5t-40.5 10.5q-18 0 -29 -11t-17 -27t-8 -34t-2 -31z" />
    <glyph glyph-name="E" unicode="E" horiz-adv-x="685" 
d="M405 187q44 0 86 6.5t85 13.5q5 1 11 1.5t11 0.5q22 0 35 -9.5t20 -24.5t9.5 -33t2.5 -35q0 -19 -3 -33t-17 -28q-15 -13 -48 -23t-71 -17t-74 -10t-57 -3q-70 0 -131 5t-109 27.5t-79.5 68.5t-43.5 128q-6 42 -11.5 85t-5.5 86q0 74 23.5 130t66.5 93t102 55.5t130 18.5
h90q26 0 64.5 -4.5t74 -17.5t61 -35t25.5 -57q0 -27 -6.5 -52.5t-20.5 -45t-35.5 -31.5t-52.5 -12q-32 0 -63.5 4t-63.5 4q-9 0 -28 -1.5t-38 -6t-33.5 -12t-14.5 -20.5q0 -7 5.5 -12t13 -8t15.5 -4t14 -1q38 0 77 3t77 3q13 0 28.5 -1t28.5 -5.5t22 -14.5t9 -28
q0 -51 -24 -67.5t-72 -16.5h-157q-5 0 -13 -0.5t-15.5 -2.5t-12.5 -6t-5 -12q0 -13 15 -21.5t34.5 -13.5t39 -6.5t29.5 -1.5z" />
    <glyph glyph-name="F" unicode="F" horiz-adv-x="644" 
d="M346 61q0 -23 -12.5 -41t-33.5 -31t-47 -19.5t-53 -6.5q-41 0 -70.5 17t-49.5 45.5t-32 64.5t-18 74.5t-8 76t-2 67.5q0 45 2 90.5t13 90.5q26 107 100 169t186 62h83q26 0 66 -5t77.5 -17.5t64.5 -35t27 -57.5q0 -27 -6.5 -52.5t-20.5 -45t-35.5 -31t-52.5 -11.5
q-28 0 -55.5 4t-55.5 4q-12 0 -29 -2.5t-32.5 -9.5t-26.5 -20.5t-11 -35.5q0 -44 15 -59t34 -15q29 0 58.5 3t58.5 3q19 0 36 -1.5t29.5 -8t20 -19t7.5 -34.5v-24q0 -27 -22.5 -39t-52.5 -16t-60.5 -2.5t-47.5 1.5q-27 0 -41.5 -12t-14.5 -40q0 -16 2 -24.5t4 -16t4 -16
t2 -24.5z" />
    <glyph glyph-name="G" unicode="G" horiz-adv-x="752" 
d="M412 714q40 0 92.5 -10t99.5 -32.5t79.5 -57.5t32.5 -86q0 -19 -7.5 -38t-20 -34.5t-30 -25t-37.5 -9.5q-18 0 -36.5 7.5t-37.5 16.5t-39.5 16.5t-44.5 7.5q-32 0 -58.5 -10.5t-46 -29.5t-30 -45.5t-10.5 -58.5q0 -27 8.5 -55.5t25 -52t40 -38.5t53.5 -15q10 0 25 3
t29.5 9.5t25 16t10.5 21.5q0 11 -11.5 18.5t-21.5 7.5q-14 0 -26 -4t-26 -4q-18 0 -31.5 7t-21.5 19t-12 27.5t-4 31.5q0 26 12 41.5t31 23.5t41 11t42 3q39 0 79 -10.5t72.5 -31.5t52.5 -54t20 -78q0 -22 -6 -43.5t-14 -41.5q-19 -46 -52 -76.5t-74 -49t-87 -26t-91 -7.5
q-86 0 -157.5 25t-122.5 73t-79.5 117.5t-28.5 157.5q0 82 32 149t86 114.5t125.5 73.5t149.5 26z" />
    <glyph glyph-name="H" unicode="H" horiz-adv-x="691" 
d="M169 -27q-23 0 -44.5 7.5t-38.5 21.5q-15 13 -25.5 38t-18 57.5t-12 68.5t-6.5 71t-3 65t-1 49q0 63 4 127.5t14 127.5q4 24 16.5 41.5t30.5 29.5t40 18t44 6q39 0 65.5 -12t42.5 -33.5t23 -51.5t7 -65q0 -21 -1.5 -42.5t-1.5 -42.5q0 -11 1 -22.5t5 -21t12.5 -15.5
t22.5 -6q18 0 32.5 10t18.5 28q4 19 5.5 45t4.5 54t8 55.5t16.5 49t30.5 34.5t49 13q24 0 49 -4.5t42 -23.5q26 -28 40 -78t20.5 -106t8 -110.5t1.5 -91.5q0 -57 -2.5 -107t-20.5 -87.5t-56.5 -59t-110.5 -21.5q-60 0 -91.5 30t-31.5 90q0 20 3 38t8 37q2 7 4.5 15.5
t2.5 15.5q0 14 -14 20.5t-25 6.5q-12 0 -23 -9q-6 -5 -9.5 -21t-7 -37.5t-6.5 -46t-7 -47.5t-10 -42t-14 -28q-17 -19 -41.5 -28.5t-49.5 -9.5z" />
    <glyph glyph-name="I" unicode="I" horiz-adv-x="367" 
d="M196 -3q-29 0 -52 4t-46 24t-39 54.5t-25.5 76.5t-14 89t-6 92t-1.5 85.5v70.5q0 52 14.5 88t41.5 58.5t65.5 33t87.5 10.5q60 0 94.5 -26.5t34.5 -89.5q0 -58 -7.5 -117t-14.5 -117q-7 -57 -13 -115t-19 -115q-4 -21 -11 -40t-18.5 -34t-28.5 -23.5t-42 -8.5z" />
    <glyph glyph-name="J" unicode="J" horiz-adv-x="551" 
d="M175 531q0 30 9.5 57t26 47t39.5 31.5t50 11.5q71 0 115.5 -26t70.5 -69t35.5 -99t9.5 -115q0 -44 -1.5 -90.5t-11 -91t-29.5 -84.5t-57 -71q-42 -35 -92 -52.5t-104 -17.5q-52 0 -105 14q-24 6 -46.5 22t-40.5 37.5t-28.5 47t-10.5 50.5q0 12 3 26.5t10 27t17.5 21
t25.5 8.5q16 0 30 -7t27.5 -15.5t27 -15.5t29.5 -7q15 0 24.5 8t15.5 20t8.5 26t2.5 26q0 52 -8 91.5t-17.5 72t-17.5 60.5t-8 56z" />
    <glyph glyph-name="K" unicode="K" horiz-adv-x="634" 
d="M21 372q0 30 1 68t5.5 77t14.5 76.5t29 66.5t48.5 47t71.5 18q36 0 58 -10t35 -29t17.5 -44.5t4.5 -57.5q0 -40 -4 -80t-6 -80q1 0 3 -1t3 -1q7 0 11 12t6 17q10 35 16.5 79t20 83t40 66t77.5 27q25 0 50.5 -8.5t46.5 -24.5t34.5 -38.5t13.5 -49.5q0 -22 -10.5 -51
t-27.5 -59t-39.5 -60t-46.5 -54t-48.5 -40t-45.5 -19q1 -2 16.5 -6.5t38 -12t49 -19t48.5 -29t37 -40.5t15 -54q0 -36 -5.5 -63t-20 -44.5t-39.5 -26.5t-64 -9t-65 23.5t-44 57t-28.5 71.5t-17.5 68q-1 3 -3.5 13.5t-6 22t-7 20t-6.5 8.5q-1 0 -1.5 -0.5t-1.5 -0.5
q0 -23 0.5 -44.5t0.5 -44.5q0 -33 -2 -67t-13.5 -62t-35 -45.5t-67.5 -17.5q-36 0 -62 20.5t-43 53.5t-27.5 74t-15.5 82.5t-6.5 79t-1.5 62.5z" />
    <glyph glyph-name="L" unicode="L" horiz-adv-x="528" 
d="M312 311q0 -13 1 -30.5t5.5 -34t15 -28t28.5 -11.5q17 0 32 6.5t32 6.5q22 0 40 -14t30.5 -34.5t19.5 -43.5t7 -42q0 -31 -21.5 -51.5t-52.5 -32.5t-64 -16.5t-57 -4.5q-103 0 -163.5 30t-92.5 84t-41.5 127.5t-9.5 160.5q0 57 5.5 120t27 116.5t64.5 88t118 34.5
q61 0 94.5 -38t33.5 -97q0 -21 -4.5 -41t-10.5 -39.5t-12.5 -39.5t-10.5 -40q-14 -68 -14 -136z" />
    <glyph glyph-name="M" unicode="M" horiz-adv-x="860" 
d="M333 214q-4 -33 -7.5 -73.5t-15.5 -76t-36.5 -59t-70.5 -23.5q-38 0 -71 36.5t-58 91.5t-39 120.5t-14 122.5q0 17 1 43t4 56.5t8 63t12.5 63t18.5 56.5t26 42q18 20 40.5 27.5t48.5 7.5q19 0 38 -3.5t37 -8.5q31 -9 57 -40t47 -70t36 -79.5t25 -68.5q1 -3 3 -8.5
t4.5 -11t6 -9.5t6.5 -4q4 0 11 17.5t14.5 40.5t13.5 44.5t9 28.5q12 37 30 73.5t43 65.5t58.5 47t77.5 18q38 0 62 -16t39 -41t21.5 -56t9.5 -62q5 -54 7.5 -108.5t2.5 -108.5q0 -78 -13.5 -148.5t-36 -123.5t-52.5 -84.5t-63 -31.5q-40 0 -70 23t-42 61q-6 19 -5 35.5
t1 35.5q0 28 -1 55.5t-6 54.5q-7 -16 -18 -41.5t-25 -49.5t-31.5 -41t-39.5 -17q-21 0 -37 15t-29 36t-22 44t-16 39z" />
    <glyph glyph-name="N" unicode="N" horiz-adv-x="735" 
d="M324 102q0 -27 -13.5 -46t-34.5 -31.5t-45.5 -18.5t-46.5 -6q-32 0 -62 29.5t-52.5 84.5t-36 133t-13.5 175q0 48 5.5 100.5t21.5 96.5t45 72.5t76 28.5q36 0 63.5 -10t47.5 -24.5t33 -31.5t21 -31q5 -8 17.5 -33.5t27.5 -52.5t29 -48.5t20 -21.5q7 0 8 9t1 14
q0 28 -3 55t-3 55q0 26 14 46t35 34t46 21.5t47 7.5q54 0 85 -29.5t37 -82.5q7 -60 10.5 -120.5t3.5 -120.5q0 -36 -4.5 -78.5t-14.5 -84.5t-25.5 -81.5t-37 -69.5t-49 -48t-62.5 -18q-30 0 -52.5 17.5t-38.5 44t-27.5 57.5t-21 57.5t-18 44t-18.5 17.5q-3 0 -5.5 -9
t-4.5 -24t-3.5 -35.5t-1.5 -43.5z" />
    <glyph glyph-name="O" unicode="O" horiz-adv-x="775" 
d="M386 700q83 0 151 -25t116 -72t74.5 -114t26.5 -151q0 -74 -28.5 -141.5t-78 -118.5t-115.5 -81t-141 -30q-77 0 -144.5 25t-118 71t-79.5 111t-29 144q0 80 26.5 150t74.5 121.5t115.5 81t149.5 29.5zM299 279q0 -42 23.5 -67.5t58.5 -25.5q19 0 36.5 9.5t31 24.5
t21.5 34t8 37q0 17 -8 31.5t-21 25t-29 17t-31 6.5q-38 0 -64 -25t-26 -67z" />
    <glyph glyph-name="P" unicode="P" horiz-adv-x="682" 
d="M11 355q0 82 12.5 150.5t46 118t92.5 77.5t152 28q66 0 129.5 -18t113 -54.5t79.5 -91t30 -128.5q0 -47 -10 -92t-31 -83t-54.5 -67.5t-80.5 -46.5q-35 -12 -70 -17.5t-71 -9.5q-5 -1 -14 -2t-11 -6q-5 -12 -7 -23t-4.5 -21.5t-7 -21.5t-14.5 -22q-17 -18 -39 -25t-46 -7
q-41 0 -71.5 18.5t-52 48t-35.5 68t-22 79t-11 79t-3 69.5zM321 354q0 -9 3.5 -18.5t10.5 -17.5t17.5 -13.5t24.5 -5.5q19 0 31 10t19 25t10 32.5t3 32.5q0 11 -2 22.5t-7.5 21.5t-14 16.5t-21.5 6.5q-24 0 -39 -10.5t-22.5 -26.5t-10 -36t-2.5 -39z" />
    <glyph glyph-name="Q" unicode="Q" horiz-adv-x="741" 
d="M337 -22q-84 0 -143.5 22t-98 64t-56.5 103.5t-18 140.5q0 98 24.5 176.5t70 133t111.5 84t150 29.5q81 0 141.5 -24t101.5 -68.5t61.5 -107.5t20.5 -141q0 -30 -7.5 -62.5t-16.5 -61.5t-16.5 -51.5t-7.5 -32.5q0 -9 11 -16.5t23.5 -18.5t23.5 -26.5t11 -39.5
q0 -18 -8 -35.5t-21.5 -31.5t-31 -23t-35.5 -9q-19 0 -33 8t-25 18t-21.5 18t-21.5 8q-3 0 -16 -6t-29 -13.5t-31 -14.5t-21 -9q-43 -13 -92 -13zM390 451q-78 0 -120.5 -45t-42.5 -114q0 -140 116 -140q13 0 29 5t16 16q0 5 -13 12.5t-28 20t-28 32t-13 48.5q0 12 7.5 25
t19 23.5t25 17t25.5 6.5q15 0 33 -10.5t34.5 -22.5t30 -22.5t21.5 -10.5q7 0 8 10t1 14q0 24 -7.5 48t-22.5 43.5t-37.5 31.5t-53.5 12z" />
    <glyph glyph-name="R" unicode="R" horiz-adv-x="700" 
d="M270 103q0 -49 -24.5 -76t-74.5 -27t-88 33q-22 19 -34 44t-17 52.5t-6.5 56t-3.5 55.5q-2 32 -4 65t-2 65q0 45 3.5 96t17.5 93q17 47 52.5 78.5t80.5 50.5t94.5 26.5t94.5 7.5q55 0 112 -12.5t103 -40.5t75 -73t29 -110q0 -57 -21.5 -104t-57 -80t-81 -51t-93.5 -18
q-17 0 -33.5 2.5t-33.5 7.5q20 -21 51.5 -29t67.5 -10t72 -2t65 -6t47.5 -21.5t18.5 -48.5q0 -25 -11 -52t-29.5 -49t-43 -36t-51.5 -14q-54 0 -101 27.5t-79 69.5q-5 7 -17.5 29t-26.5 45.5t-26 42t-16 18.5q-7 0 -9 -14.5t-2 -32.5t1 -35t1 -23zM308 430q0 -13 9 -23.5
t22 -17.5t28 -10.5t26 -3.5t24.5 2.5t25 8t19.5 15t8 23.5q0 18 -6.5 29.5t-18 18.5t-26 9.5t-29.5 2.5q-13 0 -27.5 -2.5t-26.5 -8.5t-20 -16.5t-8 -26.5z" />
    <glyph glyph-name="S" unicode="S" horiz-adv-x="620" 
d="M315 146q11 0 23 4.5t12 18.5q0 16 -24 26.5t-60 23t-78 30t-78 45.5t-60 69.5t-24 103.5q0 55 20 99t54 75t79.5 47.5t96.5 16.5q63 0 129.5 -13.5t121.5 -44.5q35 -20 51 -50t16 -69q0 -26 -8 -52t-23 -47t-36.5 -34t-48.5 -13q-29 0 -59 11.5t-58 25t-52.5 24.5
t-43.5 11q-8 0 -14 -5t-6 -14q0 -19 26.5 -30t66 -20.5t86 -21.5t86 -33t66 -55t26.5 -88q0 -61 -25 -99.5t-69 -59.5t-104 -28.5t-130 -7.5q-37 0 -81.5 3.5t-83.5 18t-65 42.5t-26 77q0 31 16.5 56.5t51.5 25.5q22 0 49.5 -11t57.5 -23.5t61 -23.5t61 -11z" />
    <glyph glyph-name="T" unicode="T" horiz-adv-x="673" 
d="M204 394q-36 0 -71.5 9.5t-64 29t-46 49.5t-17.5 70q0 55 27 84.5t67.5 43t87 17t86.5 5.5q26 2 51 3t51 1q44 0 95.5 -3t95.5 -18.5t73 -48.5t29 -93q0 -31 -10.5 -59t-29.5 -49t-45.5 -33.5t-59.5 -12.5q-15 0 -35 2t-35 2q3 -96 3 -194q0 -32 -2.5 -70t-14 -71
t-35 -55t-66.5 -22q-28 0 -46 9t-35 32q-12 17 -20.5 45t-14.5 62t-9.5 72t-5.5 73.5t-2.5 67t-0.5 52.5z" />
    <glyph glyph-name="U" unicode="U" horiz-adv-x="672" 
d="M340 -3q-58 0 -103 14t-93 47q-38 27 -62.5 62.5t-38.5 76t-19 84.5t-5 88q0 57 6 116t19 116q6 24 20.5 41.5t34 29t43 17t45.5 5.5q42 0 70.5 -13.5t45 -37.5t23.5 -56t7 -70q0 -30 -2.5 -66t-5.5 -74t-5.5 -74t-2.5 -66q0 -9 1 -24t4.5 -29t11 -24.5t20.5 -10.5
q8 0 12.5 5.5t7.5 13t4 16t1 13.5q0 22 -1 51t-1.5 60t-1.5 60t-1 51q0 39 2.5 82.5t15.5 80t41.5 61t80.5 24.5q29 0 55 -11t42 -37q12 -19 19.5 -48.5t12 -62t6 -64t1.5 -54.5q0 -51 -7 -103t-22 -102q-15 -51 -42 -86.5t-63 -58t-80.5 -33t-95.5 -10.5z" />
    <glyph glyph-name="V" unicode="V" horiz-adv-x="755" 
d="M625 667q62 0 90 -29t28 -90q0 -46 -12.5 -105.5t-32 -120.5t-44.5 -116.5t-51 -94.5q-38 -58 -92.5 -89.5t-124.5 -31.5q-73 0 -127 30.5t-93 79.5t-65 110.5t-44 123.5q-14 51 -29 105.5t-15 107.5q0 35 12.5 64.5t35 50.5t52.5 32.5t64 11.5q29 0 57 -8.5t51 -25.5
q32 -23 50 -55.5t27 -69.5t11.5 -76t3.5 -75q2 -45 1.5 -89.5t8.5 -89.5q1 -5 4 -15.5t10 -10.5q8 0 13.5 18t9.5 41t6 44.5t3 28.5q3 27 7 69.5t12 87t19.5 83.5t29.5 58q23 24 57.5 35t66.5 11z" />
    <glyph glyph-name="W" unicode="W" horiz-adv-x="962" 
d="M291 -10q-56 0 -98 28t-71.5 74t-49 104t-31 117.5t-17 115.5t-8.5 97q0 5 -0.5 8.5t-0.5 8.5q0 35 11.5 66t32.5 55t50.5 38t65.5 14q46 0 78 -20.5t51.5 -53t28.5 -73t9 -79.5q0 -34 -2.5 -68t-2.5 -68q0 -4 0.5 -18t2 -28t4.5 -25.5t9 -11.5q8 0 14 18t13 45t15 59
t19.5 59t27 45t37.5 18q32 0 49 -26t26 -62t12.5 -73t7.5 -59q1 -5 4 -16t11 -11t11 10t4 15l27 135q5 26 9 55.5t9.5 58.5t14.5 55t25.5 46t41.5 32t62 12q35 0 63.5 -13.5t48.5 -36t30.5 -52.5t10.5 -64q0 -27 -6 -64.5t-14.5 -76.5t-18.5 -76t-19 -64
q-15 -46 -33.5 -89.5t-46.5 -77.5t-67.5 -54t-95.5 -20q-70 0 -108.5 31.5t-55.5 98.5l-5.5 16.5t-11.5 10.5q-7 0 -14 -12.5t-16 -30.5t-21 -40t-29 -40t-39.5 -30.5t-53.5 -12.5z" />
    <glyph glyph-name="X" unicode="X" horiz-adv-x="732" 
d="M228 321q-16 7 -38.5 25t-47 42.5t-49 53.5t-43.5 58.5t-31 56.5t-12 47q-1 27 13.5 50t37.5 40t50.5 26.5t51.5 9.5q29 0 64 -22t68 -53t60.5 -64.5t40.5 -56.5q12 16 31 41t40 49.5t42.5 45t39.5 27.5q24 9 50 9q24 0 47 -7.5t41 -21.5t28.5 -34.5t10.5 -46.5
q0 -18 -11 -43.5t-28 -54.5t-38.5 -58.5t-43.5 -56.5t-41.5 -48t-33.5 -32q23 -21 55 -45t60.5 -51t48.5 -57t20 -63q0 -26 -12.5 -45.5t-32.5 -33t-43.5 -20.5t-46.5 -7q-30 0 -58 11q-22 9 -43.5 28.5t-41 43.5t-36.5 49.5t-30 46.5q-21 -27 -36.5 -58.5t-36 -58.5
t-49 -45t-74.5 -18q-25 0 -49.5 9t-44 25.5t-31 40t-11.5 52.5q0 36 20 67.5t49 57.5t63 48.5t61 40.5z" />
    <glyph glyph-name="Y" unicode="Y" horiz-adv-x="735" 
d="M561 716q35 0 66 -7.5t54 -23.5t36 -41t13 -59q0 -58 -18 -101t-45 -77t-58.5 -62.5t-58.5 -58t-45 -63t-18 -78.5q0 -37 -7.5 -67.5t-23 -52.5t-40 -34t-58.5 -12t-58.5 13t-40.5 36t-23.5 55t-7.5 70q0 42 -16.5 73t-41.5 58.5t-53.5 54.5t-53.5 61t-41.5 78.5
t-16.5 106.5q0 31 16.5 56.5t42 43.5t55.5 27.5t58 9.5q35 0 58 -4t38.5 -14.5t26 -28t19.5 -45.5q6 -17 11.5 -35t10.5 -36q1 -4 4 -17.5t7 -27.5t8 -25.5t7 -11.5q5 0 7 8t3 11q9 36 22 75t34 71.5t52 53t76 20.5z" />
    <glyph glyph-name="Z" unicode="Z" horiz-adv-x="670" 
d="M236 403q0 7 -9.5 8t-14.5 1q-23 0 -44.5 -5.5t-44.5 -5.5q-27 0 -47 16t-33.5 40t-20.5 51.5t-7 49.5q0 54 22 82t56.5 41.5t76 16.5t81.5 7q62 6 122 6q39 0 81.5 -3t77.5 -16.5t57.5 -42.5t22.5 -81q0 -46 -17.5 -88t-44 -81t-57.5 -74.5t-58 -68.5q-10 -12 -22 -23.5
t-20 -25.5q3 -4 9 -4q35 0 69 7t69 7q23 0 45.5 -6t40 -17.5t28.5 -28.5t11 -40q0 -45 -23 -69.5t-57.5 -35.5t-74 -13.5t-72.5 -4.5q-48 -3 -95 -3q-20 0 -52 1t-68.5 4.5t-73.5 11.5t-67 21.5t-48.5 33.5t-18.5 49q0 27 16.5 55.5t41 57t53 55.5t53 49.5t41 39.5t16.5 26z
" />
    <glyph glyph-name="bracketleft" unicode="[" horiz-adv-x="338" 
d="M327 665q0 -10 -2.5 -22t-8 -22.5t-14.5 -18t-21 -8.5q-5 -1 -10 -0.5t-10 0.5h-11.5t-18 -1t-16.5 -3t-7 -7q0 -54 -0.5 -106t-0.5 -106q0 -59 1 -116.5t1 -116.5q0 -41 -1 -82t4 -82q2 -16 7 -22.5t12.5 -8t17 0t21.5 1.5q32 0 46.5 -23.5t14.5 -52.5q0 -26 -4 -40.5
t-13 -22t-24.5 -9.5t-39.5 -2q-28 0 -66 4.5t-72.5 16.5t-60 34.5t-28.5 58.5q-3 34 -3 68v68q0 137 0.5 272.5t4.5 272.5q2 57 17.5 87.5t42.5 45t64.5 17t83.5 2.5q19 0 36 -2t30 -10t20.5 -23t7.5 -42z" />
    <glyph glyph-name="backslash" unicode="\" horiz-adv-x="473" 
d="M459 19q0 -30 -19.5 -47.5t-48.5 -17.5q-42 0 -72 26.5t-47 62.5q-38 82 -73 165t-70 167q-26 60 -53 119.5t-54 119.5q-4 8 -6.5 16.5t-2.5 17.5q0 29 22 49t51 20q21 0 38.5 -8.5t31.5 -22t24.5 -30.5t17.5 -35q10 -21 33 -70.5t52 -112t60 -131t57 -128.5t42.5 -103.5
t16.5 -56.5z" />
    <glyph glyph-name="bracketright" unicode="]" horiz-adv-x="357" 
d="M70 -201q-31 0 -46 24t-15 52q0 40 17.5 55.5t55.5 15.5h14t22.5 1t20.5 3.5t9 6.5q0 100 0.5 199t0.5 199v42.5t-1 69t-3 66.5t-7 36q-9 12 -28 14.5t-38 9.5t-33 23t-14 55q0 26 4 41t13 22.5t25 9t40 1.5q29 0 67 -4t73 -16.5t60.5 -35t28.5 -58.5q3 -28 3 -56v-57
v-284t-5 -284q-1 -54 -16.5 -84t-43 -45t-65.5 -18t-85 -3q-14 0 -27 -0.5t-27 -0.5z" />
    <glyph glyph-name="asciicircum" unicode="^" horiz-adv-x="456" 
d="M246 550q-4 0 -6 -4.5t-3 -7.5q-10 -28 -19.5 -56t-24.5 -50.5t-38 -36.5t-59 -14q-15 0 -30 4t-27.5 12t-20 20.5t-7.5 29.5q0 9 4 23t10 29t12.5 29t10.5 23q13 29 30 55t38.5 46t49.5 32t62 12q41 0 78.5 -17t61.5 -50q13 -18 26.5 -41.5t25 -49t19 -51t7.5 -47.5
q0 -31 -17 -46t-47 -15q-34 0 -56 14.5t-36 37.5t-22.5 51t-14.5 55q-1 2 -2 7.5t-5 5.5z" />
    <glyph glyph-name="underscore" unicode="_" horiz-adv-x="501" 
d="M153 -190q-21 0 -47 4t-49.5 14.5t-39.5 27.5t-16 44q0 13 7 27q9 17 22.5 25t29 10.5t32.5 2t33 -0.5q43 0 85.5 3t85.5 3q21 0 55 -1.5t66.5 -9.5t55.5 -25t23 -48q0 -20 -11.5 -35t-28.5 -25t-37 -14.5t-37 -4.5q-20 0 -41 2t-41 2q-37 1 -73.5 0t-73.5 -1z" />
    <glyph glyph-name="grave" unicode="`" horiz-adv-x="286" 
d="M9 684q0 18 8.5 30.5t22 20t29.5 11t31 3.5q17 0 26 -2.5t22 -14.5q3 -3 13 -17.5t23.5 -34t28 -42.5t26.5 -42.5t20 -33t8 -15.5q0 -8 -6 -14t-14 -9.5t-17.5 -5.5t-15.5 -2q-23 0 -58 17t-67.5 42.5t-56 55t-23.5 53.5z" />
    <glyph glyph-name="a" unicode="a" 
d="M346 700q75 0 128 -31.5t88 -82.5t55 -114.5t30 -126.5t12.5 -120.5t2.5 -95.5q0 -27 -11.5 -50t-31 -39t-44 -25t-50.5 -9q-30 0 -50 4.5t-31 13.5t-15.5 23.5t-4.5 34.5q0 35 -10.5 51.5t-52.5 16.5q-21 0 -35.5 -10t-24 -26.5t-17 -37.5t-15.5 -43q-7 -21 -17 -34.5
t-24 -21.5t-34.5 -11t-50.5 -3q-27 0 -50 12.5t-40.5 32t-27.5 45t-10 50.5q0 46 3.5 107.5t15.5 128t34 131.5t58.5 116t90.5 82.5t129 31.5zM312 337q0 -14 2 -30t6.5 -29.5t12.5 -22.5t20 -9q23 0 37 17t14 52q0 18 -2.5 38t-9 36.5t-17 27.5t-25.5 11q-13 0 -20.5 -9
t-11.5 -22.5t-5 -29.5t-1 -30z" />
    <glyph glyph-name="b" unicode="b" horiz-adv-x="648" 
d="M19 346q0 173 70.5 263.5t224.5 90.5q51 0 102 -6t91.5 -23t65.5 -47.5t25 -78.5q0 -65 -36.5 -108t-100.5 -53q43 -4 74 -13.5t50.5 -27.5t28.5 -47.5t9 -73.5q0 -76 -24 -123.5t-65.5 -74t-96.5 -35.5t-118 -9q-79 0 -136 30t-93.5 80.5t-53.5 117t-17 138.5zM272 465
q0 -20 15.5 -33t34.5 -13q20 0 32.5 14t12.5 33q0 43 -43 43q-22 0 -37 -10t-15 -34zM352 125q51 0 51 52q0 30 -18 47.5t-48 17.5q-24 0 -37.5 -12t-13.5 -37q0 -29 18 -48.5t48 -19.5z" />
    <glyph glyph-name="c" unicode="c" horiz-adv-x="757" 
d="M414 686q39 0 89.5 -11t95.5 -34t75.5 -58.5t30.5 -83.5q0 -19 -7 -38t-20 -34.5t-30.5 -25.5t-37.5 -10q-17 0 -34 7.5t-35 16t-37.5 16t-41.5 7.5q-32 0 -60 -12t-48.5 -32.5t-32 -48.5t-11.5 -60q0 -24 7 -45t20.5 -36.5t33 -25t44.5 -9.5q43 0 73.5 16.5t56 37t51 37
t59.5 16.5q38 0 62 -24.5t24 -62.5q0 -33 -19.5 -61t-48 -50t-61 -38t-59.5 -26q-85 -32 -176 -32q-73 0 -139 24t-115.5 67.5t-78.5 106t-29 138.5q0 51 16 98t44 88t66 74.5t82.5 57.5t93 37t97.5 13z" />
    <glyph glyph-name="d" unicode="d" horiz-adv-x="689" 
d="M20 389q0 26 2 67t8 83t18.5 78t33.5 54q15 12 33 20t37.5 12t39.5 5.5t38 1.5q46 0 92 -6t90 -22q51 -19 98.5 -51t83.5 -75t58 -94.5t22 -108.5q0 -123 -56 -215.5t-174 -136.5q-31 -11 -63.5 -18t-65.5 -7q-22 0 -49.5 1t-55 4t-53 10t-44.5 19q-21 14 -36 41
t-25.5 61t-16.5 73t-9.5 76.5t-4.5 71t-1 56.5zM287 304q0 -12 2.5 -32.5t9 -41t17.5 -35t27 -14.5q21 0 38.5 10t29.5 25.5t19 35t7 38.5q0 21 -6 41.5t-18 37.5t-29.5 27.5t-40.5 10.5q-18 0 -29 -11t-17 -27t-8 -34t-2 -31z" />
    <glyph glyph-name="e" unicode="e" horiz-adv-x="685" 
d="M405 187q44 0 86 6.5t85 13.5q5 1 11 1.5t11 0.5q22 0 35 -9.5t20 -24.5t9.5 -33t2.5 -35q0 -19 -3 -33t-17 -28q-15 -13 -48 -23t-71 -17t-74 -10t-57 -3q-70 0 -131 5t-109 27.5t-79.5 68.5t-43.5 128q-6 42 -11.5 85t-5.5 86q0 74 23.5 130t66.5 93t102 55.5t130 18.5
h90q26 0 64.5 -4.5t74 -17.5t61 -35t25.5 -57q0 -27 -6.5 -52.5t-20.5 -45t-35.5 -31.5t-52.5 -12q-32 0 -63.5 4t-63.5 4q-9 0 -28 -1.5t-38 -6t-33.5 -12t-14.5 -20.5q0 -7 5.5 -12t13 -8t15.5 -4t14 -1q38 0 77 3t77 3q13 0 28.5 -1t28.5 -5.5t22 -14.5t9 -28
q0 -51 -24 -67.5t-72 -16.5h-157q-5 0 -13 -0.5t-15.5 -2.5t-12.5 -6t-5 -12q0 -13 15 -21.5t34.5 -13.5t39 -6.5t29.5 -1.5z" />
    <glyph glyph-name="f" unicode="f" horiz-adv-x="644" 
d="M346 61q0 -23 -12.5 -41t-33.5 -31t-47 -19.5t-53 -6.5q-41 0 -70.5 17t-49.5 45.5t-32 64.5t-18 74.5t-8 76t-2 67.5q0 45 2 90.5t13 90.5q26 107 100 169t186 62h83q26 0 66 -5t77.5 -17.5t64.5 -35t27 -57.5q0 -27 -6.5 -52.5t-20.5 -45t-35.5 -31t-52.5 -11.5
q-28 0 -55.5 4t-55.5 4q-12 0 -29 -2.5t-32.5 -9.5t-26.5 -20.5t-11 -35.5q0 -44 15 -59t34 -15q29 0 58.5 3t58.5 3q19 0 36 -1.5t29.5 -8t20 -19t7.5 -34.5v-24q0 -27 -22.5 -39t-52.5 -16t-60.5 -2.5t-47.5 1.5q-27 0 -41.5 -12t-14.5 -40q0 -16 2 -24.5t4 -16t4 -16
t2 -24.5z" />
    <glyph glyph-name="g" unicode="g" horiz-adv-x="752" 
d="M412 714q40 0 92.5 -10t99.5 -32.5t79.5 -57.5t32.5 -86q0 -19 -7.5 -38t-20 -34.5t-30 -25t-37.5 -9.5q-18 0 -36.5 7.5t-37.5 16.5t-39.5 16.5t-44.5 7.5q-32 0 -58.5 -10.5t-46 -29.5t-30 -45.5t-10.5 -58.5q0 -27 8.5 -55.5t25 -52t40 -38.5t53.5 -15q10 0 25 3
t29.5 9.5t25 16t10.5 21.5q0 11 -11.5 18.5t-21.5 7.5q-14 0 -26 -4t-26 -4q-18 0 -31.5 7t-21.5 19t-12 27.5t-4 31.5q0 26 12 41.5t31 23.5t41 11t42 3q39 0 79 -10.5t72.5 -31.5t52.5 -54t20 -78q0 -22 -6 -43.5t-14 -41.5q-19 -46 -52 -76.5t-74 -49t-87 -26t-91 -7.5
q-86 0 -157.5 25t-122.5 73t-79.5 117.5t-28.5 157.5q0 82 32 149t86 114.5t125.5 73.5t149.5 26z" />
    <glyph glyph-name="h" unicode="h" horiz-adv-x="691" 
d="M169 -27q-23 0 -44.5 7.5t-38.5 21.5q-15 13 -25.5 38t-18 57.5t-12 68.5t-6.5 71t-3 65t-1 49q0 63 4 127.5t14 127.5q4 24 16.5 41.5t30.5 29.5t40 18t44 6q39 0 65.5 -12t42.5 -33.5t23 -51.5t7 -65q0 -21 -1.5 -42.5t-1.5 -42.5q0 -11 1 -22.5t5 -21t12.5 -15.5
t22.5 -6q18 0 32.5 10t18.5 28q4 19 5.5 45t4.5 54t8 55.5t16.5 49t30.5 34.5t49 13q24 0 49 -4.5t42 -23.5q26 -28 40 -78t20.5 -106t8 -110.5t1.5 -91.5q0 -57 -2.5 -107t-20.5 -87.5t-56.5 -59t-110.5 -21.5q-60 0 -91.5 30t-31.5 90q0 20 3 38t8 37q2 7 4.5 15.5
t2.5 15.5q0 14 -14 20.5t-25 6.5q-12 0 -23 -9q-6 -5 -9.5 -21t-7 -37.5t-6.5 -46t-7 -47.5t-10 -42t-14 -28q-17 -19 -41.5 -28.5t-49.5 -9.5z" />
    <glyph glyph-name="i" unicode="i" horiz-adv-x="367" 
d="M196 -3q-29 0 -52 4t-46 24t-39 54.5t-25.5 76.5t-14 89t-6 92t-1.5 85.5v70.5q0 52 14.5 88t41.5 58.5t65.5 33t87.5 10.5q60 0 94.5 -26.5t34.5 -89.5q0 -58 -7.5 -117t-14.5 -117q-7 -57 -13 -115t-19 -115q-4 -21 -11 -40t-18.5 -34t-28.5 -23.5t-42 -8.5z" />
    <glyph glyph-name="j" unicode="j" horiz-adv-x="551" 
d="M175 531q0 30 9.5 57t26 47t39.5 31.5t50 11.5q71 0 115.5 -26t70.5 -69t35.5 -99t9.5 -115q0 -44 -1.5 -90.5t-11 -91t-29.5 -84.5t-57 -71q-42 -35 -92 -52.5t-104 -17.5q-52 0 -105 14q-24 6 -46.5 22t-40.5 37.5t-28.5 47t-10.5 50.5q0 12 3 26.5t10 27t17.5 21
t25.5 8.5q16 0 30 -7t27.5 -15.5t27 -15.5t29.5 -7q15 0 24.5 8t15.5 20t8.5 26t2.5 26q0 52 -8 91.5t-17.5 72t-17.5 60.5t-8 56z" />
    <glyph glyph-name="k" unicode="k" horiz-adv-x="634" 
d="M21 372q0 30 1 68t5.5 77t14.5 76.5t29 66.5t48.5 47t71.5 18q36 0 58 -10t35 -29t17.5 -44.5t4.5 -57.5q0 -40 -4 -80t-6 -80q1 0 3 -1t3 -1q7 0 11 12t6 17q10 35 16.5 79t20 83t40 66t77.5 27q25 0 50.5 -8.5t46.5 -24.5t34.5 -38.5t13.5 -49.5q0 -22 -10.5 -51
t-27.5 -59t-39.5 -60t-46.5 -54t-48.5 -40t-45.5 -19q1 -2 16.5 -6.5t38 -12t49 -19t48.5 -29t37 -40.5t15 -54q0 -36 -5.5 -63t-20 -44.5t-39.5 -26.5t-64 -9t-65 23.5t-44 57t-28.5 71.5t-17.5 68q-1 3 -3.5 13.5t-6 22t-7 20t-6.5 8.5q-1 0 -1.5 -0.5t-1.5 -0.5
q0 -23 0.5 -44.5t0.5 -44.5q0 -33 -2 -67t-13.5 -62t-35 -45.5t-67.5 -17.5q-36 0 -62 20.5t-43 53.5t-27.5 74t-15.5 82.5t-6.5 79t-1.5 62.5z" />
    <glyph glyph-name="l" unicode="l" horiz-adv-x="528" 
d="M312 311q0 -13 1 -30.5t5.5 -34t15 -28t28.5 -11.5q17 0 32 6.5t32 6.5q22 0 40 -14t30.5 -34.5t19.5 -43.5t7 -42q0 -31 -21.5 -51.5t-52.5 -32.5t-64 -16.5t-57 -4.5q-103 0 -163.5 30t-92.5 84t-41.5 127.5t-9.5 160.5q0 57 5.5 120t27 116.5t64.5 88t118 34.5
q61 0 94.5 -38t33.5 -97q0 -21 -4.5 -41t-10.5 -39.5t-12.5 -39.5t-10.5 -40q-14 -68 -14 -136z" />
    <glyph glyph-name="m" unicode="m" horiz-adv-x="860" 
d="M333 214q-4 -33 -7.5 -73.5t-15.5 -76t-36.5 -59t-70.5 -23.5q-38 0 -71 36.5t-58 91.5t-39 120.5t-14 122.5q0 17 1 43t4 56.5t8 63t12.5 63t18.5 56.5t26 42q18 20 40.5 27.5t48.5 7.5q19 0 38 -3.5t37 -8.5q31 -9 57 -40t47 -70t36 -79.5t25 -68.5q1 -3 3 -8.5
t4.5 -11t6 -9.5t6.5 -4q4 0 11 17.5t14.5 40.5t13.5 44.5t9 28.5q12 37 30 73.5t43 65.5t58.5 47t77.5 18q38 0 62 -16t39 -41t21.5 -56t9.5 -62q5 -54 7.5 -108.5t2.5 -108.5q0 -78 -13.5 -148.5t-36 -123.5t-52.5 -84.5t-63 -31.5q-40 0 -70 23t-42 61q-6 19 -5 35.5
t1 35.5q0 28 -1 55.5t-6 54.5q-7 -16 -18 -41.5t-25 -49.5t-31.5 -41t-39.5 -17q-21 0 -37 15t-29 36t-22 44t-16 39z" />
    <glyph glyph-name="n" unicode="n" horiz-adv-x="735" 
d="M324 102q0 -27 -13.5 -46t-34.5 -31.5t-45.5 -18.5t-46.5 -6q-32 0 -62 29.5t-52.5 84.5t-36 133t-13.5 175q0 48 5.5 100.5t21.5 96.5t45 72.5t76 28.5q36 0 63.5 -10t47.5 -24.5t33 -31.5t21 -31q5 -8 17.5 -33.5t27.5 -52.5t29 -48.5t20 -21.5q7 0 8 9t1 14
q0 28 -3 55t-3 55q0 26 14 46t35 34t46 21.5t47 7.5q54 0 85 -29.5t37 -82.5q7 -60 10.5 -120.5t3.5 -120.5q0 -36 -4.5 -78.5t-14.5 -84.5t-25.5 -81.5t-37 -69.5t-49 -48t-62.5 -18q-30 0 -52.5 17.5t-38.5 44t-27.5 57.5t-21 57.5t-18 44t-18.5 17.5q-3 0 -5.5 -9
t-4.5 -24t-3.5 -35.5t-1.5 -43.5z" />
    <glyph glyph-name="o" unicode="o" horiz-adv-x="775" 
d="M386 700q83 0 151 -25t116 -72t74.5 -114t26.5 -151q0 -74 -28.5 -141.5t-78 -118.5t-115.5 -81t-141 -30q-77 0 -144.5 25t-118 71t-79.5 111t-29 144q0 80 26.5 150t74.5 121.5t115.5 81t149.5 29.5zM299 279q0 -42 23.5 -67.5t58.5 -25.5q19 0 36.5 9.5t31 24.5
t21.5 34t8 37q0 17 -8 31.5t-21 25t-29 17t-31 6.5q-38 0 -64 -25t-26 -67z" />
    <glyph glyph-name="p" unicode="p" horiz-adv-x="682" 
d="M11 355q0 82 12.5 150.5t46 118t92.5 77.5t152 28q66 0 129.5 -18t113 -54.5t79.5 -91t30 -128.5q0 -47 -10 -92t-31 -83t-54.5 -67.5t-80.5 -46.5q-35 -12 -70 -17.5t-71 -9.5q-5 -1 -14 -2t-11 -6q-5 -12 -7 -23t-4.5 -21.5t-7 -21.5t-14.5 -22q-17 -18 -39 -25t-46 -7
q-41 0 -71.5 18.5t-52 48t-35.5 68t-22 79t-11 79t-3 69.5zM321 354q0 -9 3.5 -18.5t10.5 -17.5t17.5 -13.5t24.5 -5.5q19 0 31 10t19 25t10 32.5t3 32.5q0 11 -2 22.5t-7.5 21.5t-14 16.5t-21.5 6.5q-24 0 -39 -10.5t-22.5 -26.5t-10 -36t-2.5 -39z" />
    <glyph glyph-name="q" unicode="q" horiz-adv-x="741" 
d="M337 -22q-84 0 -143.5 22t-98 64t-56.5 103.5t-18 140.5q0 98 24.5 176.5t70 133t111.5 84t150 29.5q81 0 141.5 -24t101.5 -68.5t61.5 -107.5t20.5 -141q0 -30 -7.5 -62.5t-16.5 -61.5t-16.5 -51.5t-7.5 -32.5q0 -9 11 -16.5t23.5 -18.5t23.5 -26.5t11 -39.5
q0 -18 -8 -35.5t-21.5 -31.5t-31 -23t-35.5 -9q-19 0 -33 8t-25 18t-21.5 18t-21.5 8q-3 0 -16 -6t-29 -13.5t-31 -14.5t-21 -9q-43 -13 -92 -13zM390 451q-78 0 -120.5 -45t-42.5 -114q0 -140 116 -140q13 0 29 5t16 16q0 5 -13 12.5t-28 20t-28 32t-13 48.5q0 12 7.5 25
t19 23.5t25 17t25.5 6.5q15 0 33 -10.5t34.5 -22.5t30 -22.5t21.5 -10.5q7 0 8 10t1 14q0 24 -7.5 48t-22.5 43.5t-37.5 31.5t-53.5 12z" />
    <glyph glyph-name="r" unicode="r" horiz-adv-x="700" 
d="M270 103q0 -49 -24.5 -76t-74.5 -27t-88 33q-22 19 -34 44t-17 52.5t-6.5 56t-3.5 55.5q-2 32 -4 65t-2 65q0 45 3.5 96t17.5 93q17 47 52.5 78.5t80.5 50.5t94.5 26.5t94.5 7.5q55 0 112 -12.5t103 -40.5t75 -73t29 -110q0 -57 -21.5 -104t-57 -80t-81 -51t-93.5 -18
q-17 0 -33.5 2.5t-33.5 7.5q20 -21 51.5 -29t67.5 -10t72 -2t65 -6t47.5 -21.5t18.5 -48.5q0 -25 -11 -52t-29.5 -49t-43 -36t-51.5 -14q-54 0 -101 27.5t-79 69.5q-5 7 -17.5 29t-26.5 45.5t-26 42t-16 18.5q-7 0 -9 -14.5t-2 -32.5t1 -35t1 -23zM308 430q0 -13 9 -23.5
t22 -17.5t28 -10.5t26 -3.5t24.5 2.5t25 8t19.5 15t8 23.5q0 18 -6.5 29.5t-18 18.5t-26 9.5t-29.5 2.5q-13 0 -27.5 -2.5t-26.5 -8.5t-20 -16.5t-8 -26.5z" />
    <glyph glyph-name="s" unicode="s" horiz-adv-x="620" 
d="M315 146q11 0 23 4.5t12 18.5q0 16 -24 26.5t-60 23t-78 30t-78 45.5t-60 69.5t-24 103.5q0 55 20 99t54 75t79.5 47.5t96.5 16.5q63 0 129.5 -13.5t121.5 -44.5q35 -20 51 -50t16 -69q0 -26 -8 -52t-23 -47t-36.5 -34t-48.5 -13q-29 0 -59 11.5t-58 25t-52.5 24.5
t-43.5 11q-8 0 -14 -5t-6 -14q0 -19 26.5 -30t66 -20.5t86 -21.5t86 -33t66 -55t26.5 -88q0 -61 -25 -99.5t-69 -59.5t-104 -28.5t-130 -7.5q-37 0 -81.5 3.5t-83.5 18t-65 42.5t-26 77q0 31 16.5 56.5t51.5 25.5q22 0 49.5 -11t57.5 -23.5t61 -23.5t61 -11z" />
    <glyph glyph-name="t" unicode="t" horiz-adv-x="673" 
d="M204 394q-36 0 -71.5 9.5t-64 29t-46 49.5t-17.5 70q0 55 27 84.5t67.5 43t87 17t86.5 5.5q26 2 51 3t51 1q44 0 95.5 -3t95.5 -18.5t73 -48.5t29 -93q0 -31 -10.5 -59t-29.5 -49t-45.5 -33.5t-59.5 -12.5q-15 0 -35 2t-35 2q3 -96 3 -194q0 -32 -2.5 -70t-14 -71
t-35 -55t-66.5 -22q-28 0 -46 9t-35 32q-12 17 -20.5 45t-14.5 62t-9.5 72t-5.5 73.5t-2.5 67t-0.5 52.5z" />
    <glyph glyph-name="u" unicode="u" horiz-adv-x="672" 
d="M340 -3q-58 0 -103 14t-93 47q-38 27 -62.5 62.5t-38.5 76t-19 84.5t-5 88q0 57 6 116t19 116q6 24 20.5 41.5t34 29t43 17t45.5 5.5q42 0 70.5 -13.5t45 -37.5t23.5 -56t7 -70q0 -30 -2.5 -66t-5.5 -74t-5.5 -74t-2.5 -66q0 -9 1 -24t4.5 -29t11 -24.5t20.5 -10.5
q8 0 12.5 5.5t7.5 13t4 16t1 13.5q0 22 -1 51t-1.5 60t-1.5 60t-1 51q0 39 2.5 82.5t15.5 80t41.5 61t80.5 24.5q29 0 55 -11t42 -37q12 -19 19.5 -48.5t12 -62t6 -64t1.5 -54.5q0 -51 -7 -103t-22 -102q-15 -51 -42 -86.5t-63 -58t-80.5 -33t-95.5 -10.5z" />
    <glyph glyph-name="v" unicode="v" horiz-adv-x="755" 
d="M625 667q62 0 90 -29t28 -90q0 -46 -12.5 -105.5t-32 -120.5t-44.5 -116.5t-51 -94.5q-38 -58 -92.5 -89.5t-124.5 -31.5q-73 0 -127 30.5t-93 79.5t-65 110.5t-44 123.5q-14 51 -29 105.5t-15 107.5q0 35 12.5 64.5t35 50.5t52.5 32.5t64 11.5q29 0 57 -8.5t51 -25.5
q32 -23 50 -55.5t27 -69.5t11.5 -76t3.5 -75q2 -45 1.5 -89.5t8.5 -89.5q1 -5 4 -15.5t10 -10.5q8 0 13.5 18t9.5 41t6 44.5t3 28.5q3 27 7 69.5t12 87t19.5 83.5t29.5 58q23 24 57.5 35t66.5 11z" />
    <glyph glyph-name="w" unicode="w" horiz-adv-x="962" 
d="M291 -10q-56 0 -98 28t-71.5 74t-49 104t-31 117.5t-17 115.5t-8.5 97q0 5 -0.5 8.5t-0.5 8.5q0 35 11.5 66t32.5 55t50.5 38t65.5 14q46 0 78 -20.5t51.5 -53t28.5 -73t9 -79.5q0 -34 -2.5 -68t-2.5 -68q0 -4 0.5 -18t2 -28t4.5 -25.5t9 -11.5q8 0 14 18t13 45t15 59
t19.5 59t27 45t37.5 18q32 0 49 -26t26 -62t12.5 -73t7.5 -59q1 -5 4 -16t11 -11t11 10t4 15l27 135q5 26 9 55.5t9.5 58.5t14.5 55t25.5 46t41.5 32t62 12q35 0 63.5 -13.5t48.5 -36t30.5 -52.5t10.5 -64q0 -27 -6 -64.5t-14.5 -76.5t-18.5 -76t-19 -64
q-15 -46 -33.5 -89.5t-46.5 -77.5t-67.5 -54t-95.5 -20q-70 0 -108.5 31.5t-55.5 98.5l-5.5 16.5t-11.5 10.5q-7 0 -14 -12.5t-16 -30.5t-21 -40t-29 -40t-39.5 -30.5t-53.5 -12.5z" />
    <glyph glyph-name="x" unicode="x" horiz-adv-x="732" 
d="M228 321q-16 7 -38.5 25t-47 42.5t-49 53.5t-43.5 58.5t-31 56.5t-12 47q-1 27 13.5 50t37.5 40t50.5 26.5t51.5 9.5q29 0 64 -22t68 -53t60.5 -64.5t40.5 -56.5q12 16 31 41t40 49.5t42.5 45t39.5 27.5q24 9 50 9q24 0 47 -7.5t41 -21.5t28.5 -34.5t10.5 -46.5
q0 -18 -11 -43.5t-28 -54.5t-38.5 -58.5t-43.5 -56.5t-41.5 -48t-33.5 -32q23 -21 55 -45t60.5 -51t48.5 -57t20 -63q0 -26 -12.5 -45.5t-32.5 -33t-43.5 -20.5t-46.5 -7q-30 0 -58 11q-22 9 -43.5 28.5t-41 43.5t-36.5 49.5t-30 46.5q-21 -27 -36.5 -58.5t-36 -58.5
t-49 -45t-74.5 -18q-25 0 -49.5 9t-44 25.5t-31 40t-11.5 52.5q0 36 20 67.5t49 57.5t63 48.5t61 40.5z" />
    <glyph glyph-name="y" unicode="y" horiz-adv-x="735" 
d="M561 716q35 0 66 -7.5t54 -23.5t36 -41t13 -59q0 -58 -18 -101t-45 -77t-58.5 -62.5t-58.5 -58t-45 -63t-18 -78.5q0 -37 -7.5 -67.5t-23 -52.5t-40 -34t-58.5 -12t-58.5 13t-40.5 36t-23.5 55t-7.5 70q0 42 -16.5 73t-41.5 58.5t-53.5 54.5t-53.5 61t-41.5 78.5
t-16.5 106.5q0 31 16.5 56.5t42 43.5t55.5 27.5t58 9.5q35 0 58 -4t38.5 -14.5t26 -28t19.5 -45.5q6 -17 11.5 -35t10.5 -36q1 -4 4 -17.5t7 -27.5t8 -25.5t7 -11.5q5 0 7 8t3 11q9 36 22 75t34 71.5t52 53t76 20.5z" />
    <glyph glyph-name="z" unicode="z" horiz-adv-x="670" 
d="M236 403q0 7 -9.5 8t-14.5 1q-23 0 -44.5 -5.5t-44.5 -5.5q-27 0 -47 16t-33.5 40t-20.5 51.5t-7 49.5q0 54 22 82t56.5 41.5t76 16.5t81.5 7q62 6 122 6q39 0 81.5 -3t77.5 -16.5t57.5 -42.5t22.5 -81q0 -46 -17.5 -88t-44 -81t-57.5 -74.5t-58 -68.5q-10 -12 -22 -23.5
t-20 -25.5q3 -4 9 -4q35 0 69 7t69 7q23 0 45.5 -6t40 -17.5t28.5 -28.5t11 -40q0 -45 -23 -69.5t-57.5 -35.5t-74 -13.5t-72.5 -4.5q-48 -3 -95 -3q-20 0 -52 1t-68.5 4.5t-73.5 11.5t-67 21.5t-48.5 33.5t-18.5 49q0 27 16.5 55.5t41 57t53 55.5t53 49.5t41 39.5t16.5 26z
" />
    <glyph glyph-name="braceleft" unicode="{" horiz-adv-x="506" 
d="M144 191q-16 13 -32 24t-28.5 21t-20.5 20t-8 22q0 23 24 43.5t53 45.5q9 8 15.5 27.5t10.5 45.5t6.5 54.5t4 55.5t2.5 48.5t2 32.5q3 36 28.5 58.5t60.5 35t73.5 16.5t66.5 4q24 0 40 -1.5t25 -9t13 -22.5t4 -41q0 -27 -7.5 -42.5t-19 -24.5t-25.5 -12.5t-27.5 -6
t-24.5 -5.5t-17 -11q-4 -4 -2.5 -22t3 -42t0.5 -51.5t-9 -52.5q-5 -16 -16 -32t-22 -29.5t-19 -24.5t-8 -17q0 -12 7 -24t16 -25t18.5 -28t13.5 -35q6 -25 7 -50.5t-0.5 -49.5t-3.5 -46t-2 -40t2.5 -28.5t5.5 -16t6.5 -7t4.5 -2.5q21 -10 43 -12.5t40 -8.5t29 -21t11 -48
q0 -23 -6 -38t-17 -23.5t-27 -11.5t-36 -3q-31 0 -63.5 2t-62 11t-53 28t-36.5 53q-11 29 -15.5 68t-4.5 69q0 21 0.5 48.5t-1 53.5t-6.5 47.5t-16 30.5z" />
    <glyph glyph-name="bar" unicode="|" horiz-adv-x="205" 
d="M116 731q22 0 35 -9t20 -23t9 -31.5t2 -34.5q0 -29 -1.5 -58t-1.5 -58q0 -137 2 -271.5t2 -271.5q0 -21 -6 -47t-18 -48.5t-30.5 -38t-44.5 -15.5q-22 0 -34.5 13t-18.5 31.5t-7.5 39.5t-1.5 37q0 141 1 280.5t1 280.5v38.5t2 47.5t7.5 49.5t15.5 44.5t26.5 32t40.5 12z
" />
    <glyph glyph-name="braceright" unicode="}" horiz-adv-x="506" 
d="M399 191q-11 -9 -16 -30.5t-6.5 -47.5t-1 -53.5t0.5 -48.5q0 -30 -4.5 -69t-15.5 -68q-13 -34 -36.5 -53t-53 -28t-62 -11t-63.5 -2q-20 0 -36 3t-27 11.5t-17 23.5t-6 38q0 33 11 48t29 21t40 8.5t43 12.5l5 2.5t6 7t5.5 16t2.5 28.5t-2 40t-3.5 46t-0.5 49.5t7 50.5
q5 20 14 35t18 28t16 25t7 24q0 6 -8 17t-19 24.5t-22 29.5t-16 32q-8 25 -9 52.5t0.5 51.5t3 42t-2.5 22q-9 12 -29 14t-40.5 8.5t-36 23t-15.5 56.5q0 26 4 41t13 22.5t25 9t40 1.5q29 0 67 -4t73 -16.5t60.5 -35t28.5 -58.5q1 -11 2 -32.5t2.5 -48.5t4 -55.5t6.5 -54.5
t10.5 -45.5t15.5 -27.5q29 -25 53 -45.5t24 -43.5q0 -12 -8 -22t-20.5 -20t-28.5 -21t-32 -24z" />
    <glyph glyph-name="asciitilde" unicode="~" horiz-adv-x="493" 
d="M428 439q8 0 17.5 -1t17.5 -5t13.5 -10t5.5 -17q0 -28 -11 -52.5t-29 -42.5t-42 -28t-50 -10q-29 0 -54 10t-47.5 22t-42 22t-37.5 10q-13 0 -20 -8t-14 -17t-17 -17t-28 -8q-10 0 -22.5 2.5t-23.5 8t-19 14.5t-8 21q0 20 8 44t24.5 44.5t42 34t59.5 13.5q35 0 64 -11
t53.5 -24.5t45 -25t36.5 -11.5t23.5 6.5t14 14.5t15 14.5t25.5 6.5z" />
    <glyph glyph-name="exclamdown" unicode="&#xa1;" horiz-adv-x="372" 
d="M290 448q0 -19 -9.5 -33.5t-24.5 -24t-33 -14.5t-35 -5q-20 0 -39 3.5t-33.5 12.5t-23 24t-8.5 39q0 44 27.5 70t70.5 26q45 0 76.5 -25t31.5 -73zM196 333q8 0 15 -1.5t14 -6.5q17 -13 33 -42.5t30 -69t26.5 -84t21.5 -86.5t14 -77.5t5 -56.5q0 -38 -21.5 -58.5
t-52.5 -30.5t-66 -11.5t-63 -1.5q-24 0 -48 3t-43.5 12t-32 27t-12.5 48q0 24 4 48l8 48q4 22 9 56t13.5 71.5t20.5 75.5t29.5 68.5t41 49.5t54.5 19z" />
    <glyph glyph-name="cent" unicode="&#xa2;" horiz-adv-x="697" 
d="M297 642q0 15 2 32t8.5 31.5t18 24.5t30.5 10q18 0 30.5 -8.5t20 -22t10.5 -29.5t3 -31q47 -5 89.5 -20t78.5 -45q22 -18 41.5 -42.5t19.5 -54.5q0 -16 -8 -31.5t-20.5 -28t-28 -20t-31.5 -7.5q-23 0 -48.5 10t-53 21.5t-56.5 21.5t-59 10q-31 0 -57.5 -12t-45.5 -33
t-30 -48.5t-11 -57.5q0 -31 11 -57.5t30.5 -45.5t46 -29.5t57.5 -10.5q40 0 74.5 15.5t67 33.5t63 33.5t62.5 15.5q30 0 50 -16.5t20 -48.5q0 -37 -26.5 -68.5t-64 -55.5t-79.5 -40.5t-72 -24.5q-5 -2 -9.5 -3.5t-8.5 -5.5q0 -17 -2 -36.5t-8.5 -36t-19 -28t-34.5 -11.5
q-19 0 -31 11.5t-19 28.5t-9.5 36t-2.5 34q-65 6 -117 32.5t-88.5 68.5t-56 98t-19.5 120q0 65 21.5 118.5t59 94t89 68t112.5 40.5z" />
    <glyph glyph-name="sterling" unicode="&#xa3;" horiz-adv-x="575" 
d="M266 450q13 0 25.5 0.5t25.5 0.5t33.5 -1t39.5 -6.5t32.5 -16t13.5 -29.5q0 -15 -9.5 -28.5t-23.5 -23t-30 -15t-30 -5.5q-8 0 -14.5 0.5t-14.5 0.5q-14 0 -28.5 -1t-28.5 -1q-1 -19 -1 -37v-37q0 -11 0.5 -28t4.5 -33.5t13 -28.5t25 -12q15 0 33.5 9t38 20t40 20t40.5 9
q23 0 42.5 -10.5t34 -28t23 -39t8.5 -42.5q0 -22 -11.5 -40t-28.5 -31.5t-38 -22t-41 -10.5q-30 -3 -61 -3q-23 0 -56 2t-66 8t-63 16.5t-47 27.5q-24 24 -37.5 61t-20.5 78.5t-7.5 82.5t0.5 73q-13 2 -25.5 7.5t-23 14t-17 20t-6.5 25.5q0 17 8.5 27.5t21.5 16.5t28 8.5
t28 2.5v3q0 7 3 21.5t7 30.5t8 31t6 23q11 36 27 70t39.5 61t55.5 43t74 16q59 0 99.5 -27t58.5 -84q3 -10 5 -19.5t2 -19.5q0 -25 -14 -47t-42 -22q-22 0 -33 16t-18.5 34.5t-14.5 34.5t-21 16q-19 0 -30.5 -13t-18.5 -31t-10 -37.5t-5 -33.5q-2 -15 -5 -31t-3 -32v-4z" />
    <glyph glyph-name="currency" unicode="&#xa4;" horiz-adv-x="576" 
d="M20 363q0 38 16 73.5t43 62.5q-9 10 -20 21t-21 23.5t-16.5 26t-6.5 27.5q0 17 10 26t27 9t32 -8.5t28.5 -20.5t25.5 -26t23 -25q71 30 150 30q29 0 58.5 -5.5t55.5 -19.5q9 9 21 20.5t26 21.5t28.5 17t27.5 7q17 0 25.5 -10.5t8.5 -27.5q0 -16 -6.5 -29t-16 -23.5
t-21 -20.5t-21.5 -20q18 -24 29.5 -57.5t11.5 -63.5q0 -42 -18 -80t-47 -67l21 -21t22.5 -25.5t18 -28t7.5 -28.5q0 -17 -12 -24.5t-27 -7.5q-18 0 -33 8t-28.5 20t-25.5 26t-23 26q-32 -14 -68 -20t-71 -6q-51 0 -102 14q-19 -19 -42 -36.5t-52 -17.5q-17 0 -28 9.5
t-11 26.5q0 12 5.5 23t13.5 21.5t17 19.5l17 17q-26 28 -39 67t-13 76zM294 248q48 0 73 31t25 76q0 42 -25.5 64t-65.5 22q-38 0 -64.5 -25.5t-26.5 -63.5q0 -20 4.5 -39t14.5 -33.5t26 -23t39 -8.5z" />
    <glyph glyph-name="yen" unicode="&#xa5;" horiz-adv-x="678" 
d="M94 285q0 19 16 29t38 14t44.5 5t35.5 2q-13 35 -36 69t-50.5 66.5t-56 63t-52.5 58.5q-9 11 -16 23.5t-7 26.5q0 23 12.5 40t31.5 27.5t41.5 15.5t41.5 5q42 0 68.5 -14t43.5 -37.5t27.5 -54.5t20.5 -64q6 -20 11.5 -40.5t10.5 -40.5q1 -4 4 -18t6.5 -29.5t7.5 -27.5
t8 -12q5 0 7 8t3 11q7 29 19.5 72.5t29.5 87t36.5 79.5t40.5 50q32 21 71 21q17 0 36.5 -4.5t37 -14.5t29 -24.5t11.5 -34.5q0 -16 -12 -33q-35 -51 -74.5 -99t-75.5 -99q-25 -36 -41 -75q13 -1 35 -1.5t43.5 -5t37 -14.5t15.5 -30q0 -21 -18 -32.5t-42.5 -17t-49.5 -6.5
t-40 -1v-17q14 0 39 -1t49.5 -6.5t42.5 -17t18 -32.5q0 -22 -16.5 -34.5t-40 -18.5t-48 -7t-39.5 -1q0 -49 -31 -80.5t-80 -31.5q-31 0 -59.5 15t-41.5 44q-7 15 -6.5 27t0.5 28q-11 0 -21 -0.5t-21 -0.5q-13 0 -29 3.5t-30 10.5t-23.5 19t-9.5 28q0 21 17 32t40 15.5t47 5
t38 1.5l2 20q-11 0 -23 -0.5t-23 -0.5q-12 0 -29.5 2.5t-33.5 9t-27 17.5t-11 27z" />
    <glyph glyph-name="brokenbar" unicode="&#xa6;" horiz-adv-x="218" 
d="M116 731q22 0 35 -9t20 -23t9 -31.5t2 -34.5q0 -29 -1.5 -58t-1.5 -58q0 -46 0.5 -88t0.5 -68q0 -19 -7.5 -33.5t-18.5 -24t-25 -14.5t-28 -5q-12 0 -25.5 4t-25.5 12.5t-19.5 22.5t-7.5 35q0 23 0.5 63.5t0.5 85.5q0 25 0.5 63t9 74t27.5 61.5t55 25.5zM22 155
q0 28 6.5 45.5t16.5 28t22 14.5t23 4t26.5 -4.5t30 -13.5t24.5 -23t10 -34q0 -46 1 -93.5t1 -104.5q0 -21 -6 -47t-18 -48.5t-30.5 -38t-44.5 -15.5q-22 0 -34.5 13t-18.5 31.5t-7.5 39.5t-1.5 37v209z" />
    <glyph glyph-name="section" unicode="&#xa7;" horiz-adv-x="628" 
d="M312 257q11 0 23 3.5t12 14.5t-18 20t-46 9q-24 0 -33 -9.5t-9 -19.5q0 -7 7.5 -11t19 -5.5t23.5 -1.5h21zM307 31q11 0 23 3.5t12 14.5q0 13 -23.5 18.5t-59 11t-77 13.5t-77.5 25t-61 46.5t-26 77.5v11q2 49 20 83t49 56q-27 22 -44 51.5t-17 71.5q0 44 20 79.5
t53.5 60t78.5 38t95 13.5q62 0 128 -11t121 -36q34 -15 50 -39t16 -56q0 -21 -8 -41.5t-22.5 -37.5t-36 -27.5t-48.5 -10.5q-29 0 -58.5 9t-57 20t-52 20t-43.5 9q-8 0 -13.5 -4t-5.5 -12q0 -15 26 -24t65.5 -16.5t85 -17t85 -26.5t65.5 -44t26 -70q0 -45 -20.5 -74
t-56.5 -47q32 -17 52 -42t20 -63q0 -49 -25 -80t-68.5 -48t-103 -23t-128.5 -6q-37 0 -81 3t-82 14.5t-64 34t-26 61.5q0 25 16.5 45.5t50.5 20.5q22 0 49.5 -8.5t57 -19t60.5 -19t60 -8.5z" />
    <glyph glyph-name="dieresis" unicode="&#xa8;" horiz-adv-x="321" 
d="M150 680q0 -13 -6.5 -22.5t-16.5 -16t-22.5 -10t-23.5 -3.5q-26 0 -48 11t-22 42q0 29 17.5 47t46.5 18q30 0 52.5 -17t22.5 -49zM309 680q0 -13 -6.5 -22.5t-16.5 -16t-22 -10t-23 -3.5q-13 0 -26 2.5t-23 8.5t-16 16.5t-6 25.5q0 29 18 47t47 18q30 0 52 -17t22 -49z
" />
    <glyph glyph-name="copyright" unicode="&#xa9;" horiz-adv-x="763" 
d="M15 359q0 82 31.5 149t85 114.5t124.5 73.5t150 26q133 0 216 -73t114 -199q12 -46 12 -92t-12 -91.5t-34.5 -86t-54 -75t-70.5 -60.5q-48 -32 -99.5 -45.5t-108.5 -13.5q-82 0 -148 28t-111.5 78t-70 118.5t-24.5 148.5zM382 69q67 0 119.5 25t88.5 67.5t55 99.5t19 120
q0 54 -22.5 97.5t-59 74t-84.5 47t-99 16.5q-55 0 -102 -19.5t-82 -53.5t-55 -81t-20 -102q0 -59 13 -112t42 -92.5t75 -63t112 -23.5zM418 579q26 0 55.5 -7.5t54.5 -23t42 -38t17 -52.5q0 -11 -4 -22.5t-11.5 -21t-17.5 -15.5t-22 -6q-10 0 -19.5 4.5t-19.5 10.5t-21 10.5
t-25 4.5q-20 0 -36.5 -8t-28 -21.5t-18 -30.5t-6.5 -36q0 -28 14.5 -51.5t46.5 -23.5q24 0 41.5 10.5t32.5 23t30 23t34 10.5q24 0 37.5 -16t13.5 -39q0 -31 -23.5 -55.5t-57 -41t-69.5 -25t-62 -8.5q-46 0 -84.5 16.5t-66 45.5t-42.5 68.5t-15 84.5t19 86.5t51 73.5
t73.5 51t86.5 19z" />
    <glyph glyph-name="ordfeminine" unicode="&#xaa;" horiz-adv-x="493" 
d="M251 771q51 0 86 -20t58.5 -51.5t37 -70.5t20.5 -78t8.5 -74t1.5 -58q0 -16 -8 -30t-21 -23.5t-29.5 -15t-33.5 -5.5q-41 0 -54 11t-13 34q0 22 -7 37t-36 15q-14 0 -23.5 -6t-16 -16t-11.5 -22.5t-10 -25.5q-10 -25 -27.5 -33.5t-56.5 -8.5q-18 0 -33.5 7.5t-27.5 19.5
t-18.5 27t-6.5 30q0 27 2.5 64t10 77t22.5 78.5t39.5 69t60.5 49.5t86 19zM229 554q0 -9 1.5 -18.5t4.5 -17.5t8 -13t13 -5q34 0 34 41q0 11 -2 23t-6 21.5t-11 16t-17 6.5q-9 0 -14 -5t-7.5 -13t-3 -17.5t-0.5 -18.5z" />
    <glyph glyph-name="guillemotleft" unicode="&#xab;" horiz-adv-x="635" 
d="M338 207q0 -13 -2 -27t-7.5 -25t-15 -18t-25.5 -7q-28 0 -62.5 5.5t-68 17t-62 28.5t-43.5 40q-32 47 -32 104q0 28 16.5 59t46 60t69 52.5t84.5 35.5q17 5 30 5q39 0 50.5 -17.5t11.5 -52.5q0 -19 -14 -34t-35 -27t-45.5 -22.5t-45.5 -21.5t-35 -24t-14 -30q0 -5 5.5 -7
t8.5 -3q29 -9 61.5 -17.5t60 -18.5t45.5 -23t18 -32zM612 221q0 -13 -2 -27t-7.5 -25t-15 -18t-25.5 -7q-28 0 -62.5 5.5t-68 17t-62 28.5t-43.5 40q-32 47 -32 104q0 28 16.5 59t46 60t69 52.5t84.5 35.5q17 5 30 5q39 0 50.5 -17.5t11.5 -52.5q0 -19 -14 -34t-35 -27
t-45.5 -22.5t-45.5 -21.5t-35 -24t-14 -30q0 -5 5.5 -7t8.5 -3q29 -9 61.5 -17.5t60 -18.5t45.5 -23t18 -32z" />
    <glyph glyph-name="logicalnot" unicode="&#xac;" horiz-adv-x="572" 
d="M556 342q0 -19 -3 -43t-12 -44t-24.5 -34t-40.5 -14q-33 0 -49.5 11t-22.5 29t-6 41.5v47.5q0 13 -11 13q-57 0 -112.5 -2.5t-112.5 -2.5q-19 0 -44.5 1.5t-48.5 8t-38.5 21.5t-15.5 42q0 28 15.5 45.5t38.5 27t48.5 12.5t46.5 3q59 0 117 -1.5t117 -1.5q76 0 117 -42.5
t41 -117.5z" />
    <glyph glyph-name="registered" unicode="&#xae;" horiz-adv-x="764" 
d="M15 322q0 80 27.5 149t76.5 120t117 80t149 29q84 0 151.5 -25t114.5 -71.5t72.5 -113.5t25.5 -151q0 -73 -29 -140t-78.5 -118.5t-115 -82t-139.5 -30.5q-81 0 -149 24t-117.5 69.5t-77.5 111.5t-28 149zM385 51q83 0 146 41t99 115q17 35 28 73.5t11 77.5
q0 52 -24.5 95t-63.5 74.5t-87.5 49t-96.5 17.5q-64 0 -112.5 -23t-81.5 -63t-49.5 -93t-16.5 -113q0 -117 65 -184t183 -67zM351 203q0 -26 -18 -37.5t-41 -11.5q-30 0 -47.5 10.5t-26.5 28t-12.5 40t-5.5 46.5q-3 32 -3 62q0 24 2.5 53t10.5 51q10 26 32.5 42t50.5 26
t57.5 13.5t53.5 3.5q29 0 62.5 -5.5t63 -20t49 -38t19.5 -59.5q0 -31 -10 -51.5t-25.5 -32.5t-33.5 -18t-33.5 -8.5t-26.5 -3.5t-13 -4q17 -6 41 -7t47 -5.5t39 -16t16 -38.5q0 -16 -7 -30.5t-19 -25.5t-27 -17.5t-30 -6.5q-31 0 -59.5 13.5t-48.5 36.5q-3 3 -11 14.5
t-16.5 24t-15.5 22t-9 9.5q-5 0 -6 -4.5t-1 -7.5q0 -12 1 -23.5t1 -23.5zM374 377q0 -8 5.5 -13.5t14 -8.5t17 -4.5t14.5 -1.5t14 1t15.5 3.5t12.5 7.5t5 13q0 20 -16.5 25.5t-32.5 5.5q-7 0 -15.5 -1t-16 -4t-12.5 -8.5t-5 -14.5z" />
    <glyph glyph-name="macron" unicode="&#xaf;" horiz-adv-x="517" 
d="M354 742q21 0 47 -4t49.5 -14.5t39.5 -27.5t16 -44q0 -13 -7 -27q-9 -17 -22.5 -25t-29 -10.5t-32.5 -2t-33 0.5q-43 0 -85.5 -3t-85.5 -3q-21 0 -55 1.5t-66.5 9.5t-55.5 25t-23 48q0 20 11.5 35t28.5 25t37 14.5t37 4.5q20 0 41 -2t41 -2q37 -1 73.5 0t73.5 1z" />
    <glyph glyph-name="degree" unicode="&#xb0;" horiz-adv-x="322" 
d="M311 565q0 -28 -13 -52.5t-33.5 -42.5t-45.5 -28t-50 -10q-33 0 -61.5 6.5t-50 22t-33.5 42.5t-12 68q0 34 9 65.5t27.5 55.5t47 38.5t67.5 14.5q148 0 148 -180zM165 618q-23 0 -33 -17.5t-10 -40.5q0 -26 13 -37.5t36 -11.5q17 0 29.5 13.5t12.5 32.5q0 24 -11 42.5
t-37 18.5z" />
    <glyph glyph-name="plusminus" unicode="&#xb1;" horiz-adv-x="527" 
d="M181 539q1 20 6 46.5t16 50.5t28.5 40.5t43.5 16.5q27 0 42 -17t22 -41.5t8.5 -51t1.5 -46.5q18 -2 45 -3.5t52 -7.5t43 -20t18 -40q0 -17 -10.5 -30.5t-24.5 -22.5q-29 -20 -62.5 -22t-67.5 -2q-2 -17 -3.5 -36.5t-4.5 -38.5t-9.5 -36.5t-18.5 -31.5q-10 -11 -23 -19
t-28 -8q-16 0 -31 9q-21 12 -33 31t-17 41t-5 45.5t2 45.5q-18 0 -45 3.5t-52.5 12.5t-44 24t-18.5 39q0 26 20 39.5t47.5 19.5t56.5 7t46 3zM145 22q-16 0 -38.5 3.5t-43.5 11.5t-36 22t-15 35q0 22 23 37.5t58.5 25.5t79 15.5t85.5 8t77 3t53 0.5q15 0 35.5 -2t38.5 -8.5
t31 -18.5t13 -32q0 -24 -15.5 -40.5t-40 -27t-55 -15.5t-60.5 -7.5t-56.5 -3t-42.5 -1.5q-23 -1 -45.5 -3.5t-45.5 -2.5z" />
    <glyph glyph-name="twosuperior" unicode="&#xb2;" horiz-adv-x="460" 
d="M377 526q30 0 50.5 -21t20.5 -50q0 -32 -19 -48.5t-46 -24t-56.5 -8t-51.5 -0.5h-79t-86 10t-69.5 34.5t-28.5 72.5q0 33 16.5 55t41 37t53 24.5t53 16.5t41 13.5t16.5 15.5q0 19 -16 19q-14 0 -27.5 -6.5t-27 -15t-28.5 -15t-32 -6.5q-19 0 -35.5 8.5t-28.5 22.5
t-18.5 32t-6.5 37q0 35 24 59t58.5 39t71.5 21.5t64 6.5q37 0 70.5 -9.5t59 -29t41 -49t15.5 -70.5q0 -64 -37 -100t-95 -53q-14 -4 -27.5 -7t-27.5 -7q-4 -1 -14 -4.5t-10 -7.5t6.5 -4.5t8.5 -0.5q39 0 78 6.5t78 6.5z" />
    <glyph glyph-name="threesuperior" unicode="&#xb3;" horiz-adv-x="467" 
d="M251 672q0 5 -3 9t-8 4q-10 0 -24 -8.5t-30.5 -19t-34.5 -19.5t-38 -9q-38 0 -62 28.5t-24 65.5q0 41 22.5 67.5t56 41.5t72 21t70.5 6q30 0 63 -4t61.5 -16t47 -35.5t18.5 -62.5q0 -22 -8 -42t-22.5 -36.5t-33 -28t-39.5 -16.5q50 0 80.5 -31t30.5 -82
q0 -37 -15.5 -64.5t-41 -45.5t-58 -26.5t-65.5 -8.5q-27 0 -69.5 5.5t-82 19.5t-68 38.5t-28.5 61.5q0 23 9 43.5t37 20.5q21 0 44.5 -11t43.5 -18q35 -12 73 -12q11 0 24.5 3.5t13.5 19.5q0 21 -19.5 25.5t-43 6t-43 5.5t-19.5 25q0 13 4.5 20.5t16.5 12.5q7 3 22 7
t30.5 9.5t27.5 13t12 16.5z" />
    <glyph glyph-name="acute" unicode="&#xb4;" horiz-adv-x="272" 
d="M70 493q-18 0 -31 12.5t-13 30.5q0 6 6 21.5t15 35.5t20 42.5t21.5 42.5t19.5 34.5t13 19.5q11 11 20 14.5t24 3.5q36 0 56.5 -25t20.5 -60q0 -25 -15.5 -49.5t-38 -46.5t-48 -40t-45.5 -29q-7 -4 -12 -5.5t-13 -1.5z" />
    <glyph glyph-name="paragraph" unicode="&#xb6;" horiz-adv-x="780" 
d="M520 364q0 -31 -0.5 -70.5t-3 -80.5t-7.5 -80.5t-14 -70.5t-22.5 -50t-33.5 -19q-21 0 -40.5 7t-33.5 25q-9 11 -13 22t-6.5 21.5t-4 21.5t-5.5 23q-2 5 -9.5 6t-12.5 2q-32 4 -62.5 9.5t-60.5 17.5q-41 17 -70.5 46.5t-48 67.5t-27 83t-8.5 92q0 71 24.5 125t67.5 91.5
t101 56.5t125 19q34 -1 77.5 -0.5t88.5 -2t88.5 -10t77.5 -23t54.5 -41.5t20.5 -67q0 -62 -5 -117t-10 -117q-5 -60 -9 -122t-13 -122q-2 -15 -5.5 -34t-11 -36.5t-20 -29.5t-31.5 -12q-20 0 -35.5 4.5t-31.5 25.5q-16 22 -26.5 58t-17 81t-9.5 94.5t-4 97.5t-1 91v74
q0 11 -2 17.5t-7 6.5q-9 0 -9 -19q0 -36 3 -76.5t3 -85.5z" />
    <glyph glyph-name="periodcentered" unicode="&#xb7;" horiz-adv-x="215" 
d="M15 452q0 18 8.5 31.5t22 23.5t29.5 15t32 5q39 0 66 -17t27 -61q0 -40 -22.5 -67t-64.5 -27q-45 0 -71.5 26t-26.5 71z" />
    <glyph glyph-name="cedilla" unicode="&#xb8;" horiz-adv-x="275" 
d="M16 -111q0 2 1 5.5t3 3.5q3 0 8.5 -6t14.5 -12.5t21 -12.5t27 -6q11 0 21 4t10 18q0 11 -7 20t-17 15t-21.5 9t-21.5 2l45 90l121 2l-47 -74q35 0 59 -23.5t24 -58.5q0 -23 -9.5 -41t-25 -30t-35.5 -18.5t-41 -6.5q-26 0 -49.5 8.5t-41.5 24t-28.5 38t-10.5 49.5z" />
    <glyph glyph-name="onesuperior" unicode="&#xb9;" horiz-adv-x="350" 
d="M292 622v-55.5t-4.5 -69.5t-15 -64t-32.5 -41q-12 -7 -24.5 -9t-26.5 -2q-50 0 -81.5 23.5t-31.5 74.5q0 7 0.5 12.5t1.5 12.5q3 21 5 43t2 44q0 23 -2.5 46t-10.5 45q-7 2 -16 3.5t-16.5 4.5t-13 8.5t-5.5 14.5q0 7 5 15q32 49 79.5 76t107.5 27q29 0 45 -17t23.5 -41
t9 -50.5t1.5 -46.5v-54z" />
    <glyph glyph-name="ordmasculine" unicode="&#xba;" horiz-adv-x="516" 
d="M254 774q53 0 96.5 -15t74.5 -43.5t48 -69t17 -91.5q0 -45 -18.5 -86t-50 -72t-74 -49t-90.5 -18q-49 0 -92.5 15t-76 43t-51 67t-18.5 87q0 49 17 91t47.5 73.5t74 49.5t96.5 18zM198 519q0 -26 14.5 -41.5t37.5 -15.5q12 0 23.5 6t20.5 15t14 20.5t5 22.5q0 10 -5 19
t-13.5 15.5t-18.5 10.5t-20 4q-25 0 -41.5 -15t-16.5 -41z" />
    <glyph glyph-name="guillemotright" unicode="&#xbb;" horiz-adv-x="617" 
d="M10 460q0 14 2 27.5t7.5 24.5t15 18t25.5 7q26 0 58 -5t63.5 -14.5t59.5 -24.5t46 -35q-3 6 -3 13q0 14 2 27.5t7.5 24.5t15 18t25.5 7q28 0 62.5 -5.5t68 -17t62 -28.5t43.5 -40q32 -47 32 -104q0 -28 -16.5 -59t-46 -60t-69 -52.5t-84.5 -35.5q-17 -5 -30 -5
q-39 0 -50.5 17.5t-11.5 52.5q0 20 14 34.5t35 26.5t45.5 22.5t45.5 22t35 24t14 29.5q0 5 -5.5 7t-8.5 3q-22 7 -47 13.5t-48.5 13.5t-43 15.5t-31.5 19.5q29 -46 29 -100q0 -28 -16.5 -59t-46 -60t-69 -52.5t-84.5 -35.5q-17 -5 -30 -5q-39 0 -50.5 17.5t-11.5 52.5
q0 20 14 34.5t35 26.5t45.5 22.5t45.5 22t35 24t14 29.5q0 5 -5.5 7t-8.5 3q-29 9 -61.5 17.5t-60 18.5t-45.5 23t-18 32z" />
    <glyph glyph-name="onequarter" unicode="&#xbc;" horiz-adv-x="960" 
d="M934 220q0 -21 -0.5 -56.5t-5 -72t-15 -67.5t-31.5 -43q-13 -8 -25 -9.5t-26 -1.5q-49 0 -75 19t-26 69q0 8 -11.5 9t-16.5 1q-18 0 -36.5 -1t-37.5 -1q-22 0 -44.5 3t-40 12t-28.5 25t-11 43q0 23 5 46t9 46q4 25 9 58t17 62t33.5 49.5t57.5 20.5q45 0 63.5 -26
t18.5 -65q0 -27 -5.5 -53t-13.5 -51q-4 -14 -8 -26.5t-4 -26.5q0 -23 23 -23q14 0 19 17t6 43t0.5 58t3.5 61t14.5 52.5t33.5 33.5q10 5 20.5 6t21.5 1q12 0 24.5 -1.5t23.5 -8.5q21 -13 32.5 -38t17.5 -54.5t7 -59t1 -50.5zM290 522v-55.5t-4.5 -69.5t-15 -64t-32.5 -41
q-12 -7 -24.5 -9t-26.5 -2q-50 0 -81.5 23.5t-31.5 74.5q0 7 0.5 12.5t1.5 12.5q3 21 5 43t2 44q0 23 -2.5 46t-10.5 45q-7 2 -16 3.5t-16.5 4.5t-13 8.5t-5.5 14.5q0 7 5 15q32 49 79.5 76t107.5 27q29 0 45 -17t23.5 -41t9 -50.5t1.5 -46.5v-54zM624 702q28 0 46 -20.5
t18 -47.5q0 -26 -16 -48q-31 -46 -62.5 -91t-62.5 -92q-56 -84 -110.5 -168t-112.5 -167q-19 -26 -45.5 -46t-60.5 -20q-27 0 -46 15.5t-19 44.5q0 15 5 28.5t13 26.5q23 40 50 78t53 76q62 90 122.5 178.5t122.5 178.5q9 13 20 26.5t24 24t28.5 17t32.5 6.5z" />
    <glyph glyph-name="onehalf" unicode="&#xbd;" horiz-adv-x="998" 
d="M889 110q30 0 50.5 -21t20.5 -50q0 -32 -19 -48.5t-46 -24t-56.5 -8t-51.5 -0.5h-79t-86 10t-69.5 34.5t-28.5 72.5q0 33 16.5 55t41 37t53 24.5t53 16.5t41 13.5t16.5 15.5q0 19 -16 19q-14 0 -27.5 -6.5t-27 -15t-28.5 -15t-32 -6.5q-19 0 -35.5 8.5t-28.5 22.5
t-18.5 32t-6.5 37q0 35 24 59t58.5 39t71.5 21.5t64 6.5q37 0 70.5 -9.5t59 -29t41 -49t15.5 -70.5q0 -64 -37 -100t-95 -53q-14 -4 -27.5 -7t-27.5 -7q-4 -1 -14 -4.5t-10 -7.5t6.5 -4.5t8.5 -0.5q39 0 78 6.5t78 6.5zM290 522v-55.5t-4.5 -69.5t-15 -64t-32.5 -41
q-12 -7 -24.5 -9t-26.5 -2q-50 0 -81.5 23.5t-31.5 74.5q0 7 0.5 12.5t1.5 12.5q3 21 5 43t2 44q0 23 -2.5 46t-10.5 45q-7 2 -16 3.5t-16.5 4.5t-13 8.5t-5.5 14.5q0 7 5 15q32 49 79.5 76t107.5 27q29 0 45 -17t23.5 -41t9 -50.5t1.5 -46.5v-54zM624 702q28 0 46 -20.5
t18 -47.5q0 -26 -16 -48q-31 -46 -62.5 -91t-62.5 -92q-56 -84 -110.5 -168t-112.5 -167q-19 -26 -45.5 -46t-60.5 -20q-27 0 -46 15.5t-19 44.5q0 15 5 28.5t13 26.5q23 40 50 78t53 76q62 90 122.5 178.5t122.5 178.5q9 13 20 26.5t24 24t28.5 17t32.5 6.5z" />
    <glyph glyph-name="threequarters" unicode="&#xbe;" horiz-adv-x="1124" 
d="M264 583q0 5 -3 9t-8 4q-10 0 -24 -8.5t-30.5 -19t-34.5 -19.5t-38 -9q-38 0 -62 28.5t-24 65.5q0 41 22.5 67.5t56 41.5t72 21t70.5 6q30 0 63 -4t61.5 -16t47 -35.5t18.5 -62.5q0 -22 -8 -42t-22.5 -36.5t-33 -28t-39.5 -16.5q50 0 80.5 -31t30.5 -82
q0 -37 -15.5 -64.5t-41 -45.5t-58 -26.5t-65.5 -8.5q-27 0 -69.5 5.5t-82 19.5t-68 38.5t-28.5 61.5q0 23 9 43.5t37 20.5q21 0 44.5 -11t43.5 -18q35 -12 73 -12q11 0 24.5 3.5t13.5 19.5q0 21 -19.5 25.5t-43 6t-43 5.5t-19.5 25q0 13 4.5 20.5t16.5 12.5q7 3 22 7
t30.5 9.5t27.5 13t12 16.5zM750 702q28 0 46 -20.5t18 -47.5q0 -26 -16 -48q-31 -46 -62.5 -91t-62.5 -92q-56 -84 -110.5 -168t-112.5 -167q-19 -26 -45.5 -46t-60.5 -20q-27 0 -46 15.5t-19 44.5q0 15 5 28.5t13 26.5q23 40 50 78t53 76q62 90 122.5 178.5t122.5 178.5
q9 13 20 26.5t24 24t28.5 17t32.5 6.5zM1060 220q0 -21 -0.5 -56.5t-5 -72t-15 -67.5t-31.5 -43q-13 -8 -25 -9.5t-26 -1.5q-49 0 -75 19t-26 69q0 8 -11.5 9t-16.5 1q-18 0 -36.5 -1t-37.5 -1q-22 0 -44.5 3t-40 12t-28.5 25t-11 43q0 23 5 46t9 46q4 25 9 58t17 62
t33.5 49.5t57.5 20.5q45 0 63.5 -26t18.5 -65q0 -27 -5.5 -53t-13.5 -51q-4 -14 -8 -26.5t-4 -26.5q0 -23 23 -23q14 0 19 17t6 43t0.5 58t3.5 61t14.5 52.5t33.5 33.5q10 5 20.5 6t21.5 1q12 0 24.5 -1.5t23.5 -8.5q21 -13 32.5 -38t17.5 -54.5t7 -59t1 -50.5z" />
    <glyph glyph-name="questiondown" unicode="&#xbf;" horiz-adv-x="633" 
d="M454 469q0 -19 -9.5 -33.5t-24.5 -24t-33 -14.5t-35 -5q-20 0 -39 3.5t-33.5 12.5t-23 24t-8.5 39q0 44 27.5 70t70.5 26q45 0 76.5 -25t31.5 -73zM372 368q51 0 78.5 -24.5t27.5 -77.5q0 -32 -14.5 -53.5t-36 -36.5t-47 -25t-47 -18.5t-36 -17.5t-14.5 -21t5 -20t19 -8
q21 0 42 10.5t43 23t45.5 23t50.5 10.5t51 -11.5t41.5 -31t27.5 -44t10 -51.5q0 -37 -22 -72q-18 -28 -57 -49.5t-84.5 -36.5t-91 -22.5t-77.5 -7.5q-49 0 -97.5 11t-87 35.5t-62 64t-23.5 96.5q0 44 10.5 77t30.5 58t49.5 44t68.5 34q19 7 41.5 13t39.5 14q6 3 7.5 12.5
t3 22.5t5.5 26.5t15 25.5t31 19.5t54 7.5z" />
    <glyph glyph-name="Agrave" unicode="&#xc0;" 
d="M346 700q75 0 128 -31.5t88 -82.5t55 -114.5t30 -126.5t12.5 -120.5t2.5 -95.5q0 -27 -11.5 -50t-31 -39t-44 -25t-50.5 -9q-30 0 -50 4.5t-31 13.5t-15.5 23.5t-4.5 34.5q0 35 -10.5 51.5t-52.5 16.5q-21 0 -35.5 -10t-24 -26.5t-17 -37.5t-15.5 -43q-7 -21 -17 -34.5
t-24 -21.5t-34.5 -11t-50.5 -3q-27 0 -50 12.5t-40.5 32t-27.5 45t-10 50.5q0 46 3.5 107.5t15.5 128t34 131.5t58.5 116t90.5 82.5t129 31.5zM312 337q0 -14 2 -30t6.5 -29.5t12.5 -22.5t20 -9q23 0 37 17t14 52q0 18 -2.5 38t-9 36.5t-17 27.5t-25.5 11q-13 0 -20.5 -9
t-11.5 -22.5t-5 -29.5t-1 -30zM212 884q0 18 8.5 30.5t22 20t29.5 11t31 3.5q17 0 26 -2.5t22 -14.5q3 -3 13 -17.5t23.5 -34t28 -42.5t26.5 -42.5t20 -33t8 -15.5q0 -8 -6 -14t-14 -9.5t-17.5 -5.5t-15.5 -2q-23 0 -58 17t-67.5 42.5t-56 55t-23.5 53.5z" />
    <glyph glyph-name="Aacute" unicode="&#xc1;" 
d="M346 700q75 0 128 -31.5t88 -82.5t55 -114.5t30 -126.5t12.5 -120.5t2.5 -95.5q0 -27 -11.5 -50t-31 -39t-44 -25t-50.5 -9q-30 0 -50 4.5t-31 13.5t-15.5 23.5t-4.5 34.5q0 35 -10.5 51.5t-52.5 16.5q-21 0 -35.5 -10t-24 -26.5t-17 -37.5t-15.5 -43q-7 -21 -17 -34.5
t-24 -21.5t-34.5 -11t-50.5 -3q-27 0 -50 12.5t-40.5 32t-27.5 45t-10 50.5q0 42 3 98.5t12.5 117.5t27.5 122t47.5 112.5t73 88.5t104.5 51q-20 0 -35 10.5t-15 32.5q0 6 6 21.5t15 35.5t20 42.5t21.5 42.5t19 34.5t13.5 19.5q11 11 20 14.5t24 3.5q36 0 56.5 -25t20.5 -60
q0 -25 -15.5 -49.5t-38 -46.5t-48 -40t-45.5 -29q-3 -2 -5.5 -3t-5.5 -2q13 2 26.5 3.5t28.5 1.5zM312 337q0 -14 2 -30t6.5 -29.5t12.5 -22.5t20 -9q23 0 37 17t14 52q0 18 -2.5 38t-9 36.5t-17 27.5t-25.5 11q-13 0 -20.5 -9t-11.5 -22.5t-5 -29.5t-1 -30z" />
    <glyph glyph-name="Acircumflex" unicode="&#xc2;" 
d="M346 700q75 0 128 -31.5t88 -82.5t55 -114.5t30 -126.5t12.5 -120.5t2.5 -95.5q0 -27 -11.5 -50t-31 -39t-44 -25t-50.5 -9q-30 0 -50 4.5t-31 13.5t-15.5 23.5t-4.5 34.5q0 35 -10.5 51.5t-52.5 16.5q-21 0 -35.5 -10t-24 -26.5t-17 -37.5t-15.5 -43q-7 -21 -17 -34.5
t-24 -21.5t-34.5 -11t-50.5 -3q-27 0 -50 12.5t-40.5 32t-27.5 45t-10 50.5q0 46 3.5 107.5t15.5 128t34 131.5t58.5 116t90.5 82.5t129 31.5zM312 337q0 -14 2 -30t6.5 -29.5t12.5 -22.5t20 -9q23 0 37 17t14 52q0 18 -2.5 38t-9 36.5t-17 27.5t-25.5 11q-13 0 -20.5 -9
t-11.5 -22.5t-5 -29.5t-1 -30zM347 837q-10 -4 -19 -18.5t-22 -30.5t-32 -29t-51 -13q-10 0 -21.5 2t-22 7.5t-17.5 13.5t-7 20q0 7 3 13t7 11q16 23 35 47t41 43.5t48.5 32t57.5 12.5q23 0 54 -13.5t59 -34.5t47 -47t19 -51q0 -23 -16.5 -36t-38.5 -13q-18 0 -35.5 8
t-34 20.5t-30.5 27.5t-24 28z" />
    <glyph glyph-name="Atilde" unicode="&#xc3;" 
d="M346 700q75 0 128 -31.5t88 -82.5t55 -114.5t30 -126.5t12.5 -120.5t2.5 -95.5q0 -27 -11.5 -50t-31 -39t-44 -25t-50.5 -9q-30 0 -50 4.5t-31 13.5t-15.5 23.5t-4.5 34.5q0 35 -10.5 51.5t-52.5 16.5q-21 0 -35.5 -10t-24 -26.5t-17 -37.5t-15.5 -43q-7 -21 -17 -34.5
t-24 -21.5t-34.5 -11t-50.5 -3q-27 0 -50 12.5t-40.5 32t-27.5 45t-10 50.5q0 46 3.5 107.5t15.5 128t34 131.5t58.5 116t90.5 82.5t129 31.5zM312 337q0 -14 2 -30t6.5 -29.5t12.5 -22.5t20 -9q23 0 37 17t14 52q0 18 -2.5 38t-9 36.5t-17 27.5t-25.5 11q-13 0 -20.5 -9
t-11.5 -22.5t-5 -29.5t-1 -30zM508 937q17 0 29 -9t12 -28q0 -21 -15.5 -44.5t-38 -43t-48 -32.5t-45.5 -13q-18 0 -32.5 7t-28 15.5t-25.5 15.5t-24 7q-11 0 -22.5 -9t-25 -20.5t-29.5 -20.5t-37 -9q-19 0 -32 10.5t-13 30.5t15 45t36.5 48t46.5 38.5t44 15.5q18 0 33 -9
t27.5 -20.5t23.5 -20.5t23 -9q6 0 19.5 8.5t30.5 19t37 19t39 8.5z" />
    <glyph glyph-name="Adieresis" unicode="&#xc4;" 
d="M346 700q75 0 128 -31.5t88 -82.5t55 -114.5t30 -126.5t12.5 -120.5t2.5 -95.5q0 -27 -11.5 -50t-31 -39t-44 -25t-50.5 -9q-30 0 -50 4.5t-31 13.5t-15.5 23.5t-4.5 34.5q0 35 -10.5 51.5t-52.5 16.5q-21 0 -35.5 -10t-24 -26.5t-17 -37.5t-15.5 -43q-7 -21 -17 -34.5
t-24 -21.5t-34.5 -11t-50.5 -3q-27 0 -50 12.5t-40.5 32t-27.5 45t-10 50.5q0 46 3.5 107.5t15.5 128t34 131.5t58.5 116t90.5 82.5t129 31.5zM312 337q0 -14 2 -30t6.5 -29.5t12.5 -22.5t20 -9q23 0 37 17t14 52q0 18 -2.5 38t-9 36.5t-17 27.5t-25.5 11q-13 0 -20.5 -9
t-11.5 -22.5t-5 -29.5t-1 -30zM331 880q0 -13 -6.5 -22.5t-16.5 -16t-22.5 -10t-23.5 -3.5q-26 0 -48 11t-22 42q0 29 17.5 47t46.5 18q30 0 52.5 -17t22.5 -49zM490 880q0 -13 -6.5 -22.5t-16.5 -16t-22 -10t-23 -3.5q-13 0 -26 2.5t-23 8.5t-16 16.5t-6 25.5q0 29 18 47
t47 18q30 0 52 -17t22 -49z" />
    <glyph glyph-name="Aring" unicode="&#xc5;" 
d="M346 700q75 0 128 -31.5t88 -82.5t55 -114.5t30 -126.5t12.5 -120.5t2.5 -95.5q0 -27 -11.5 -50t-31 -39t-44 -25t-50.5 -9q-30 0 -50 4.5t-31 13.5t-15.5 23.5t-4.5 34.5q0 35 -10.5 51.5t-52.5 16.5q-21 0 -35.5 -10t-24 -26.5t-17 -37.5t-15.5 -43q-7 -21 -17 -34.5
t-24 -21.5t-34.5 -11t-50.5 -3q-27 0 -50 12.5t-40.5 32t-27.5 45t-10 50.5q0 46 3.5 107.5t15.5 128t34 131.5t58.5 116t90.5 82.5t129 31.5zM312 337q0 -14 2 -30t6.5 -29.5t12.5 -22.5t20 -9q23 0 37 17t14 52q0 18 -2.5 38t-9 36.5t-17 27.5t-25.5 11q-13 0 -20.5 -9
t-11.5 -22.5t-5 -29.5t-1 -30zM458 816q0 -21 -10 -38.5t-26 -30t-36 -20t-39 -7.5q-26 0 -48.5 4.5t-39 16t-26 31t-9.5 48.5q0 24 7 47t20.5 40t33.5 27.5t47 10.5q58 0 92 -36t34 -93zM364 861q-18 0 -26 -12.5t-8 -29.5q0 -35 38 -35q14 0 23.5 9.5t9.5 23.5
q0 17 -8.5 30.5t-28.5 13.5z" />
    <glyph glyph-name="AE" unicode="&#xc6;" horiz-adv-x="1086" 
d="M346 700q57 0 101 -19t77 -51q42 30 96 45t118 15h90q26 0 64.5 -4.5t74 -17.5t61 -35t25.5 -57q0 -27 -6.5 -52.5t-20.5 -45t-35.5 -31.5t-52.5 -12q-32 0 -63.5 4t-63.5 4q-9 0 -28 -1.5t-38 -6t-33.5 -12t-14.5 -20.5q0 -7 5.5 -12t13 -8t15.5 -4t14 -1q38 0 77 3
t77 3q13 0 28.5 -1t28.5 -5.5t22 -14.5t9 -28q0 -51 -24 -67.5t-72 -16.5h-157q-5 0 -13 -0.5t-15.5 -2.5t-12.5 -6t-5 -12q0 -13 15 -21.5t34.5 -13.5t39 -6.5t29.5 -1.5q44 0 86 6.5t85 13.5q5 1 11 1.5t11 0.5q22 0 35 -9.5t20 -24.5t9.5 -33t2.5 -35q0 -19 -3 -33
t-17 -28q-15 -13 -48 -23t-71 -17t-74 -10t-57 -3q-63 0 -117.5 3.5t-99.5 19.5q-13 -5 -26.5 -7.5t-27.5 -2.5q-30 0 -50 4.5t-31 13.5t-15.5 23.5t-4.5 34.5q0 35 -10.5 51.5t-52.5 16.5q-21 0 -35.5 -10t-24 -26.5t-17 -37.5t-15.5 -43q-7 -21 -17 -34.5t-24 -21.5
t-34.5 -11t-50.5 -3q-27 0 -50 12.5t-40.5 32t-27.5 45t-10 50.5q0 46 3.5 107.5t15.5 128t34 131.5t58.5 116t90.5 82.5t129 31.5zM312 337q0 -14 2 -30t6.5 -29.5t12.5 -22.5t20 -9q23 0 37 17t14 52q0 18 -2.5 38t-9 36.5t-17 27.5t-25.5 11q-13 0 -20.5 -9t-11.5 -22.5
t-5 -29.5t-1 -30z" />
    <glyph glyph-name="Ccedilla" unicode="&#xc7;" horiz-adv-x="757" 
d="M414 686q39 0 89.5 -11t95.5 -34t75.5 -58.5t30.5 -83.5q0 -19 -7 -38t-20 -34.5t-30.5 -25.5t-37.5 -10q-17 0 -34 7.5t-35 16t-37.5 16t-41.5 7.5q-32 0 -60 -12t-48.5 -32.5t-32 -48.5t-11.5 -60q0 -24 7 -45t20.5 -36.5t33 -25t44.5 -9.5q43 0 73.5 16.5t56 37t51 37
t59.5 16.5q38 0 62 -24.5t24 -62.5q0 -29 -15 -54.5t-40 -47t-57 -39t-65 -30t-65 -21t-58 -11.5l-25 -39q35 0 59 -23.5t24 -58.5q0 -23 -9.5 -41t-25 -30t-35.5 -18.5t-41 -6.5q-26 0 -49.5 8.5t-41.5 24t-28.5 38t-10.5 49.5q0 2 1 5.5t3 3.5q3 0 8.5 -6t14.5 -12.5
t21 -12.5t27 -6q11 0 21 4t10 18q0 11 -7 20t-17 15t-21.5 9t-21.5 2l28 56q-65 8 -121.5 35t-98.5 70t-66 100.5t-24 127.5q0 51 16 98t44 88t66 74.5t82.5 57.5t93 37t97.5 13z" />
    <glyph glyph-name="Egrave" unicode="&#xc8;" horiz-adv-x="685" 
d="M405 187q44 0 86 6.5t85 13.5q5 1 11 1.5t11 0.5q22 0 35 -9.5t20 -24.5t9.5 -33t2.5 -35q0 -19 -3 -33t-17 -28q-15 -13 -48 -23t-71 -17t-74 -10t-57 -3q-70 0 -131 5t-109 27.5t-79.5 68.5t-43.5 128q-6 42 -11.5 85t-5.5 86q0 74 23.5 130t66.5 93t102 55.5t130 18.5
h90q26 0 64.5 -4.5t74 -17.5t61 -35t25.5 -57q0 -27 -6.5 -52.5t-20.5 -45t-35.5 -31.5t-52.5 -12q-32 0 -63.5 4t-63.5 4q-9 0 -28 -1.5t-38 -6t-33.5 -12t-14.5 -20.5q0 -7 5.5 -12t13 -8t15.5 -4t14 -1q38 0 77 3t77 3q13 0 28.5 -1t28.5 -5.5t22 -14.5t9 -28
q0 -51 -24 -67.5t-72 -16.5h-157q-5 0 -13 -0.5t-15.5 -2.5t-12.5 -6t-5 -12q0 -13 15 -21.5t34.5 -13.5t39 -6.5t29.5 -1.5zM214 884q0 18 8.5 30.5t22 20t29.5 11t31 3.5q17 0 26 -2.5t22 -14.5q3 -3 13 -17.5t23.5 -34t28 -42.5t26.5 -42.5t20 -33t8 -15.5q0 -8 -6 -14
t-14 -9.5t-17.5 -5.5t-15.5 -2q-23 0 -58 17t-67.5 42.5t-56 55t-23.5 53.5z" />
    <glyph glyph-name="Eacute" unicode="&#xc9;" horiz-adv-x="685" 
d="M405 187q44 0 86 6.5t85 13.5q5 1 11 1.5t11 0.5q22 0 35 -9.5t20 -24.5t9.5 -33t2.5 -35q0 -19 -3 -33t-17 -28q-15 -13 -48 -23t-71 -17t-74 -10t-57 -3q-70 0 -131 5t-109 27.5t-79.5 68.5t-43.5 128q-6 42 -11.5 85t-5.5 86q0 74 23.5 130t66.5 93t102 55.5t130 18.5
h90q26 0 64.5 -4.5t74 -17.5t61 -35t25.5 -57q0 -27 -6.5 -52.5t-20.5 -45t-35.5 -31.5t-52.5 -12q-32 0 -63.5 4t-63.5 4q-9 0 -28 -1.5t-38 -6t-33.5 -12t-14.5 -20.5q0 -7 5.5 -12t13 -8t15.5 -4t14 -1q38 0 77 3t77 3q13 0 28.5 -1t28.5 -5.5t22 -14.5t9 -28
q0 -51 -24 -67.5t-72 -16.5h-157q-5 0 -13 -0.5t-15.5 -2.5t-12.5 -6t-5 -12q0 -13 15 -21.5t34.5 -13.5t39 -6.5t29.5 -1.5zM279 693q-18 0 -31 12.5t-13 30.5q0 6 6 21.5t15 35.5t20 42.5t21.5 42.5t19 34.5t13.5 19.5q11 11 20 14.5t24 3.5q36 0 56.5 -25t20.5 -60
q0 -25 -15.5 -49.5t-38 -46.5t-48 -40t-45.5 -29q-7 -4 -12 -5.5t-13 -1.5z" />
    <glyph glyph-name="Ecircumflex" unicode="&#xca;" horiz-adv-x="685" 
d="M405 187q44 0 86 6.5t85 13.5q5 1 11 1.5t11 0.5q22 0 35 -9.5t20 -24.5t9.5 -33t2.5 -35q0 -19 -3 -33t-17 -28q-15 -13 -48 -23t-71 -17t-74 -10t-57 -3q-70 0 -131 5t-109 27.5t-79.5 68.5t-43.5 128q-6 42 -11.5 85t-5.5 86q0 74 23.5 130t66.5 93t102 55.5t130 18.5
h90q26 0 64.5 -4.5t74 -17.5t61 -35t25.5 -57q0 -27 -6.5 -52.5t-20.5 -45t-35.5 -31.5t-52.5 -12q-32 0 -63.5 4t-63.5 4q-9 0 -28 -1.5t-38 -6t-33.5 -12t-14.5 -20.5q0 -7 5.5 -12t13 -8t15.5 -4t14 -1q38 0 77 3t77 3q13 0 28.5 -1t28.5 -5.5t22 -14.5t9 -28
q0 -51 -24 -67.5t-72 -16.5h-157q-5 0 -13 -0.5t-15.5 -2.5t-12.5 -6t-5 -12q0 -13 15 -21.5t34.5 -13.5t39 -6.5t29.5 -1.5zM349 837q-10 -4 -19 -18.5t-22 -30.5t-32 -29t-51 -13q-10 0 -21.5 2t-22 7.5t-17.5 13.5t-7 20q0 7 3 13t7 11q16 23 35 47t41 43.5t48.5 32
t57.5 12.5q23 0 54 -13.5t59 -34.5t47 -47t19 -51q0 -23 -16.5 -36t-38.5 -13q-18 0 -35.5 8t-34 20.5t-30.5 27.5t-24 28z" />
    <glyph glyph-name="Edieresis" unicode="&#xcb;" horiz-adv-x="685" 
d="M405 187q44 0 86 6.5t85 13.5q5 1 11 1.5t11 0.5q22 0 35 -9.5t20 -24.5t9.5 -33t2.5 -35q0 -19 -3 -33t-17 -28q-15 -13 -48 -23t-71 -17t-74 -10t-57 -3q-70 0 -131 5t-109 27.5t-79.5 68.5t-43.5 128q-6 42 -11.5 85t-5.5 86q0 74 23.5 130t66.5 93t102 55.5t130 18.5
h90q26 0 64.5 -4.5t74 -17.5t61 -35t25.5 -57q0 -27 -6.5 -52.5t-20.5 -45t-35.5 -31.5t-52.5 -12q-32 0 -63.5 4t-63.5 4q-9 0 -28 -1.5t-38 -6t-33.5 -12t-14.5 -20.5q0 -7 5.5 -12t13 -8t15.5 -4t14 -1q38 0 77 3t77 3q13 0 28.5 -1t28.5 -5.5t22 -14.5t9 -28
q0 -51 -24 -67.5t-72 -16.5h-157q-5 0 -13 -0.5t-15.5 -2.5t-12.5 -6t-5 -12q0 -13 15 -21.5t34.5 -13.5t39 -6.5t29.5 -1.5zM333 880q0 -13 -6.5 -22.5t-16.5 -16t-22.5 -10t-23.5 -3.5q-26 0 -48 11t-22 42q0 29 17.5 47t46.5 18q30 0 52.5 -17t22.5 -49zM492 880
q0 -13 -6.5 -22.5t-16.5 -16t-22 -10t-23 -3.5q-13 0 -26 2.5t-23 8.5t-16 16.5t-6 25.5q0 29 18 47t47 18q30 0 52 -17t22 -49z" />
    <glyph glyph-name="Igrave" unicode="&#xcc;" horiz-adv-x="367" 
d="M196 -3q-29 0 -52 4t-46 24t-39 54.5t-25.5 76.5t-14 89t-6 92t-1.5 85.5v70.5q0 52 14.5 88t41.5 58.5t65.5 33t87.5 10.5q60 0 94.5 -26.5t34.5 -89.5q0 -58 -7.5 -117t-14.5 -117q-7 -57 -13 -115t-19 -115q-4 -21 -11 -40t-18.5 -34t-28.5 -23.5t-42 -8.5zM55 884
q0 18 8.5 30.5t22 20t29.5 11t31 3.5q17 0 26 -2.5t22 -14.5q3 -3 13 -17.5t23.5 -34t28 -42.5t26.5 -42.5t20 -33t8 -15.5q0 -8 -6 -14t-14 -9.5t-17.5 -5.5t-15.5 -2q-23 0 -58 17t-67.5 42.5t-56 55t-23.5 53.5z" />
    <glyph glyph-name="Iacute" unicode="&#xcd;" horiz-adv-x="367" 
d="M196 -3q-29 0 -52 4t-46 24t-39 54.5t-25.5 76.5t-14 89t-6 92t-1.5 85.5v70.5q0 52 14.5 88t41.5 58.5t65.5 33t87.5 10.5q60 0 94.5 -26.5t34.5 -89.5q0 -58 -7.5 -117t-14.5 -117q-7 -57 -13 -115t-19 -115q-4 -21 -11 -40t-18.5 -34t-28.5 -23.5t-42 -8.5zM120 693
q-18 0 -31 12.5t-13 30.5q0 6 6 21.5t15 35.5t20 42.5t21.5 42.5t19.5 34.5t13 19.5q11 11 20 14.5t24 3.5q36 0 56.5 -25t20.5 -60q0 -25 -15.5 -49.5t-38 -46.5t-48 -40t-45.5 -29q-7 -4 -12 -5.5t-13 -1.5z" />
    <glyph glyph-name="Icircumflex" unicode="&#xce;" horiz-adv-x="367" 
d="M196 -3q-29 0 -52 4t-46 24t-39 54.5t-25.5 76.5t-14 89t-6 92t-1.5 85.5v70.5q0 52 14.5 88t41.5 58.5t65.5 33t87.5 10.5q60 0 94.5 -26.5t34.5 -89.5q0 -58 -7.5 -117t-14.5 -117q-7 -57 -13 -115t-19 -115q-4 -21 -11 -40t-18.5 -34t-28.5 -23.5t-42 -8.5zM190 837
q-10 -4 -19 -18.5t-22 -30.5t-32 -29t-51 -13q-10 0 -21.5 2t-22 7.5t-17.5 13.5t-7 20q0 7 3 13t7 11q16 23 35 47t41 43.5t48.5 32t57.5 12.5q23 0 54 -13.5t59 -34.5t47 -47t19 -51q0 -23 -16.5 -36t-38.5 -13q-18 0 -35.5 8t-34 20.5t-30.5 27.5t-24 28z" />
    <glyph glyph-name="Idieresis" unicode="&#xcf;" horiz-adv-x="367" 
d="M196 -3q-29 0 -52 4t-46 24t-39 54.5t-25.5 76.5t-14 89t-6 92t-1.5 85.5v70.5q0 52 14.5 88t41.5 58.5t65.5 33t87.5 10.5q60 0 94.5 -26.5t34.5 -89.5q0 -58 -7.5 -117t-14.5 -117q-7 -57 -13 -115t-19 -115q-4 -21 -11 -40t-18.5 -34t-28.5 -23.5t-42 -8.5zM174 880
q0 -13 -6.5 -22.5t-16.5 -16t-22.5 -10t-23.5 -3.5q-26 0 -48 11t-22 42q0 29 17.5 47t46.5 18q30 0 52.5 -17t22.5 -49zM333 880q0 -13 -6.5 -22.5t-16.5 -16t-22 -10t-23 -3.5q-13 0 -26 2.5t-23 8.5t-16 16.5t-6 25.5q0 29 18 47t47 18q30 0 52 -17t22 -49z" />
    <glyph glyph-name="Eth" unicode="&#xd0;" horiz-adv-x="689" 
d="M82 671q15 12 33 20t37.5 12t39.5 5.5t38 1.5q46 0 92 -6t90 -22q51 -19 98.5 -51t83.5 -75t58 -94.5t22 -108.5q0 -123 -56 -215.5t-174 -136.5q-31 -11 -63.5 -18t-65.5 -7q-76 0 -126 7.5t-81.5 32.5t-48.5 71.5t-28 125.5q-35 11 -60 31.5t-25 56.5q0 32 21.5 50.5
t52.5 26.5q0 27 1.5 69.5t7.5 86t18.5 81.5t34.5 56zM303 219q7 -16 16.5 -27t23.5 -11q21 0 38.5 10t29.5 25.5t19 35t7 38.5q0 21 -6 41.5t-18 37.5t-29.5 27.5t-40.5 10.5q-17 0 -28 -10.5t-17 -26.5q23 -10 38.5 -27.5t15.5 -45.5q0 -29 -13.5 -48t-35.5 -30z" />
    <glyph glyph-name="Ntilde" unicode="&#xd1;" horiz-adv-x="735" 
d="M324 102q0 -27 -13.5 -46t-34.5 -31.5t-45.5 -18.5t-46.5 -6q-32 0 -62 29.5t-52.5 84.5t-36 133t-13.5 175q0 48 5.5 100.5t21.5 96.5t45 72.5t76 28.5q36 0 63.5 -10t47.5 -24.5t33 -31.5t21 -31q5 -8 17.5 -33.5t27.5 -52.5t29 -48.5t20 -21.5q7 0 8 9t1 14
q0 28 -3 55t-3 55q0 26 14 46t35 34t46 21.5t47 7.5q54 0 85 -29.5t37 -82.5q7 -60 10.5 -120.5t3.5 -120.5q0 -36 -4.5 -78.5t-14.5 -84.5t-25.5 -81.5t-37 -69.5t-49 -48t-62.5 -18q-30 0 -52.5 17.5t-38.5 44t-27.5 57.5t-21 57.5t-18 44t-18.5 17.5q-3 0 -5.5 -9
t-4.5 -24t-3.5 -35.5t-1.5 -43.5zM535 937q17 0 29 -9t12 -28q0 -21 -15.5 -44.5t-38 -43t-48 -32.5t-45.5 -13q-18 0 -32.5 7t-28 15.5t-25.5 15.5t-24 7q-11 0 -22.5 -9t-25 -20.5t-29.5 -20.5t-37 -9q-19 0 -32 10.5t-13 30.5t15 45t36.5 48t46.5 38.5t44 15.5
q18 0 33 -9t27.5 -20.5t23.5 -20.5t23 -9q6 0 19.5 8.5t30.5 19t37 19t39 8.5z" />
    <glyph glyph-name="Ograve" unicode="&#xd2;" horiz-adv-x="775" 
d="M386 700q83 0 151 -25t116 -72t74.5 -114t26.5 -151q0 -74 -28.5 -141.5t-78 -118.5t-115.5 -81t-141 -30q-77 0 -144.5 25t-118 71t-79.5 111t-29 144q0 80 26.5 150t74.5 121.5t115.5 81t149.5 29.5zM299 279q0 -42 23.5 -67.5t58.5 -25.5q19 0 36.5 9.5t31 24.5
t21.5 34t8 37q0 17 -8 31.5t-21 25t-29 17t-31 6.5q-38 0 -64 -25t-26 -67zM259 884q0 18 8.5 30.5t22 20t29.5 11t31 3.5q17 0 26 -2.5t22 -14.5q3 -3 13 -17.5t23.5 -34t28 -42.5t26.5 -42.5t20 -33t8 -15.5q0 -8 -6 -14t-14 -9.5t-17.5 -5.5t-15.5 -2q-23 0 -58 17
t-67.5 42.5t-56 55t-23.5 53.5z" />
    <glyph glyph-name="Oacute" unicode="&#xd3;" horiz-adv-x="775" 
d="M386 700q83 0 151 -25t116 -72t74.5 -114t26.5 -151q0 -74 -28.5 -141.5t-78 -118.5t-115.5 -81t-141 -30q-77 0 -144.5 25t-118 71t-79.5 111t-29 144q0 71 21 134.5t59.5 113t93 83t121.5 45.5q-15 3 -25 14.5t-10 27.5q0 6 6 21.5t15 35.5t20 42.5t21.5 42.5
t19.5 34.5t13 19.5q11 11 20 14.5t24 3.5q36 0 56.5 -25t20.5 -60q0 -25 -16 -50.5t-39 -48t-49.5 -40.5t-46.5 -28q10 1 20 1.5t21 0.5zM299 279q0 -42 23.5 -67.5t58.5 -25.5q19 0 36.5 9.5t31 24.5t21.5 34t8 37q0 17 -8 31.5t-21 25t-29 17t-31 6.5q-38 0 -64 -25
t-26 -67z" />
    <glyph glyph-name="Ocircumflex" unicode="&#xd4;" horiz-adv-x="775" 
d="M386 700q83 0 151 -25t116 -72t74.5 -114t26.5 -151q0 -74 -28.5 -141.5t-78 -118.5t-115.5 -81t-141 -30q-77 0 -144.5 25t-118 71t-79.5 111t-29 144q0 80 26.5 150t74.5 121.5t115.5 81t149.5 29.5zM299 279q0 -42 23.5 -67.5t58.5 -25.5q19 0 36.5 9.5t31 24.5
t21.5 34t8 37q0 17 -8 31.5t-21 25t-29 17t-31 6.5q-38 0 -64 -25t-26 -67zM394 837q-10 -4 -19 -18.5t-22 -30.5t-32 -29t-51 -13q-10 0 -21.5 2t-22 7.5t-17.5 13.5t-7 20q0 7 3 13t7 11q16 23 35 47t41 43.5t48.5 32t57.5 12.5q23 0 54 -13.5t59 -34.5t47 -47t19 -51
q0 -23 -16.5 -36t-38.5 -13q-18 0 -35.5 8t-34 20.5t-30.5 27.5t-24 28z" />
    <glyph glyph-name="Otilde" unicode="&#xd5;" horiz-adv-x="775" 
d="M386 700q83 0 151 -25t116 -72t74.5 -114t26.5 -151q0 -74 -28.5 -141.5t-78 -118.5t-115.5 -81t-141 -30q-77 0 -144.5 25t-118 71t-79.5 111t-29 144q0 80 26.5 150t74.5 121.5t115.5 81t149.5 29.5zM299 279q0 -42 23.5 -67.5t58.5 -25.5q19 0 36.5 9.5t31 24.5
t21.5 34t8 37q0 17 -8 31.5t-21 25t-29 17t-31 6.5q-38 0 -64 -25t-26 -67zM555 937q17 0 29 -9t12 -28q0 -21 -15.5 -44.5t-38 -43t-48 -32.5t-45.5 -13q-18 0 -32.5 7t-28 15.5t-25.5 15.5t-24 7q-11 0 -22.5 -9t-25 -20.5t-29.5 -20.5t-37 -9q-19 0 -32 10.5t-13 30.5
t15 45t36.5 48t46.5 38.5t44 15.5q18 0 33 -9t27.5 -20.5t23.5 -20.5t23 -9q6 0 19.5 8.5t30.5 19t37 19t39 8.5z" />
    <glyph glyph-name="Odieresis" unicode="&#xd6;" horiz-adv-x="775" 
d="M386 700q83 0 151 -25t116 -72t74.5 -114t26.5 -151q0 -74 -28.5 -141.5t-78 -118.5t-115.5 -81t-141 -30q-77 0 -144.5 25t-118 71t-79.5 111t-29 144q0 80 26.5 150t74.5 121.5t115.5 81t149.5 29.5zM299 279q0 -42 23.5 -67.5t58.5 -25.5q19 0 36.5 9.5t31 24.5
t21.5 34t8 37q0 17 -8 31.5t-21 25t-29 17t-31 6.5q-38 0 -64 -25t-26 -67zM378 880q0 -13 -6.5 -22.5t-16.5 -16t-22.5 -10t-23.5 -3.5q-26 0 -48 11t-22 42q0 29 17.5 47t46.5 18q30 0 52.5 -17t22.5 -49zM537 880q0 -13 -6.5 -22.5t-16.5 -16t-22 -10t-23 -3.5
q-13 0 -26 2.5t-23 8.5t-16 16.5t-6 25.5q0 29 18 47t47 18q30 0 52 -17t22 -49z" />
    <glyph glyph-name="multiply" unicode="&#xd7;" horiz-adv-x="488" 
d="M19 546q0 29 18 47t47 18q25 0 48.5 -12.5t45 -30.5t40.5 -39t34 -38q15 17 32.5 38.5t37.5 40.5t42.5 32t47.5 13q29 0 46.5 -19t17.5 -48q0 -25 -12 -52t-30 -52.5t-38.5 -48.5t-37.5 -41q12 -17 25 -35t24.5 -36.5t18.5 -39t7 -42.5q0 -28 -16 -45.5t-45 -17.5
q-21 0 -40 9t-36 23t-31.5 30t-27.5 31q-12 -12 -31 -31.5t-40 -38.5t-42.5 -32.5t-39.5 -13.5q-17 0 -30.5 8t-22.5 20.5t-14 28t-5 30.5q0 21 6.5 36.5t20.5 30.5q22 23 44.5 45.5l45.5 45.5q-15 18 -34.5 40t-36 46t-28 49.5t-11.5 50.5z" />
    <glyph glyph-name="Oslash" unicode="&#xd8;" horiz-adv-x="775" 
d="M386 700q21 0 41 -2t40 -5q15 26 40 46t57 20q29 0 51 -20t22 -49q0 -9 -2.5 -17.5t-6.5 -16.5q-3 -6 -5.5 -12t-5.5 -12q65 -47 101 -121t36 -173q0 -74 -28.5 -141.5t-78 -118.5t-115.5 -81t-141 -30q-41 0 -84 8q-21 -27 -46.5 -45t-57.5 -18q-29 0 -48.5 17.5
t-19.5 47.5q0 11 7 26.5t18 34.5q-64 46 -102 117.5t-38 162.5q0 80 26.5 150t74.5 121.5t115.5 81t149.5 29.5zM299 279q0 -42 23.5 -67.5t58.5 -25.5q19 0 36.5 9.5t31 24.5t21.5 34t8 37q0 17 -8 31.5t-21 25t-29 17t-31 6.5q-38 0 -64 -25t-26 -67z" />
    <glyph glyph-name="Ugrave" unicode="&#xd9;" horiz-adv-x="672" 
d="M340 -3q-58 0 -103 14t-93 47q-38 27 -62.5 62.5t-38.5 76t-19 84.5t-5 88q0 57 6 116t19 116q6 24 20.5 41.5t34 29t43 17t45.5 5.5q42 0 70.5 -13.5t45 -37.5t23.5 -56t7 -70q0 -30 -2.5 -66t-5.5 -74t-5.5 -74t-2.5 -66q0 -9 1 -24t4.5 -29t11 -24.5t20.5 -10.5
q8 0 12.5 5.5t7.5 13t4 16t1 13.5q0 22 -1 51t-1.5 60t-1.5 60t-1 51q0 39 2.5 82.5t15.5 80t41.5 61t80.5 24.5q29 0 55 -11t42 -37q12 -19 19.5 -48.5t12 -62t6 -64t1.5 -54.5q0 -51 -7 -103t-22 -102q-15 -51 -42 -86.5t-63 -58t-80.5 -33t-95.5 -10.5zM207 884
q0 18 8.5 30.5t22 20t29.5 11t31 3.5q17 0 26 -2.5t22 -14.5q3 -3 13 -17.5t23.5 -34t28 -42.5t26.5 -42.5t20 -33t8 -15.5q0 -8 -6 -14t-14 -9.5t-17.5 -5.5t-15.5 -2q-23 0 -58 17t-67.5 42.5t-56 55t-23.5 53.5z" />
    <glyph glyph-name="Uacute" unicode="&#xda;" horiz-adv-x="672" 
d="M340 -3q-58 0 -103 14t-93 47q-38 27 -62.5 62.5t-38.5 76t-19 84.5t-5 88q0 57 6 116t19 116q6 24 20.5 41.5t34 29t43 17t45.5 5.5q42 0 70.5 -13.5t45 -37.5t23.5 -56t7 -70q0 -30 -2.5 -66t-5.5 -74t-5.5 -74t-2.5 -66q0 -9 1 -24t4.5 -29t11 -24.5t20.5 -10.5
q8 0 12.5 5.5t7.5 13t4 16t1 13.5q0 22 -1 51t-1.5 60t-1.5 60t-1 51q0 39 2.5 82.5t15.5 80t41.5 61t80.5 24.5q29 0 55 -11t42 -37q12 -19 19.5 -48.5t12 -62t6 -64t1.5 -54.5q0 -51 -7 -103t-22 -102q-15 -51 -42 -86.5t-63 -58t-80.5 -33t-95.5 -10.5zM272 693
q-18 0 -31 12.5t-13 30.5q0 6 6 21.5t15 35.5t20 42.5t21.5 42.5t19.5 34.5t13 19.5q11 11 20 14.5t24 3.5q36 0 56.5 -25t20.5 -60q0 -25 -15.5 -49.5t-38 -46.5t-48 -40t-45.5 -29q-7 -4 -12 -5.5t-13 -1.5z" />
    <glyph glyph-name="Ucircumflex" unicode="&#xdb;" horiz-adv-x="672" 
d="M340 -3q-58 0 -103 14t-93 47q-38 27 -62.5 62.5t-38.5 76t-19 84.5t-5 88q0 57 6 116t19 116q6 24 20.5 41.5t34 29t43 17t45.5 5.5q42 0 70.5 -13.5t45 -37.5t23.5 -56t7 -70q0 -30 -2.5 -66t-5.5 -74t-5.5 -74t-2.5 -66q0 -9 1 -24t4.5 -29t11 -24.5t20.5 -10.5
q8 0 12.5 5.5t7.5 13t4 16t1 13.5q0 22 -1 51t-1.5 60t-1.5 60t-1 51q0 39 2.5 82.5t15.5 80t41.5 61t80.5 24.5q29 0 55 -11t42 -37q12 -19 19.5 -48.5t12 -62t6 -64t1.5 -54.5q0 -51 -7 -103t-22 -102q-15 -51 -42 -86.5t-63 -58t-80.5 -33t-95.5 -10.5zM343 837
q-10 -4 -19 -18.5t-22 -30.5t-32 -29t-51 -13q-10 0 -21.5 2t-22 7.5t-17.5 13.5t-7 20q0 7 3 13t7 11q16 23 35 47t41 43.5t48.5 32t57.5 12.5q23 0 54 -13.5t59 -34.5t47 -47t19 -51q0 -23 -16.5 -36t-38.5 -13q-18 0 -35.5 8t-34 20.5t-30.5 27.5t-24 28z" />
    <glyph glyph-name="Udieresis" unicode="&#xdc;" horiz-adv-x="672" 
d="M340 -3q-58 0 -103 14t-93 47q-38 27 -62.5 62.5t-38.5 76t-19 84.5t-5 88q0 57 6 116t19 116q6 24 20.5 41.5t34 29t43 17t45.5 5.5q42 0 70.5 -13.5t45 -37.5t23.5 -56t7 -70q0 -30 -2.5 -66t-5.5 -74t-5.5 -74t-2.5 -66q0 -9 1 -24t4.5 -29t11 -24.5t20.5 -10.5
q8 0 12.5 5.5t7.5 13t4 16t1 13.5q0 22 -1 51t-1.5 60t-1.5 60t-1 51q0 39 2.5 82.5t15.5 80t41.5 61t80.5 24.5q29 0 55 -11t42 -37q12 -19 19.5 -48.5t12 -62t6 -64t1.5 -54.5q0 -51 -7 -103t-22 -102q-15 -51 -42 -86.5t-63 -58t-80.5 -33t-95.5 -10.5zM326 880
q0 -13 -6.5 -22.5t-16.5 -16t-22.5 -10t-23.5 -3.5q-26 0 -48 11t-22 42q0 29 17.5 47t46.5 18q30 0 52.5 -17t22.5 -49zM485 880q0 -13 -6.5 -22.5t-16.5 -16t-22 -10t-23 -3.5q-13 0 -26 2.5t-23 8.5t-16 16.5t-6 25.5q0 29 18 47t47 18q30 0 52 -17t22 -49z" />
    <glyph glyph-name="Yacute" unicode="&#xdd;" horiz-adv-x="735" 
d="M561 716q35 0 66 -7.5t54 -23.5t36 -41t13 -59q0 -58 -18 -101t-45 -77t-58.5 -62.5t-58.5 -58t-45 -63t-18 -78.5q0 -37 -7.5 -67.5t-23 -52.5t-40 -34t-58.5 -12t-58.5 13t-40.5 36t-23.5 55t-7.5 70q0 42 -16.5 73t-41.5 58.5t-53.5 54.5t-53.5 61t-41.5 78.5
t-16.5 106.5q0 31 16.5 56.5t42 43.5t55.5 27.5t58 9.5q35 0 58 -4t38.5 -14.5t26 -28t19.5 -45.5q6 -17 11.5 -35t10.5 -36q1 -4 4 -17.5t7 -27.5t8 -25.5t7 -11.5q5 0 7 8t3 11q9 36 22 75t34 71.5t52 53t76 20.5zM304 693q-18 0 -31 12.5t-13 30.5q0 6 6 21.5t15 35.5
t20 42.5t21.5 42.5t19.5 34.5t13 19.5q11 11 20 14.5t24 3.5q36 0 56.5 -25t20.5 -60q0 -25 -15.5 -49.5t-38 -46.5t-48 -40t-45.5 -29q-7 -4 -12 -5.5t-13 -1.5z" />
    <glyph glyph-name="Thorn" unicode="&#xde;" horiz-adv-x="682" 
d="M11 355q0 82 11 150.5t34 118t60 77.5t89 28q51 0 77 -19.5t32 -45.5q4 -16 6 -32l3.5 -28t4 -19.5t6.5 -7.5q5 0 11.5 8.5t19.5 18.5t34.5 18.5t55.5 8.5q37 0 74.5 -12t68 -36.5t49.5 -61t19 -84.5q0 -86 -24 -140.5t-68 -86t-106 -43t-138 -11.5q-5 0 -14 -1.5
t-11 -6.5q-5 -12 -4 -28.5t2 -33.5t-0.5 -33.5t-11.5 -27.5q-17 -18 -39 -25t-46 -7q-41 0 -71.5 18.5t-52 48t-35.5 68t-22 79t-11 79t-3 69.5zM321 354q0 -9 3.5 -18.5t10.5 -17.5t17.5 -13.5t24.5 -5.5q19 0 31 8t19 20.5t10 27.5t3 30q0 11 -2.5 22.5t-9 21.5t-18 16.5
t-30.5 6.5t-30.5 -8t-18 -21.5t-8.5 -31.5t-2 -37z" />
    <glyph glyph-name="germandbls" unicode="&#xdf;" horiz-adv-x="631" 
d="M288 44q0 18 10 34t24 23t30 11t31.5 6.5t28 8.5t20 18.5t7.5 35.5q0 35 -24.5 48.5t-55.5 13.5q-11 0 -21 -2.5t-21 -2.5q-8 0 -12.5 7.5t-6.5 17t-2.5 19.5t-0.5 15v15.5t1 15.5q2 11 10 22.5t17 26t16 32.5t7 40q0 23 -9 41.5t-36 18.5q-8 0 -17 -1.5t-17 -5.5
q-10 -5 -15.5 -23.5t-8 -41t-3 -44t-0.5 -32.5q0 -24 1 -48.5t4 -48.5q5 -39 11.5 -77.5t6.5 -78.5q0 -29 -2 -54t-11 -43.5t-28.5 -29t-54.5 -10.5q-34 0 -58 17.5t-40 46t-25.5 64t-14.5 72t-6.5 70t-1.5 57.5q0 64 7.5 128t22.5 127q11 44 40 72.5t68 45t82.5 23
t82.5 6.5q50 0 95 -9.5t79.5 -32t54.5 -60.5t20 -95q0 -22 -7.5 -48.5t-21 -49.5t-33.5 -40t-44 -21q7 1 13.5 1.5t13.5 0.5q37 0 61.5 -16.5t39 -42.5t20.5 -57.5t6 -62.5q0 -48 -18.5 -84.5t-50 -61.5t-72.5 -37.5t-85 -12.5q-18 0 -36.5 3t-34.5 11.5t-26 22.5t-10 36z
" />
    <glyph glyph-name="agrave" unicode="&#xe0;" 
d="M346 700q75 0 128 -31.5t88 -82.5t55 -114.5t30 -126.5t12.5 -120.5t2.5 -95.5q0 -27 -11.5 -50t-31 -39t-44 -25t-50.5 -9q-30 0 -50 4.5t-31 13.5t-15.5 23.5t-4.5 34.5q0 35 -10.5 51.5t-52.5 16.5q-21 0 -35.5 -10t-24 -26.5t-17 -37.5t-15.5 -43q-7 -21 -17 -34.5
t-24 -21.5t-34.5 -11t-50.5 -3q-27 0 -50 12.5t-40.5 32t-27.5 45t-10 50.5q0 46 3.5 107.5t15.5 128t34 131.5t58.5 116t90.5 82.5t129 31.5zM312 337q0 -14 2 -30t6.5 -29.5t12.5 -22.5t20 -9q23 0 37 17t14 52q0 18 -2.5 38t-9 36.5t-17 27.5t-25.5 11q-13 0 -20.5 -9
t-11.5 -22.5t-5 -29.5t-1 -30zM212 884q0 18 8.5 30.5t22 20t29.5 11t31 3.5q17 0 26 -2.5t22 -14.5q3 -3 13 -17.5t23.5 -34t28 -42.5t26.5 -42.5t20 -33t8 -15.5q0 -8 -6 -14t-14 -9.5t-17.5 -5.5t-15.5 -2q-23 0 -58 17t-67.5 42.5t-56 55t-23.5 53.5z" />
    <glyph glyph-name="aacute" unicode="&#xe1;" 
d="M346 700q75 0 128 -31.5t88 -82.5t55 -114.5t30 -126.5t12.5 -120.5t2.5 -95.5q0 -27 -11.5 -50t-31 -39t-44 -25t-50.5 -9q-30 0 -50 4.5t-31 13.5t-15.5 23.5t-4.5 34.5q0 35 -10.5 51.5t-52.5 16.5q-21 0 -35.5 -10t-24 -26.5t-17 -37.5t-15.5 -43q-7 -21 -17 -34.5
t-24 -21.5t-34.5 -11t-50.5 -3q-27 0 -50 12.5t-40.5 32t-27.5 45t-10 50.5q0 42 3 98.5t12.5 117.5t27.5 122t47.5 112.5t73 88.5t104.5 51q-20 0 -35 10.5t-15 32.5q0 6 6 21.5t15 35.5t20 42.5t21.5 42.5t19 34.5t13.5 19.5q11 11 20 14.5t24 3.5q36 0 56.5 -25t20.5 -60
q0 -25 -15.5 -49.5t-38 -46.5t-48 -40t-45.5 -29q-3 -2 -5.5 -3t-5.5 -2q13 2 26.5 3.5t28.5 1.5zM312 337q0 -14 2 -30t6.5 -29.5t12.5 -22.5t20 -9q23 0 37 17t14 52q0 18 -2.5 38t-9 36.5t-17 27.5t-25.5 11q-13 0 -20.5 -9t-11.5 -22.5t-5 -29.5t-1 -30z" />
    <glyph glyph-name="acircumflex" unicode="&#xe2;" 
d="M346 700q75 0 128 -31.5t88 -82.5t55 -114.5t30 -126.5t12.5 -120.5t2.5 -95.5q0 -27 -11.5 -50t-31 -39t-44 -25t-50.5 -9q-30 0 -50 4.5t-31 13.5t-15.5 23.5t-4.5 34.5q0 35 -10.5 51.5t-52.5 16.5q-21 0 -35.5 -10t-24 -26.5t-17 -37.5t-15.5 -43q-7 -21 -17 -34.5
t-24 -21.5t-34.5 -11t-50.5 -3q-27 0 -50 12.5t-40.5 32t-27.5 45t-10 50.5q0 46 3.5 107.5t15.5 128t34 131.5t58.5 116t90.5 82.5t129 31.5zM312 337q0 -14 2 -30t6.5 -29.5t12.5 -22.5t20 -9q23 0 37 17t14 52q0 18 -2.5 38t-9 36.5t-17 27.5t-25.5 11q-13 0 -20.5 -9
t-11.5 -22.5t-5 -29.5t-1 -30zM347 837q-10 -4 -19 -18.5t-22 -30.5t-32 -29t-51 -13q-10 0 -21.5 2t-22 7.5t-17.5 13.5t-7 20q0 7 3 13t7 11q16 23 35 47t41 43.5t48.5 32t57.5 12.5q23 0 54 -13.5t59 -34.5t47 -47t19 -51q0 -23 -16.5 -36t-38.5 -13q-18 0 -35.5 8
t-34 20.5t-30.5 27.5t-24 28z" />
    <glyph glyph-name="atilde" unicode="&#xe3;" 
d="M346 700q75 0 128 -31.5t88 -82.5t55 -114.5t30 -126.5t12.5 -120.5t2.5 -95.5q0 -27 -11.5 -50t-31 -39t-44 -25t-50.5 -9q-30 0 -50 4.5t-31 13.5t-15.5 23.5t-4.5 34.5q0 35 -10.5 51.5t-52.5 16.5q-21 0 -35.5 -10t-24 -26.5t-17 -37.5t-15.5 -43q-7 -21 -17 -34.5
t-24 -21.5t-34.5 -11t-50.5 -3q-27 0 -50 12.5t-40.5 32t-27.5 45t-10 50.5q0 46 3.5 107.5t15.5 128t34 131.5t58.5 116t90.5 82.5t129 31.5zM312 337q0 -14 2 -30t6.5 -29.5t12.5 -22.5t20 -9q23 0 37 17t14 52q0 18 -2.5 38t-9 36.5t-17 27.5t-25.5 11q-13 0 -20.5 -9
t-11.5 -22.5t-5 -29.5t-1 -30zM508 937q17 0 29 -9t12 -28q0 -21 -15.5 -44.5t-38 -43t-48 -32.5t-45.5 -13q-18 0 -32.5 7t-28 15.5t-25.5 15.5t-24 7q-11 0 -22.5 -9t-25 -20.5t-29.5 -20.5t-37 -9q-19 0 -32 10.5t-13 30.5t15 45t36.5 48t46.5 38.5t44 15.5q18 0 33 -9
t27.5 -20.5t23.5 -20.5t23 -9q6 0 19.5 8.5t30.5 19t37 19t39 8.5z" />
    <glyph glyph-name="adieresis" unicode="&#xe4;" 
d="M346 700q75 0 128 -31.5t88 -82.5t55 -114.5t30 -126.5t12.5 -120.5t2.5 -95.5q0 -27 -11.5 -50t-31 -39t-44 -25t-50.5 -9q-30 0 -50 4.5t-31 13.5t-15.5 23.5t-4.5 34.5q0 35 -10.5 51.5t-52.5 16.5q-21 0 -35.5 -10t-24 -26.5t-17 -37.5t-15.5 -43q-7 -21 -17 -34.5
t-24 -21.5t-34.5 -11t-50.5 -3q-27 0 -50 12.5t-40.5 32t-27.5 45t-10 50.5q0 46 3.5 107.5t15.5 128t34 131.5t58.5 116t90.5 82.5t129 31.5zM312 337q0 -14 2 -30t6.5 -29.5t12.5 -22.5t20 -9q23 0 37 17t14 52q0 18 -2.5 38t-9 36.5t-17 27.5t-25.5 11q-13 0 -20.5 -9
t-11.5 -22.5t-5 -29.5t-1 -30zM331 880q0 -13 -6.5 -22.5t-16.5 -16t-22.5 -10t-23.5 -3.5q-26 0 -48 11t-22 42q0 29 17.5 47t46.5 18q30 0 52.5 -17t22.5 -49zM490 880q0 -13 -6.5 -22.5t-16.5 -16t-22 -10t-23 -3.5q-13 0 -26 2.5t-23 8.5t-16 16.5t-6 25.5q0 29 18 47
t47 18q30 0 52 -17t22 -49z" />
    <glyph glyph-name="aring" unicode="&#xe5;" 
d="M346 700q75 0 128 -31.5t88 -82.5t55 -114.5t30 -126.5t12.5 -120.5t2.5 -95.5q0 -27 -11.5 -50t-31 -39t-44 -25t-50.5 -9q-30 0 -50 4.5t-31 13.5t-15.5 23.5t-4.5 34.5q0 35 -10.5 51.5t-52.5 16.5q-21 0 -35.5 -10t-24 -26.5t-17 -37.5t-15.5 -43q-7 -21 -17 -34.5
t-24 -21.5t-34.5 -11t-50.5 -3q-27 0 -50 12.5t-40.5 32t-27.5 45t-10 50.5q0 46 3.5 107.5t15.5 128t34 131.5t58.5 116t90.5 82.5t129 31.5zM312 337q0 -14 2 -30t6.5 -29.5t12.5 -22.5t20 -9q23 0 37 17t14 52q0 18 -2.5 38t-9 36.5t-17 27.5t-25.5 11q-13 0 -20.5 -9
t-11.5 -22.5t-5 -29.5t-1 -30zM458 816q0 -21 -10 -38.5t-26 -30t-36 -20t-39 -7.5q-26 0 -48.5 4.5t-39 16t-26 31t-9.5 48.5q0 24 7 47t20.5 40t33.5 27.5t47 10.5q58 0 92 -36t34 -93zM364 861q-18 0 -26 -12.5t-8 -29.5q0 -35 38 -35q14 0 23.5 9.5t9.5 23.5
q0 17 -8.5 30.5t-28.5 13.5z" />
    <glyph glyph-name="ae" unicode="&#xe6;" horiz-adv-x="1086" 
d="M346 700q57 0 101 -19t77 -51q42 30 96 45t118 15h90q26 0 64.5 -4.5t74 -17.5t61 -35t25.5 -57q0 -27 -6.5 -52.5t-20.5 -45t-35.5 -31.5t-52.5 -12q-32 0 -63.5 4t-63.5 4q-9 0 -28 -1.5t-38 -6t-33.5 -12t-14.5 -20.5q0 -7 5.5 -12t13 -8t15.5 -4t14 -1q38 0 77 3
t77 3q13 0 28.5 -1t28.5 -5.5t22 -14.5t9 -28q0 -51 -24 -67.5t-72 -16.5h-157q-5 0 -13 -0.5t-15.5 -2.5t-12.5 -6t-5 -12q0 -13 15 -21.5t34.5 -13.5t39 -6.5t29.5 -1.5q44 0 86 6.5t85 13.5q5 1 11 1.5t11 0.5q22 0 35 -9.5t20 -24.5t9.5 -33t2.5 -35q0 -19 -3 -33
t-17 -28q-15 -13 -48 -23t-71 -17t-74 -10t-57 -3q-63 0 -117.5 3.5t-99.5 19.5q-13 -5 -26.5 -7.5t-27.5 -2.5q-30 0 -50 4.5t-31 13.5t-15.5 23.5t-4.5 34.5q0 35 -10.5 51.5t-52.5 16.5q-21 0 -35.5 -10t-24 -26.5t-17 -37.5t-15.5 -43q-7 -21 -17 -34.5t-24 -21.5
t-34.5 -11t-50.5 -3q-27 0 -50 12.5t-40.5 32t-27.5 45t-10 50.5q0 46 3.5 107.5t15.5 128t34 131.5t58.5 116t90.5 82.5t129 31.5zM312 337q0 -14 2 -30t6.5 -29.5t12.5 -22.5t20 -9q23 0 37 17t14 52q0 18 -2.5 38t-9 36.5t-17 27.5t-25.5 11q-13 0 -20.5 -9t-11.5 -22.5
t-5 -29.5t-1 -30z" />
    <glyph glyph-name="ccedilla" unicode="&#xe7;" horiz-adv-x="757" 
d="M414 686q39 0 89.5 -11t95.5 -34t75.5 -58.5t30.5 -83.5q0 -19 -7 -38t-20 -34.5t-30.5 -25.5t-37.5 -10q-17 0 -34 7.5t-35 16t-37.5 16t-41.5 7.5q-32 0 -60 -12t-48.5 -32.5t-32 -48.5t-11.5 -60q0 -24 7 -45t20.5 -36.5t33 -25t44.5 -9.5q43 0 73.5 16.5t56 37t51 37
t59.5 16.5q38 0 62 -24.5t24 -62.5q0 -29 -15 -54.5t-40 -47t-57 -39t-65 -30t-65 -21t-58 -11.5l-25 -39q35 0 59 -23.5t24 -58.5q0 -23 -9.5 -41t-25 -30t-35.5 -18.5t-41 -6.5q-26 0 -49.5 8.5t-41.5 24t-28.5 38t-10.5 49.5q0 2 1 5.5t3 3.5q3 0 8.5 -6t14.5 -12.5
t21 -12.5t27 -6q11 0 21 4t10 18q0 11 -7 20t-17 15t-21.5 9t-21.5 2l28 56q-65 8 -121.5 35t-98.5 70t-66 100.5t-24 127.5q0 51 16 98t44 88t66 74.5t82.5 57.5t93 37t97.5 13z" />
    <glyph glyph-name="egrave" unicode="&#xe8;" horiz-adv-x="685" 
d="M405 187q44 0 86 6.5t85 13.5q5 1 11 1.5t11 0.5q22 0 35 -9.5t20 -24.5t9.5 -33t2.5 -35q0 -19 -3 -33t-17 -28q-15 -13 -48 -23t-71 -17t-74 -10t-57 -3q-70 0 -131 5t-109 27.5t-79.5 68.5t-43.5 128q-6 42 -11.5 85t-5.5 86q0 74 23.5 130t66.5 93t102 55.5t130 18.5
h90q26 0 64.5 -4.5t74 -17.5t61 -35t25.5 -57q0 -27 -6.5 -52.5t-20.5 -45t-35.5 -31.5t-52.5 -12q-32 0 -63.5 4t-63.5 4q-9 0 -28 -1.5t-38 -6t-33.5 -12t-14.5 -20.5q0 -7 5.5 -12t13 -8t15.5 -4t14 -1q38 0 77 3t77 3q13 0 28.5 -1t28.5 -5.5t22 -14.5t9 -28
q0 -51 -24 -67.5t-72 -16.5h-157q-5 0 -13 -0.5t-15.5 -2.5t-12.5 -6t-5 -12q0 -13 15 -21.5t34.5 -13.5t39 -6.5t29.5 -1.5zM214 884q0 18 8.5 30.5t22 20t29.5 11t31 3.5q17 0 26 -2.5t22 -14.5q3 -3 13 -17.5t23.5 -34t28 -42.5t26.5 -42.5t20 -33t8 -15.5q0 -8 -6 -14
t-14 -9.5t-17.5 -5.5t-15.5 -2q-23 0 -58 17t-67.5 42.5t-56 55t-23.5 53.5z" />
    <glyph glyph-name="eacute" unicode="&#xe9;" horiz-adv-x="685" 
d="M405 187q44 0 86 6.5t85 13.5q5 1 11 1.5t11 0.5q22 0 35 -9.5t20 -24.5t9.5 -33t2.5 -35q0 -19 -3 -33t-17 -28q-15 -13 -48 -23t-71 -17t-74 -10t-57 -3q-70 0 -131 5t-109 27.5t-79.5 68.5t-43.5 128q-6 42 -11.5 85t-5.5 86q0 74 23.5 130t66.5 93t102 55.5t130 18.5
h90q26 0 64.5 -4.5t74 -17.5t61 -35t25.5 -57q0 -27 -6.5 -52.5t-20.5 -45t-35.5 -31.5t-52.5 -12q-32 0 -63.5 4t-63.5 4q-9 0 -28 -1.5t-38 -6t-33.5 -12t-14.5 -20.5q0 -7 5.5 -12t13 -8t15.5 -4t14 -1q38 0 77 3t77 3q13 0 28.5 -1t28.5 -5.5t22 -14.5t9 -28
q0 -51 -24 -67.5t-72 -16.5h-157q-5 0 -13 -0.5t-15.5 -2.5t-12.5 -6t-5 -12q0 -13 15 -21.5t34.5 -13.5t39 -6.5t29.5 -1.5zM279 693q-18 0 -31 12.5t-13 30.5q0 6 6 21.5t15 35.5t20 42.5t21.5 42.5t19 34.5t13.5 19.5q11 11 20 14.5t24 3.5q36 0 56.5 -25t20.5 -60
q0 -25 -15.5 -49.5t-38 -46.5t-48 -40t-45.5 -29q-7 -4 -12 -5.5t-13 -1.5z" />
    <glyph glyph-name="ecircumflex" unicode="&#xea;" horiz-adv-x="685" 
d="M405 187q44 0 86 6.5t85 13.5q5 1 11 1.5t11 0.5q22 0 35 -9.5t20 -24.5t9.5 -33t2.5 -35q0 -19 -3 -33t-17 -28q-15 -13 -48 -23t-71 -17t-74 -10t-57 -3q-70 0 -131 5t-109 27.5t-79.5 68.5t-43.5 128q-6 42 -11.5 85t-5.5 86q0 74 23.5 130t66.5 93t102 55.5t130 18.5
h90q26 0 64.5 -4.5t74 -17.5t61 -35t25.5 -57q0 -27 -6.5 -52.5t-20.5 -45t-35.5 -31.5t-52.5 -12q-32 0 -63.5 4t-63.5 4q-9 0 -28 -1.5t-38 -6t-33.5 -12t-14.5 -20.5q0 -7 5.5 -12t13 -8t15.5 -4t14 -1q38 0 77 3t77 3q13 0 28.5 -1t28.5 -5.5t22 -14.5t9 -28
q0 -51 -24 -67.5t-72 -16.5h-157q-5 0 -13 -0.5t-15.5 -2.5t-12.5 -6t-5 -12q0 -13 15 -21.5t34.5 -13.5t39 -6.5t29.5 -1.5zM349 837q-10 -4 -19 -18.5t-22 -30.5t-32 -29t-51 -13q-10 0 -21.5 2t-22 7.5t-17.5 13.5t-7 20q0 7 3 13t7 11q16 23 35 47t41 43.5t48.5 32
t57.5 12.5q23 0 54 -13.5t59 -34.5t47 -47t19 -51q0 -23 -16.5 -36t-38.5 -13q-18 0 -35.5 8t-34 20.5t-30.5 27.5t-24 28z" />
    <glyph glyph-name="edieresis" unicode="&#xeb;" horiz-adv-x="685" 
d="M405 187q44 0 86 6.5t85 13.5q5 1 11 1.5t11 0.5q22 0 35 -9.5t20 -24.5t9.5 -33t2.5 -35q0 -19 -3 -33t-17 -28q-15 -13 -48 -23t-71 -17t-74 -10t-57 -3q-70 0 -131 5t-109 27.5t-79.5 68.5t-43.5 128q-6 42 -11.5 85t-5.5 86q0 74 23.5 130t66.5 93t102 55.5t130 18.5
h90q26 0 64.5 -4.5t74 -17.5t61 -35t25.5 -57q0 -27 -6.5 -52.5t-20.5 -45t-35.5 -31.5t-52.5 -12q-32 0 -63.5 4t-63.5 4q-9 0 -28 -1.5t-38 -6t-33.5 -12t-14.5 -20.5q0 -7 5.5 -12t13 -8t15.5 -4t14 -1q38 0 77 3t77 3q13 0 28.5 -1t28.5 -5.5t22 -14.5t9 -28
q0 -51 -24 -67.5t-72 -16.5h-157q-5 0 -13 -0.5t-15.5 -2.5t-12.5 -6t-5 -12q0 -13 15 -21.5t34.5 -13.5t39 -6.5t29.5 -1.5zM333 880q0 -13 -6.5 -22.5t-16.5 -16t-22.5 -10t-23.5 -3.5q-26 0 -48 11t-22 42q0 29 17.5 47t46.5 18q30 0 52.5 -17t22.5 -49zM492 880
q0 -13 -6.5 -22.5t-16.5 -16t-22 -10t-23 -3.5q-13 0 -26 2.5t-23 8.5t-16 16.5t-6 25.5q0 29 18 47t47 18q30 0 52 -17t22 -49z" />
    <glyph glyph-name="igrave" unicode="&#xec;" horiz-adv-x="367" 
d="M196 -3q-29 0 -52 4t-46 24t-39 54.5t-25.5 76.5t-14 89t-6 92t-1.5 85.5v70.5q0 52 14.5 88t41.5 58.5t65.5 33t87.5 10.5q60 0 94.5 -26.5t34.5 -89.5q0 -58 -7.5 -117t-14.5 -117q-7 -57 -13 -115t-19 -115q-4 -21 -11 -40t-18.5 -34t-28.5 -23.5t-42 -8.5zM55 884
q0 18 8.5 30.5t22 20t29.5 11t31 3.5q17 0 26 -2.5t22 -14.5q3 -3 13 -17.5t23.5 -34t28 -42.5t26.5 -42.5t20 -33t8 -15.5q0 -8 -6 -14t-14 -9.5t-17.5 -5.5t-15.5 -2q-23 0 -58 17t-67.5 42.5t-56 55t-23.5 53.5z" />
    <glyph glyph-name="iacute" unicode="&#xed;" horiz-adv-x="367" 
d="M196 -3q-29 0 -52 4t-46 24t-39 54.5t-25.5 76.5t-14 89t-6 92t-1.5 85.5v70.5q0 52 14.5 88t41.5 58.5t65.5 33t87.5 10.5q60 0 94.5 -26.5t34.5 -89.5q0 -58 -7.5 -117t-14.5 -117q-7 -57 -13 -115t-19 -115q-4 -21 -11 -40t-18.5 -34t-28.5 -23.5t-42 -8.5zM120 693
q-18 0 -31 12.5t-13 30.5q0 6 6 21.5t15 35.5t20 42.5t21.5 42.5t19.5 34.5t13 19.5q11 11 20 14.5t24 3.5q36 0 56.5 -25t20.5 -60q0 -25 -15.5 -49.5t-38 -46.5t-48 -40t-45.5 -29q-7 -4 -12 -5.5t-13 -1.5z" />
    <glyph glyph-name="icircumflex" unicode="&#xee;" horiz-adv-x="367" 
d="M196 -3q-29 0 -52 4t-46 24t-39 54.5t-25.5 76.5t-14 89t-6 92t-1.5 85.5v70.5q0 52 14.5 88t41.5 58.5t65.5 33t87.5 10.5q60 0 94.5 -26.5t34.5 -89.5q0 -58 -7.5 -117t-14.5 -117q-7 -57 -13 -115t-19 -115q-4 -21 -11 -40t-18.5 -34t-28.5 -23.5t-42 -8.5zM190 837
q-10 -4 -19 -18.5t-22 -30.5t-32 -29t-51 -13q-10 0 -21.5 2t-22 7.5t-17.5 13.5t-7 20q0 7 3 13t7 11q16 23 35 47t41 43.5t48.5 32t57.5 12.5q23 0 54 -13.5t59 -34.5t47 -47t19 -51q0 -23 -16.5 -36t-38.5 -13q-18 0 -35.5 8t-34 20.5t-30.5 27.5t-24 28z" />
    <glyph glyph-name="idieresis" unicode="&#xef;" horiz-adv-x="367" 
d="M196 -3q-29 0 -52 4t-46 24t-39 54.5t-25.5 76.5t-14 89t-6 92t-1.5 85.5v70.5q0 52 14.5 88t41.5 58.5t65.5 33t87.5 10.5q60 0 94.5 -26.5t34.5 -89.5q0 -58 -7.5 -117t-14.5 -117q-7 -57 -13 -115t-19 -115q-4 -21 -11 -40t-18.5 -34t-28.5 -23.5t-42 -8.5zM174 880
q0 -13 -6.5 -22.5t-16.5 -16t-22.5 -10t-23.5 -3.5q-26 0 -48 11t-22 42q0 29 17.5 47t46.5 18q30 0 52.5 -17t22.5 -49zM333 880q0 -13 -6.5 -22.5t-16.5 -16t-22 -10t-23 -3.5q-13 0 -26 2.5t-23 8.5t-16 16.5t-6 25.5q0 29 18 47t47 18q30 0 52 -17t22 -49z" />
    <glyph glyph-name="eth" unicode="&#xf0;" horiz-adv-x="683" 
d="M109 665q0 29 13 47.5t33.5 29t45 15t47.5 4.5q36 0 73.5 -7.5t73.5 -22t69 -34.5t58 -46q17 4 34 7t34 3q12 0 26 -3t26 -9t19.5 -16.5t7.5 -25.5t-7 -26t-17.5 -19t-23.5 -13.5t-25 -10.5q28 -58 40.5 -117.5t12.5 -123.5q0 -88 -25.5 -148.5t-72.5 -97t-113.5 -52.5
t-147.5 -16q-56 0 -106.5 13t-89 41.5t-61 72.5t-22.5 106q0 48 20 87.5t53 67.5t75.5 43.5t88.5 15.5q49 0 97.5 -14t88.5 -43q-2 28 -10.5 55t-21.5 52q-21 -5 -43.5 -11.5t-45.5 -12.5t-46 -10.5t-44 -4.5q-12 0 -28 3.5t-30 10.5t-23.5 18t-9.5 26q0 18 14 31t34 21.5
t41 14t34 9.5q15 5 29.5 9.5t29.5 9.5q-16 7 -50 10.5t-68.5 9.5t-60.5 17t-26 34zM382 207q0 12 -6 19.5t-15 12.5t-19.5 7t-19.5 2q-20 0 -39 -9.5t-19 -33.5q0 -23 15.5 -36t38.5 -13t43.5 12.5t20.5 38.5z" />
    <glyph glyph-name="ntilde" unicode="&#xf1;" horiz-adv-x="735" 
d="M324 102q0 -27 -13.5 -46t-34.5 -31.5t-45.5 -18.5t-46.5 -6q-32 0 -62 29.5t-52.5 84.5t-36 133t-13.5 175q0 48 5.5 100.5t21.5 96.5t45 72.5t76 28.5q36 0 63.5 -10t47.5 -24.5t33 -31.5t21 -31q5 -8 17.5 -33.5t27.5 -52.5t29 -48.5t20 -21.5q7 0 8 9t1 14
q0 28 -3 55t-3 55q0 26 14 46t35 34t46 21.5t47 7.5q54 0 85 -29.5t37 -82.5q7 -60 10.5 -120.5t3.5 -120.5q0 -36 -4.5 -78.5t-14.5 -84.5t-25.5 -81.5t-37 -69.5t-49 -48t-62.5 -18q-30 0 -52.5 17.5t-38.5 44t-27.5 57.5t-21 57.5t-18 44t-18.5 17.5q-3 0 -5.5 -9
t-4.5 -24t-3.5 -35.5t-1.5 -43.5zM535 937q17 0 29 -9t12 -28q0 -21 -15.5 -44.5t-38 -43t-48 -32.5t-45.5 -13q-18 0 -32.5 7t-28 15.5t-25.5 15.5t-24 7q-11 0 -22.5 -9t-25 -20.5t-29.5 -20.5t-37 -9q-19 0 -32 10.5t-13 30.5t15 45t36.5 48t46.5 38.5t44 15.5
q18 0 33 -9t27.5 -20.5t23.5 -20.5t23 -9q6 0 19.5 8.5t30.5 19t37 19t39 8.5z" />
    <glyph glyph-name="ograve" unicode="&#xf2;" horiz-adv-x="775" 
d="M386 700q83 0 151 -25t116 -72t74.5 -114t26.5 -151q0 -74 -28.5 -141.5t-78 -118.5t-115.5 -81t-141 -30q-77 0 -144.5 25t-118 71t-79.5 111t-29 144q0 80 26.5 150t74.5 121.5t115.5 81t149.5 29.5zM299 279q0 -42 23.5 -67.5t58.5 -25.5q19 0 36.5 9.5t31 24.5
t21.5 34t8 37q0 17 -8 31.5t-21 25t-29 17t-31 6.5q-38 0 -64 -25t-26 -67zM259 884q0 18 8.5 30.5t22 20t29.5 11t31 3.5q17 0 26 -2.5t22 -14.5q3 -3 13 -17.5t23.5 -34t28 -42.5t26.5 -42.5t20 -33t8 -15.5q0 -8 -6 -14t-14 -9.5t-17.5 -5.5t-15.5 -2q-23 0 -58 17
t-67.5 42.5t-56 55t-23.5 53.5z" />
    <glyph glyph-name="oacute" unicode="&#xf3;" horiz-adv-x="775" 
d="M386 700q83 0 151 -25t116 -72t74.5 -114t26.5 -151q0 -74 -28.5 -141.5t-78 -118.5t-115.5 -81t-141 -30q-77 0 -144.5 25t-118 71t-79.5 111t-29 144q0 71 21 134.5t59.5 113t93 83t121.5 45.5q-15 3 -25 14.5t-10 27.5q0 6 6 21.5t15 35.5t20 42.5t21.5 42.5
t19.5 34.5t13 19.5q11 11 20 14.5t24 3.5q36 0 56.5 -25t20.5 -60q0 -25 -16 -50.5t-39 -48t-49.5 -40.5t-46.5 -28q10 1 20 1.5t21 0.5zM299 279q0 -42 23.5 -67.5t58.5 -25.5q19 0 36.5 9.5t31 24.5t21.5 34t8 37q0 17 -8 31.5t-21 25t-29 17t-31 6.5q-38 0 -64 -25
t-26 -67z" />
    <glyph glyph-name="ocircumflex" unicode="&#xf4;" horiz-adv-x="775" 
d="M386 700q83 0 151 -25t116 -72t74.5 -114t26.5 -151q0 -74 -28.5 -141.5t-78 -118.5t-115.5 -81t-141 -30q-77 0 -144.5 25t-118 71t-79.5 111t-29 144q0 80 26.5 150t74.5 121.5t115.5 81t149.5 29.5zM299 279q0 -42 23.5 -67.5t58.5 -25.5q19 0 36.5 9.5t31 24.5
t21.5 34t8 37q0 17 -8 31.5t-21 25t-29 17t-31 6.5q-38 0 -64 -25t-26 -67zM394 837q-10 -4 -19 -18.5t-22 -30.5t-32 -29t-51 -13q-10 0 -21.5 2t-22 7.5t-17.5 13.5t-7 20q0 7 3 13t7 11q16 23 35 47t41 43.5t48.5 32t57.5 12.5q23 0 54 -13.5t59 -34.5t47 -47t19 -51
q0 -23 -16.5 -36t-38.5 -13q-18 0 -35.5 8t-34 20.5t-30.5 27.5t-24 28z" />
    <glyph glyph-name="otilde" unicode="&#xf5;" horiz-adv-x="775" 
d="M386 700q83 0 151 -25t116 -72t74.5 -114t26.5 -151q0 -74 -28.5 -141.5t-78 -118.5t-115.5 -81t-141 -30q-77 0 -144.5 25t-118 71t-79.5 111t-29 144q0 80 26.5 150t74.5 121.5t115.5 81t149.5 29.5zM299 279q0 -42 23.5 -67.5t58.5 -25.5q19 0 36.5 9.5t31 24.5
t21.5 34t8 37q0 17 -8 31.5t-21 25t-29 17t-31 6.5q-38 0 -64 -25t-26 -67zM555 937q17 0 29 -9t12 -28q0 -21 -15.5 -44.5t-38 -43t-48 -32.5t-45.5 -13q-18 0 -32.5 7t-28 15.5t-25.5 15.5t-24 7q-11 0 -22.5 -9t-25 -20.5t-29.5 -20.5t-37 -9q-19 0 -32 10.5t-13 30.5
t15 45t36.5 48t46.5 38.5t44 15.5q18 0 33 -9t27.5 -20.5t23.5 -20.5t23 -9q6 0 19.5 8.5t30.5 19t37 19t39 8.5z" />
    <glyph glyph-name="odieresis" unicode="&#xf6;" horiz-adv-x="775" 
d="M386 700q83 0 151 -25t116 -72t74.5 -114t26.5 -151q0 -74 -28.5 -141.5t-78 -118.5t-115.5 -81t-141 -30q-77 0 -144.5 25t-118 71t-79.5 111t-29 144q0 80 26.5 150t74.5 121.5t115.5 81t149.5 29.5zM299 279q0 -42 23.5 -67.5t58.5 -25.5q19 0 36.5 9.5t31 24.5
t21.5 34t8 37q0 17 -8 31.5t-21 25t-29 17t-31 6.5q-38 0 -64 -25t-26 -67zM378 880q0 -13 -6.5 -22.5t-16.5 -16t-22.5 -10t-23.5 -3.5q-26 0 -48 11t-22 42q0 29 17.5 47t46.5 18q30 0 52.5 -17t22.5 -49zM537 880q0 -13 -6.5 -22.5t-16.5 -16t-22 -10t-23 -3.5
q-13 0 -26 2.5t-23 8.5t-16 16.5t-6 25.5q0 29 18 47t47 18q30 0 52 -17t22 -49z" />
    <glyph glyph-name="divide" unicode="&#xf7;" horiz-adv-x="448" 
d="M312 549q0 -18 -8.5 -31.5t-22 -23.5t-29.5 -15t-32 -5q-38 0 -65.5 16.5t-27.5 59.5q0 41 22 68.5t65 27.5q45 0 71.5 -26t26.5 -71zM13 336q0 33 23 49t55 21.5t66 4.5t56 -1q34 0 67.5 1t67.5 1q16 0 31.5 -5.5t27.5 -16t19.5 -25t7.5 -31.5q0 -27 -15 -41t-36.5 -20
t-45.5 -6.5t-43 -0.5q-36 0 -72 -1t-71 -1q-17 0 -41 2t-45.5 9.5t-36.5 22t-15 38.5zM121 138q0 18 8.5 31.5t22 23.5t29.5 15t32 5q39 0 66 -17t27 -61q0 -40 -22.5 -67t-64.5 -27q-45 0 -71.5 26t-26.5 71z" />
    <glyph glyph-name="oslash" unicode="&#xf8;" horiz-adv-x="775" 
d="M386 700q21 0 41 -2t40 -5q15 26 40 46t57 20q29 0 51 -20t22 -49q0 -9 -2.5 -17.5t-6.5 -16.5q-3 -6 -5.5 -12t-5.5 -12q65 -47 101 -121t36 -173q0 -74 -28.5 -141.5t-78 -118.5t-115.5 -81t-141 -30q-41 0 -84 8q-21 -27 -46.5 -45t-57.5 -18q-29 0 -48.5 17.5
t-19.5 47.5q0 11 7 26.5t18 34.5q-64 46 -102 117.5t-38 162.5q0 80 26.5 150t74.5 121.5t115.5 81t149.5 29.5zM299 279q0 -42 23.5 -67.5t58.5 -25.5q19 0 36.5 9.5t31 24.5t21.5 34t8 37q0 17 -8 31.5t-21 25t-29 17t-31 6.5q-38 0 -64 -25t-26 -67z" />
    <glyph glyph-name="ugrave" unicode="&#xf9;" horiz-adv-x="672" 
d="M340 -3q-58 0 -103 14t-93 47q-38 27 -62.5 62.5t-38.5 76t-19 84.5t-5 88q0 57 6 116t19 116q6 24 20.5 41.5t34 29t43 17t45.5 5.5q42 0 70.5 -13.5t45 -37.5t23.5 -56t7 -70q0 -30 -2.5 -66t-5.5 -74t-5.5 -74t-2.5 -66q0 -9 1 -24t4.5 -29t11 -24.5t20.5 -10.5
q8 0 12.5 5.5t7.5 13t4 16t1 13.5q0 22 -1 51t-1.5 60t-1.5 60t-1 51q0 39 2.5 82.5t15.5 80t41.5 61t80.5 24.5q29 0 55 -11t42 -37q12 -19 19.5 -48.5t12 -62t6 -64t1.5 -54.5q0 -51 -7 -103t-22 -102q-15 -51 -42 -86.5t-63 -58t-80.5 -33t-95.5 -10.5zM207 884
q0 18 8.5 30.5t22 20t29.5 11t31 3.5q17 0 26 -2.5t22 -14.5q3 -3 13 -17.5t23.5 -34t28 -42.5t26.5 -42.5t20 -33t8 -15.5q0 -8 -6 -14t-14 -9.5t-17.5 -5.5t-15.5 -2q-23 0 -58 17t-67.5 42.5t-56 55t-23.5 53.5z" />
    <glyph glyph-name="uacute" unicode="&#xfa;" horiz-adv-x="672" 
d="M340 -3q-58 0 -103 14t-93 47q-38 27 -62.5 62.5t-38.5 76t-19 84.5t-5 88q0 57 6 116t19 116q6 24 20.5 41.5t34 29t43 17t45.5 5.5q42 0 70.5 -13.5t45 -37.5t23.5 -56t7 -70q0 -30 -2.5 -66t-5.5 -74t-5.5 -74t-2.5 -66q0 -9 1 -24t4.5 -29t11 -24.5t20.5 -10.5
q8 0 12.5 5.5t7.5 13t4 16t1 13.5q0 22 -1 51t-1.5 60t-1.5 60t-1 51q0 39 2.5 82.5t15.5 80t41.5 61t80.5 24.5q29 0 55 -11t42 -37q12 -19 19.5 -48.5t12 -62t6 -64t1.5 -54.5q0 -51 -7 -103t-22 -102q-15 -51 -42 -86.5t-63 -58t-80.5 -33t-95.5 -10.5zM272 693
q-18 0 -31 12.5t-13 30.5q0 6 6 21.5t15 35.5t20 42.5t21.5 42.5t19.5 34.5t13 19.5q11 11 20 14.5t24 3.5q36 0 56.5 -25t20.5 -60q0 -25 -15.5 -49.5t-38 -46.5t-48 -40t-45.5 -29q-7 -4 -12 -5.5t-13 -1.5z" />
    <glyph glyph-name="ucircumflex" unicode="&#xfb;" horiz-adv-x="672" 
d="M340 -3q-58 0 -103 14t-93 47q-38 27 -62.5 62.5t-38.5 76t-19 84.5t-5 88q0 57 6 116t19 116q6 24 20.5 41.5t34 29t43 17t45.5 5.5q42 0 70.5 -13.5t45 -37.5t23.5 -56t7 -70q0 -30 -2.5 -66t-5.5 -74t-5.5 -74t-2.5 -66q0 -9 1 -24t4.5 -29t11 -24.5t20.5 -10.5
q8 0 12.5 5.5t7.5 13t4 16t1 13.5q0 22 -1 51t-1.5 60t-1.5 60t-1 51q0 39 2.5 82.5t15.5 80t41.5 61t80.5 24.5q29 0 55 -11t42 -37q12 -19 19.5 -48.5t12 -62t6 -64t1.5 -54.5q0 -51 -7 -103t-22 -102q-15 -51 -42 -86.5t-63 -58t-80.5 -33t-95.5 -10.5zM343 837
q-10 -4 -19 -18.5t-22 -30.5t-32 -29t-51 -13q-10 0 -21.5 2t-22 7.5t-17.5 13.5t-7 20q0 7 3 13t7 11q16 23 35 47t41 43.5t48.5 32t57.5 12.5q23 0 54 -13.5t59 -34.5t47 -47t19 -51q0 -23 -16.5 -36t-38.5 -13q-18 0 -35.5 8t-34 20.5t-30.5 27.5t-24 28z" />
    <glyph glyph-name="udieresis" unicode="&#xfc;" horiz-adv-x="672" 
d="M340 -3q-58 0 -103 14t-93 47q-38 27 -62.5 62.5t-38.5 76t-19 84.5t-5 88q0 57 6 116t19 116q6 24 20.5 41.5t34 29t43 17t45.5 5.5q42 0 70.5 -13.5t45 -37.5t23.5 -56t7 -70q0 -30 -2.5 -66t-5.5 -74t-5.5 -74t-2.5 -66q0 -9 1 -24t4.5 -29t11 -24.5t20.5 -10.5
q8 0 12.5 5.5t7.5 13t4 16t1 13.5q0 22 -1 51t-1.5 60t-1.5 60t-1 51q0 39 2.5 82.5t15.5 80t41.5 61t80.5 24.5q29 0 55 -11t42 -37q12 -19 19.5 -48.5t12 -62t6 -64t1.5 -54.5q0 -51 -7 -103t-22 -102q-15 -51 -42 -86.5t-63 -58t-80.5 -33t-95.5 -10.5zM326 880
q0 -13 -6.5 -22.5t-16.5 -16t-22.5 -10t-23.5 -3.5q-26 0 -48 11t-22 42q0 29 17.5 47t46.5 18q30 0 52.5 -17t22.5 -49zM485 880q0 -13 -6.5 -22.5t-16.5 -16t-22 -10t-23 -3.5q-13 0 -26 2.5t-23 8.5t-16 16.5t-6 25.5q0 29 18 47t47 18q30 0 52 -17t22 -49z" />
    <glyph glyph-name="yacute" unicode="&#xfd;" horiz-adv-x="735" 
d="M561 716q35 0 66 -7.5t54 -23.5t36 -41t13 -59q0 -58 -18 -101t-45 -77t-58.5 -62.5t-58.5 -58t-45 -63t-18 -78.5q0 -37 -7.5 -67.5t-23 -52.5t-40 -34t-58.5 -12t-58.5 13t-40.5 36t-23.5 55t-7.5 70q0 42 -16.5 73t-41.5 58.5t-53.5 54.5t-53.5 61t-41.5 78.5
t-16.5 106.5q0 31 16.5 56.5t42 43.5t55.5 27.5t58 9.5q35 0 58 -4t38.5 -14.5t26 -28t19.5 -45.5q6 -17 11.5 -35t10.5 -36q1 -4 4 -17.5t7 -27.5t8 -25.5t7 -11.5q5 0 7 8t3 11q9 36 22 75t34 71.5t52 53t76 20.5zM304 693q-18 0 -31 12.5t-13 30.5q0 6 6 21.5t15 35.5
t20 42.5t21.5 42.5t19.5 34.5t13 19.5q11 11 20 14.5t24 3.5q36 0 56.5 -25t20.5 -60q0 -25 -15.5 -49.5t-38 -46.5t-48 -40t-45.5 -29q-7 -4 -12 -5.5t-13 -1.5z" />
    <glyph glyph-name="thorn" unicode="&#xfe;" horiz-adv-x="682" 
d="M11 355q0 82 11 150.5t34 118t60 77.5t89 28q51 0 77 -19.5t32 -45.5q4 -16 6 -32l3.5 -28t4 -19.5t6.5 -7.5q5 0 11.5 8.5t19.5 18.5t34.5 18.5t55.5 8.5q37 0 74.5 -12t68 -36.5t49.5 -61t19 -84.5q0 -86 -24 -140.5t-68 -86t-106 -43t-138 -11.5q-5 0 -14 -1.5
t-11 -6.5q-5 -12 -4 -28.5t2 -33.5t-0.5 -33.5t-11.5 -27.5q-17 -18 -39 -25t-46 -7q-41 0 -71.5 18.5t-52 48t-35.5 68t-22 79t-11 79t-3 69.5zM321 354q0 -9 3.5 -18.5t10.5 -17.5t17.5 -13.5t24.5 -5.5q19 0 31 8t19 20.5t10 27.5t3 30q0 11 -2.5 22.5t-9 21.5t-18 16.5
t-30.5 6.5t-30.5 -8t-18 -21.5t-8.5 -31.5t-2 -37z" />
    <glyph glyph-name="ydieresis" unicode="&#xff;" horiz-adv-x="735" 
d="M561 716q35 0 66 -7.5t54 -23.5t36 -41t13 -59q0 -58 -18 -101t-45 -77t-58.5 -62.5t-58.5 -58t-45 -63t-18 -78.5q0 -37 -7.5 -67.5t-23 -52.5t-40 -34t-58.5 -12t-58.5 13t-40.5 36t-23.5 55t-7.5 70q0 42 -16.5 73t-41.5 58.5t-53.5 54.5t-53.5 61t-41.5 78.5
t-16.5 106.5q0 31 16.5 56.5t42 43.5t55.5 27.5t58 9.5q35 0 58 -4t38.5 -14.5t26 -28t19.5 -45.5q6 -17 11.5 -35t10.5 -36q1 -4 4 -17.5t7 -27.5t8 -25.5t7 -11.5q5 0 7 8t3 11q9 36 22 75t34 71.5t52 53t76 20.5zM358 880q0 -13 -6.5 -22.5t-16.5 -16t-22.5 -10
t-23.5 -3.5q-26 0 -48 11t-22 42q0 29 17.5 47t46.5 18q30 0 52.5 -17t22.5 -49zM517 880q0 -13 -6.5 -22.5t-16.5 -16t-22 -10t-23 -3.5q-13 0 -26 2.5t-23 8.5t-16 16.5t-6 25.5q0 29 18 47t47 18q30 0 52 -17t22 -49z" />
    <glyph glyph-name="Dcroat" unicode="&#x110;" horiz-adv-x="689" 
d="M82 671q15 12 33 20t37.5 12t39.5 5.5t38 1.5q46 0 92 -6t90 -22q51 -19 98.5 -51t83.5 -75t58 -94.5t22 -108.5q0 -123 -56 -215.5t-174 -136.5q-31 -11 -63.5 -18t-65.5 -7q-76 0 -126 7.5t-81.5 32.5t-48.5 71.5t-28 125.5q-35 11 -60 31.5t-25 56.5q0 32 21.5 50.5
t52.5 26.5q0 27 1.5 69.5t7.5 86t18.5 81.5t34.5 56zM303 219q7 -16 16.5 -27t23.5 -11q21 0 38.5 10t29.5 25.5t19 35t7 38.5q0 21 -6 41.5t-18 37.5t-29.5 27.5t-40.5 10.5q-17 0 -28 -10.5t-17 -26.5q23 -10 38.5 -27.5t15.5 -45.5q0 -29 -13.5 -48t-35.5 -30z" />
    <glyph glyph-name="dcroat" unicode="&#x111;" horiz-adv-x="689" 
d="M82 671q15 12 33 20t37.5 12t39.5 5.5t38 1.5q46 0 92 -6t90 -22q51 -19 98.5 -51t83.5 -75t58 -94.5t22 -108.5q0 -123 -56 -215.5t-174 -136.5q-31 -11 -63.5 -18t-65.5 -7q-76 0 -126 7.5t-81.5 32.5t-48.5 71.5t-28 125.5q-35 11 -60 31.5t-25 56.5q0 32 21.5 50.5
t52.5 26.5q0 27 1.5 69.5t7.5 86t18.5 81.5t34.5 56zM303 219q7 -16 16.5 -27t23.5 -11q21 0 38.5 10t29.5 25.5t19 35t7 38.5q0 21 -6 41.5t-18 37.5t-29.5 27.5t-40.5 10.5q-17 0 -28 -10.5t-17 -26.5q23 -10 38.5 -27.5t15.5 -45.5q0 -29 -13.5 -48t-35.5 -30z" />
    <glyph glyph-name="dotlessi" unicode="&#x131;" horiz-adv-x="367" 
d="M196 -3q-29 0 -52 4t-46 24t-39 54.5t-25.5 76.5t-14 89t-6 92t-1.5 85.5v70.5q0 52 14.5 88t41.5 58.5t65.5 33t87.5 10.5q60 0 94.5 -26.5t34.5 -89.5q0 -58 -7.5 -117t-14.5 -117q-7 -57 -13 -115t-19 -115q-4 -21 -11 -40t-18.5 -34t-28.5 -23.5t-42 -8.5z" />
    <glyph glyph-name="Lslash" unicode="&#x141;" horiz-adv-x="528" 
d="M-15 215q-2 6 -3 13.5t-1 14.5q2 22 13.5 36t28.5 23q-1 20 -1.5 40t-0.5 41q0 57 5.5 120t27 116.5t64.5 88t118 34.5q61 0 94.5 -38t33.5 -97q0 -21 -4.5 -41t-10.5 -39.5t-12.5 -39.5t-10.5 -40q-1 -5 -2 -11t-2 -11q23 2 44 -5.5t31 -31.5q10 -22 5.5 -42
t-17.5 -36.5t-32 -29.5t-37 -22q4 -20 14 -35.5t32 -15.5q17 0 32 6.5t32 6.5q22 0 40 -14t30.5 -34.5t19.5 -43.5t7 -42q0 -31 -21.5 -51.5t-52.5 -32.5t-64 -16.5t-57 -4.5q-68 0 -117 13.5t-83 38t-54.5 60t-32.5 79.5q-18 3 -32.5 13t-23.5 30z" />
    <glyph glyph-name="lslash" unicode="&#x142;" horiz-adv-x="528" 
d="M-15 215q-2 6 -3 13.5t-1 14.5q2 22 13.5 36t28.5 23q-1 20 -1.5 40t-0.5 41q0 57 5.5 120t27 116.5t64.5 88t118 34.5q61 0 94.5 -38t33.5 -97q0 -21 -4.5 -41t-10.5 -39.5t-12.5 -39.5t-10.5 -40q-1 -5 -2 -11t-2 -11q23 2 44 -5.5t31 -31.5q10 -22 5.5 -42
t-17.5 -36.5t-32 -29.5t-37 -22q4 -20 14 -35.5t32 -15.5q17 0 32 6.5t32 6.5q22 0 40 -14t30.5 -34.5t19.5 -43.5t7 -42q0 -31 -21.5 -51.5t-52.5 -32.5t-64 -16.5t-57 -4.5q-68 0 -117 13.5t-83 38t-54.5 60t-32.5 79.5q-18 3 -32.5 13t-23.5 30z" />
    <glyph glyph-name="OE" unicode="&#x152;" horiz-adv-x="1140" 
d="M386 700q63 0 116.5 -14.5t97.5 -41.5q39 23 87.5 34.5t104.5 11.5h90q26 0 64.5 -4.5t74 -17.5t61 -35t25.5 -57q0 -27 -6.5 -52.5t-20.5 -45t-35.5 -31.5t-52.5 -12q-32 0 -63.5 4t-63.5 4q-9 0 -28 -1.5t-38 -6t-33.5 -12t-14.5 -20.5q0 -7 5.5 -12t13 -8t15.5 -4
t14 -1q38 0 77 3t77 3q13 0 28.5 -1t28.5 -5.5t22 -14.5t9 -28q0 -51 -24 -67.5t-72 -16.5h-157q-5 0 -13 -0.5t-15.5 -2.5t-12.5 -6t-5 -12q0 -13 15 -21.5t34.5 -13.5t39 -6.5t29.5 -1.5q44 0 86 6.5t85 13.5q5 1 11 1.5t11 0.5q22 0 35 -9.5t20 -24.5t9.5 -33t2.5 -35
q0 -19 -3 -33t-17 -28q-15 -13 -48 -23t-71 -17t-74 -10t-57 -3q-76 0 -141 6t-114 34q-44 -31 -95.5 -48.5t-108.5 -17.5q-77 0 -144.5 25t-118 71t-79.5 111t-29 144q0 80 26.5 150t74.5 121.5t115.5 81t149.5 29.5zM299 279q0 -42 23.5 -67.5t58.5 -25.5q19 0 36 9
t30.5 23.5t21.5 32.5t9 36q-1 5 -1.5 11t-1.5 11q-4 13 -13 24.5t-21 19.5t-25.5 13t-26.5 5q-38 0 -64 -25t-26 -67z" />
    <glyph glyph-name="oe" unicode="&#x153;" horiz-adv-x="1140" 
d="M386 700q63 0 116.5 -14.5t97.5 -41.5q39 23 87.5 34.5t104.5 11.5h90q26 0 64.5 -4.5t74 -17.5t61 -35t25.5 -57q0 -27 -6.5 -52.5t-20.5 -45t-35.5 -31.5t-52.5 -12q-32 0 -63.5 4t-63.5 4q-9 0 -28 -1.5t-38 -6t-33.5 -12t-14.5 -20.5q0 -7 5.5 -12t13 -8t15.5 -4
t14 -1q38 0 77 3t77 3q13 0 28.5 -1t28.5 -5.5t22 -14.5t9 -28q0 -51 -24 -67.5t-72 -16.5h-157q-5 0 -13 -0.5t-15.5 -2.5t-12.5 -6t-5 -12q0 -13 15 -21.5t34.5 -13.5t39 -6.5t29.5 -1.5q44 0 86 6.5t85 13.5q5 1 11 1.5t11 0.5q22 0 35 -9.5t20 -24.5t9.5 -33t2.5 -35
q0 -19 -3 -33t-17 -28q-15 -13 -48 -23t-71 -17t-74 -10t-57 -3q-76 0 -141 6t-114 34q-44 -31 -95.5 -48.5t-108.5 -17.5q-77 0 -144.5 25t-118 71t-79.5 111t-29 144q0 80 26.5 150t74.5 121.5t115.5 81t149.5 29.5zM299 279q0 -42 23.5 -67.5t58.5 -25.5q19 0 36 9
t30.5 23.5t21.5 32.5t9 36q-1 5 -1.5 11t-1.5 11q-4 13 -13 24.5t-21 19.5t-25.5 13t-26.5 5q-38 0 -64 -25t-26 -67z" />
    <glyph glyph-name="Scaron" unicode="&#x160;" horiz-adv-x="620" 
d="M315 146q11 0 23 4.5t12 18.5q0 16 -24 26.5t-60 23t-78 30t-78 45.5t-60 69.5t-24 103.5q0 55 20 99t54 75t79.5 47.5t96.5 16.5q63 0 129.5 -13.5t121.5 -44.5q35 -20 51 -50t16 -69q0 -26 -8 -52t-23 -47t-36.5 -34t-48.5 -13q-29 0 -59 11.5t-58 25t-52.5 24.5
t-43.5 11q-8 0 -14 -5t-6 -14q0 -19 26.5 -30t66 -20.5t86 -21.5t86 -33t66 -55t26.5 -88q0 -61 -25 -99.5t-69 -59.5t-104 -28.5t-130 -7.5q-37 0 -81.5 3.5t-83.5 18t-65 42.5t-26 77q0 31 16.5 56.5t51.5 25.5q22 0 49.5 -11t57.5 -23.5t61 -23.5t61 -11zM441 940
q22 0 38.5 -13t16.5 -36q0 -25 -19 -51t-47 -47t-59 -34.5t-54 -13.5q-31 0 -57.5 12.5t-48.5 32t-41 43.5t-35 47q-4 5 -7 11t-3 13q0 12 7 20t17.5 13.5t22 7.5t21.5 2q31 0 52 -14t35 -31t22.5 -31.5t14.5 -14.5q10 14 24 28.5t30.5 27t34.5 20.5t35 8z" />
    <glyph glyph-name="scaron" unicode="&#x161;" horiz-adv-x="620" 
d="M315 146q11 0 23 4.5t12 18.5q0 16 -24 26.5t-60 23t-78 30t-78 45.5t-60 69.5t-24 103.5q0 55 20 99t54 75t79.5 47.5t96.5 16.5q63 0 129.5 -13.5t121.5 -44.5q35 -20 51 -50t16 -69q0 -26 -8 -52t-23 -47t-36.5 -34t-48.5 -13q-29 0 -59 11.5t-58 25t-52.5 24.5
t-43.5 11q-8 0 -14 -5t-6 -14q0 -19 26.5 -30t66 -20.5t86 -21.5t86 -33t66 -55t26.5 -88q0 -61 -25 -99.5t-69 -59.5t-104 -28.5t-130 -7.5q-37 0 -81.5 3.5t-83.5 18t-65 42.5t-26 77q0 31 16.5 56.5t51.5 25.5q22 0 49.5 -11t57.5 -23.5t61 -23.5t61 -11zM441 940
q22 0 38.5 -13t16.5 -36q0 -25 -19 -51t-47 -47t-59 -34.5t-54 -13.5q-31 0 -57.5 12.5t-48.5 32t-41 43.5t-35 47q-4 5 -7 11t-3 13q0 12 7 20t17.5 13.5t22 7.5t21.5 2q31 0 52 -14t35 -31t22.5 -31.5t14.5 -14.5q10 14 24 28.5t30.5 27t34.5 20.5t35 8z" />
    <glyph glyph-name="Ydieresis" unicode="&#x178;" horiz-adv-x="735" 
d="M561 716q35 0 66 -7.5t54 -23.5t36 -41t13 -59q0 -58 -18 -101t-45 -77t-58.5 -62.5t-58.5 -58t-45 -63t-18 -78.5q0 -37 -7.5 -67.5t-23 -52.5t-40 -34t-58.5 -12t-58.5 13t-40.5 36t-23.5 55t-7.5 70q0 42 -16.5 73t-41.5 58.5t-53.5 54.5t-53.5 61t-41.5 78.5
t-16.5 106.5q0 31 16.5 56.5t42 43.5t55.5 27.5t58 9.5q35 0 58 -4t38.5 -14.5t26 -28t19.5 -45.5q6 -17 11.5 -35t10.5 -36q1 -4 4 -17.5t7 -27.5t8 -25.5t7 -11.5q5 0 7 8t3 11q9 36 22 75t34 71.5t52 53t76 20.5zM358 880q0 -13 -6.5 -22.5t-16.5 -16t-22.5 -10
t-23.5 -3.5q-26 0 -48 11t-22 42q0 29 17.5 47t46.5 18q30 0 52.5 -17t22.5 -49zM517 880q0 -13 -6.5 -22.5t-16.5 -16t-22 -10t-23 -3.5q-13 0 -26 2.5t-23 8.5t-16 16.5t-6 25.5q0 29 18 47t47 18q30 0 52 -17t22 -49z" />
    <glyph glyph-name="Zcaron" unicode="&#x17d;" horiz-adv-x="670" 
d="M236 403q0 7 -9.5 8t-14.5 1q-23 0 -44.5 -5.5t-44.5 -5.5q-27 0 -47 16t-33.5 40t-20.5 51.5t-7 49.5q0 54 22 82t56.5 41.5t76 16.5t81.5 7q62 6 122 6q39 0 81.5 -3t77.5 -16.5t57.5 -42.5t22.5 -81q0 -46 -17.5 -88t-44 -81t-57.5 -74.5t-58 -68.5q-10 -12 -22 -23.5
t-20 -25.5q3 -4 9 -4q35 0 69 7t69 7q23 0 45.5 -6t40 -17.5t28.5 -28.5t11 -40q0 -45 -23 -69.5t-57.5 -35.5t-74 -13.5t-72.5 -4.5q-48 -3 -95 -3q-20 0 -52 1t-68.5 4.5t-73.5 11.5t-67 21.5t-48.5 33.5t-18.5 49q0 27 16.5 55.5t41 57t53 55.5t53 49.5t41 39.5t16.5 26z
M466 940q22 0 38.5 -13t16.5 -36q0 -25 -19 -51t-47 -47t-59 -34.5t-54 -13.5q-31 0 -57.5 12.5t-48.5 32t-41 43.5t-35 47q-4 5 -7 11t-3 13q0 12 7 20t17.5 13.5t22 7.5t21.5 2q31 0 52 -14t35 -31t22.5 -31.5t14.5 -14.5q10 14 24 28.5t30.5 27t34.5 20.5t35 8z" />
    <glyph glyph-name="zcaron" unicode="&#x17e;" horiz-adv-x="670" 
d="M236 403q0 7 -9.5 8t-14.5 1q-23 0 -44.5 -5.5t-44.5 -5.5q-27 0 -47 16t-33.5 40t-20.5 51.5t-7 49.5q0 54 22 82t56.5 41.5t76 16.5t81.5 7q62 6 122 6q39 0 81.5 -3t77.5 -16.5t57.5 -42.5t22.5 -81q0 -46 -17.5 -88t-44 -81t-57.5 -74.5t-58 -68.5q-10 -12 -22 -23.5
t-20 -25.5q3 -4 9 -4q35 0 69 7t69 7q23 0 45.5 -6t40 -17.5t28.5 -28.5t11 -40q0 -45 -23 -69.5t-57.5 -35.5t-74 -13.5t-72.5 -4.5q-48 -3 -95 -3q-20 0 -52 1t-68.5 4.5t-73.5 11.5t-67 21.5t-48.5 33.5t-18.5 49q0 27 16.5 55.5t41 57t53 55.5t53 49.5t41 39.5t16.5 26z
M466 940q22 0 38.5 -13t16.5 -36q0 -25 -19 -51t-47 -47t-59 -34.5t-54 -13.5q-31 0 -57.5 12.5t-48.5 32t-41 43.5t-35 47q-4 5 -7 11t-3 13q0 12 7 20t17.5 13.5t22 7.5t21.5 2q31 0 52 -14t35 -31t22.5 -31.5t14.5 -14.5q10 14 24 28.5t30.5 27t34.5 20.5t35 8z" />
    <glyph glyph-name="florin" unicode="&#x192;" horiz-adv-x="678" 
d="M368 142q0 -52 -11 -92.5t-37 -68.5t-70.5 -42t-110.5 -14q-27 0 -58.5 3.5t-58 12t-44 23t-17.5 36.5q0 19 3.5 34t17 25.5t40 16t71.5 5.5q28 0 37.5 23.5t8.5 61.5q0 20 -6.5 23.5t-14.5 3.5q-19 0 -36.5 3t-31.5 9.5t-22.5 17.5t-8.5 27v24q0 22 7 34.5t17 19t20.5 8
t17.5 1.5q24 0 32.5 11t6.5 32q0 6 -2.5 14.5t-5.5 24.5t-5 41t-2 64q0 100 69 156t212 56h36q26 0 66 -5t77.5 -17.5t64.5 -35t27 -57.5q0 -27 -6.5 -54.5t-20.5 -49.5t-35.5 -36t-52.5 -14q-28 0 -55.5 4t-55.5 4q-12 0 -26.5 -5t-27 -15t-21 -26t-8.5 -38q0 -27 21 -36.5
t66 -9.5q19 0 39.5 -1.5t38 -8t29 -19t11.5 -34.5v-24q0 -19 -14 -30.5t-35.5 -17.5t-48 -7.5t-50.5 -1.5q-4 0 -11 -2t-13.5 -8.5t-10.5 -18t-2 -30.5z" />
    <glyph glyph-name="circumflex" unicode="&#x2c6;" horiz-adv-x="398" 
d="M205 637q-10 -4 -19 -18.5t-22 -30.5t-32 -29t-51 -13q-10 0 -21.5 2t-22 7.5t-17.5 13.5t-7 20q0 7 3 13t7 11q16 23 35 47t41 43.5t48.5 32t57.5 12.5q23 0 54 -13.5t59 -34.5t47 -47t19 -51q0 -23 -16.5 -36t-38.5 -13q-18 0 -35.5 8t-34 20.5t-30.5 27.5t-24 28z" />
    <glyph glyph-name="caron" unicode="&#x2c7;" horiz-adv-x="398" 
d="M329 740q22 0 38.5 -13t16.5 -36q0 -25 -19 -51t-47 -47t-59 -34.5t-54 -13.5q-31 0 -57.5 12.5t-48.5 32t-41 43.5t-35 47q-4 5 -7 11t-3 13q0 12 7 20t17.5 13.5t22 7.5t21.5 2q31 0 52 -14t35 -31t22.5 -31.5t14.5 -14.5q10 14 24 28.5t30.5 27t34.5 20.5t35 8z" />
    <glyph glyph-name="breve" unicode="&#x2d8;" horiz-adv-x="389" 
d="M327 747q19 0 33 -14.5t14 -33.5q0 -28 -20.5 -54t-49.5 -46t-62 -31.5t-58 -11.5q-56 0 -101 33t-66 84q-4 9 -4 20q0 23 16 38.5t39 15.5t36 -12.5t24 -28t25 -28t38 -12.5q27 0 44.5 12.5t31.5 28t27.5 28t32.5 12.5z" />
    <glyph glyph-name="dotaccent" unicode="&#x2d9;" horiz-adv-x="173" 
d="M159 671q0 -14 -6.5 -25t-17 -18.5t-23.5 -11t-26 -3.5q-29 0 -52 12.5t-23 46.5q0 32 18 53t51 21q35 0 57 -20t22 -55z" />
    <glyph glyph-name="ring" unicode="&#x2da;" horiz-adv-x="258" 
d="M246 616q0 -21 -10 -38.5t-26 -30t-36 -20t-39 -7.5q-26 0 -48.5 4.5t-39 16t-26 31t-9.5 48.5q0 24 7 47t20.5 40t33.5 27.5t47 10.5q58 0 92 -36t34 -93zM152 661q-18 0 -26 -12.5t-8 -29.5q0 -35 38 -35q14 0 23.5 9.5t9.5 23.5q0 17 -8.5 30.5t-28.5 13.5z" />
    <glyph glyph-name="ogonek" unicode="&#x2db;" horiz-adv-x="259" 
d="M117 -231q-22 0 -42 7.5t-35 21t-23.5 33t-8.5 42.5q0 27 10 50t26 42t37.5 34t43.5 25l59 -16q-20 -14 -36.5 -35.5t-16.5 -46.5q0 -20 17 -35.5t36 -15.5q11 0 20.5 5.5t17 12.5t13.5 12.5t9 5.5q2 0 3 -3.5t1 -5.5q0 -27 -10.5 -51t-28 -42t-41.5 -29t-51 -11z" />
    <glyph glyph-name="tilde" unicode="&#x2dc;" horiz-adv-x="440" 
d="M387 737q17 0 29 -9t12 -28q0 -21 -15.5 -44.5t-38 -43t-48 -32.5t-45.5 -13q-18 0 -32.5 7t-28 15.5t-25.5 15.5t-24 7q-11 0 -22.5 -9t-25 -20.5t-29.5 -20.5t-37 -9q-19 0 -32 10.5t-13 30.5t15 45t36.5 48t46.5 38.5t44 15.5q18 0 33 -9t27.5 -20.5t23.5 -20.5t23 -9
q6 0 19.5 8.5t30.5 19t37 19t39 8.5z" />
    <glyph glyph-name="hungarumlaut" unicode="&#x2dd;" horiz-adv-x="466" 
d="M271 493q-18 0 -31 12.5t-13 30.5q0 11 12.5 40t29.5 61t34 59.5t26 35.5q11 11 21 14.5t26 3.5q35 0 56.5 -25t21.5 -58q0 -24 -17.5 -49.5t-42 -48t-51.5 -40.5t-47 -29q-7 -4 -12 -5.5t-13 -1.5zM59 493q-18 0 -31 12.5t-13 30.5q0 11 12.5 40t29.5 61t34 59.5
t26 35.5q11 11 21 14.5t26 3.5q35 0 56.5 -25t21.5 -58q0 -24 -17.5 -49.5t-42 -48t-51.5 -40.5t-47 -29q-7 -4 -12 -5.5t-13 -1.5z" />
    <glyph glyph-name="uni03BC" unicode="&#x3bc;" horiz-adv-x="678" 
d="M350 -3q-24 0 -38 8.5t-19 8.5q-2 0 -2 -3q0 -28 -2 -61t-12 -62t-30.5 -48.5t-57.5 -19.5q-29 0 -52 4t-46 24t-37.5 58.5t-22.5 86.5t-11 101.5t-3 105t1 96t1 73.5q0 57 6 116t19 116q6 24 20.5 41.5t34 29t43 17t45.5 5.5q42 0 70.5 -13.5t45 -37.5t23.5 -56t7 -70
q0 -30 -1 -66t-2 -74t-2 -74t-1 -66q0 -9 -0.5 -24t1 -29t7.5 -24.5t19 -10.5q8 0 12.5 5.5t7.5 13t4 16t1 13.5q0 22 -1 51t-1.5 60t-1.5 60t-1 51q0 39 2.5 82.5t15.5 80t41.5 61t80.5 24.5q29 0 55 -11t42 -37q12 -19 19.5 -48.5t12 -62t6 -64t1.5 -54.5q0 -39 2 -94.5
t-0.5 -113.5t-13 -110t-35.5 -84q-13 -16 -28.5 -22t-38.5 -6q-35 0 -65.5 8t-46.5 37q-4 7 -11 7q-10 0 -25 -7.5t-38 -7.5z" />
    <glyph glyph-name="endash" unicode="&#x2013;" horiz-adv-x="473" 
d="M14 366q0 13 7 27q9 19 24.5 27t33 10t36.5 0.5t36 -1.5q50 0 98.5 2t98.5 2q17 0 36.5 -3.5t36.5 -12t28.5 -22.5t11.5 -35q0 -28 -15.5 -45t-38.5 -26.5t-48.5 -12.5t-46.5 -3q-24 0 -48 1l-48 2t-58.5 2t-66.5 9t-54.5 26t-22.5 53z" />
    <glyph glyph-name="emdash" unicode="&#x2014;" horiz-adv-x="921" 
d="M4 366q0 22 10 35t25 19.5t33 8.5t35 2q29 0 56.5 -1t55.5 -1q137 0 271.5 2t271.5 2q21 0 47 -6t48.5 -18t38 -30.5t15.5 -44.5q0 -22 -12.5 -34.5t-30.5 -18.5t-38.5 -7.5t-36.5 -1.5q-160 0 -318.5 2t-318.5 2q-21 0 -47 4t-49.5 14.5t-39.5 27.5t-16 44z" />
    <glyph glyph-name="quoteleft" unicode="&#x2018;" horiz-adv-x="228" 
d="M165 730q8 0 17 -2t17 -6.5t13.5 -11.5t5.5 -17q0 -23 -8.5 -46.5t-12.5 -46.5q-4 -24 -7.5 -53t-12.5 -54t-26.5 -41.5t-50.5 -16.5q-38 0 -62.5 24t-24.5 62q0 23 14.5 58t36.5 69t49 58t52 24z" />
    <glyph glyph-name="quoteright" unicode="&#x2019;" horiz-adv-x="225" 
d="M70 430q-17 0 -34.5 9.5t-17.5 29.5q0 23 3.5 45t5.5 45q2 15 4 38.5t6.5 47.5t13 44.5t22.5 28.5q11 7 23 9.5t25 2.5q40 0 65 -23t25 -64q0 -23 -12.5 -59t-32.5 -70.5t-45 -59t-51 -24.5z" />
    <glyph glyph-name="quotesinglbase" unicode="&#x201a;" horiz-adv-x="237" 
d="M70 -94q-7 0 -17 2t-18.5 6t-14.5 11t-6 16q0 4 3.5 15.5t8.5 25.5t9.5 27.5t5.5 20.5q5 23 7 54.5t10 60t24.5 48.5t49.5 20q38 0 64 -25t26 -63q0 -26 -10.5 -55t-26.5 -57t-35.5 -52t-38.5 -41q-9 -8 -19 -11t-22 -3z" />
    <glyph glyph-name="quotedblleft" unicode="&#x201c;" horiz-adv-x="439" 
d="M175 746q8 0 18 -2.5t19 -7t15 -11.5t6 -16q0 -2 -4 -14t-9.5 -26.5t-10 -28l-6.5 -19.5q-4 -15 -8 -40.5t-11 -51.5t-16.5 -47.5t-23.5 -29.5q-18 -9 -38 -9q-18 0 -34.5 6.5t-29 18.5t-20 28t-7.5 34q0 24 15 60.5t38.5 71t52 59.5t54.5 25zM373 732q15 0 31.5 -9
t16.5 -27q0 -23 -7 -46.5t-10 -46.5q-3 -24 -5.5 -53t-11 -54.5t-26.5 -43t-51 -17.5q-36 0 -59.5 24.5t-23.5 60.5q0 22 13.5 57.5t34.5 70t47 59.5t51 25z" />
    <glyph glyph-name="quotedblright" unicode="&#x201d;" horiz-adv-x="421" 
d="M257 426q-7 0 -17 2t-18.5 6t-14.5 11t-6 16q0 4 3.5 15.5t8.5 25.5t9.5 27.5t5.5 20.5q5 23 7 54.5t10 60t24.5 48.5t49.5 20q38 0 64 -25t26 -63q0 -26 -10.5 -55t-26.5 -57t-35.5 -52t-38.5 -41q-9 -8 -19 -11t-22 -3zM58 430q-14 0 -31 8.5t-17 25.5q0 23 5.5 47
t7.5 47q2 25 3 55t8.5 56t25 43.5t53.5 17.5q38 0 61.5 -24.5t23.5 -62.5q0 -22 -12.5 -58t-32 -70.5t-44.5 -59.5t-51 -25z" />
    <glyph glyph-name="quotedblbase" unicode="&#x201e;" horiz-adv-x="416" 
d="M257 -94q-7 0 -17 2t-18.5 6t-14.5 11t-6 16q0 4 3.5 15.5t8.5 25.5t9.5 27.5t5.5 20.5q5 23 7 54.5t10 60t24.5 48.5t49.5 20q38 0 64 -25t26 -63q0 -26 -10.5 -55t-26.5 -57t-35.5 -52t-38.5 -41q-9 -8 -19 -11t-22 -3zM58 -90q-14 0 -31 8.5t-17 25.5q0 23 5.5 47
t7.5 47q2 25 3 55t8.5 56t25 43.5t53.5 17.5q38 0 61.5 -24.5t23.5 -62.5q0 -22 -12.5 -58t-32 -70.5t-44.5 -59.5t-51 -25z" />
    <glyph glyph-name="dagger" unicode="&#x2020;" horiz-adv-x="441" 
d="M239 731q22 0 35 -9t20 -23t9 -31.5t2 -34.5q0 -29 -1.5 -58t-1.5 -58v-5q23 -3 45.5 -8.5t40.5 -16t29 -26.5t11 -39q0 -26 -11 -43.5t-29 -29t-40.5 -17.5t-44.5 -8q1 -88 2 -175t1 -175q0 -21 -6 -47t-18 -48.5t-30.5 -38t-44.5 -15.5q-22 0 -34.5 13t-18.5 31.5
t-7.5 39.5t-1.5 37q0 97 0.5 191.5t1.5 191.5q-24 4 -46.5 11t-40 18.5t-28 28t-10.5 39.5t11 38t29 25t40.5 15.5t44.5 7.5q0 25 1 62t9.5 72t27 60t54.5 25z" />
    <glyph glyph-name="daggerdbl" unicode="&#x2021;" horiz-adv-x="454" 
d="M239 731q22 0 35 -9t20 -23t9 -31.5t2 -34.5q0 -29 -1.5 -58t-1.5 -58v-5q23 -3 45.5 -8.5t40.5 -16t29 -26.5t11 -39q0 -26 -11 -43.5t-29 -29t-40.5 -17.5t-44.5 -8q1 -45 1 -90.5t1 -90.5q23 -3 45 -8.5t39.5 -16t28 -26t10.5 -38.5q0 -26 -11 -43.5t-28.5 -29
t-39.5 -17.5t-44 -8q-2 -21 -9 -44t-19 -42.5t-29.5 -32t-40.5 -12.5q-22 0 -34.5 13t-18.5 31.5t-7.5 39.5t-1.5 37v15q-24 4 -46 11t-39.5 18.5t-27.5 28t-10 39.5t11 38t28.5 25t40 15.5t44.5 7.5q0 47 0.5 92.5t0.5 92.5q-24 4 -46.5 11t-40 18.5t-28 28t-10.5 39.5
t11 38t29 25t40.5 15.5t44.5 7.5q0 25 1 62t9.5 72t27 60t54.5 25z" />
    <glyph glyph-name="bullet" unicode="&#x2022;" horiz-adv-x="243" 
d="M13 419q0 20 9 38t23.5 31.5t33 21t38.5 7.5q52 0 82.5 -22t30.5 -78q0 -24 -6.5 -46t-19.5 -39t-32.5 -27t-45.5 -10q-55 0 -84 36t-29 88z" />
    <glyph glyph-name="ellipsis" unicode="&#x2026;" horiz-adv-x="1035" 
d="M24 134q0 27 13 48.5t33.5 36t45.5 22.5t49 8q30 0 56 -6t45.5 -20.5t30.5 -37.5t11 -56q0 -30 -9 -56.5t-26 -46t-42 -30.5t-57 -11q-68 0 -109 40t-41 109zM369 134q0 27 13 48.5t33.5 36t45.5 22.5t49 8q30 0 56 -6t45.5 -20.5t30.5 -37.5t11 -56q0 -30 -9 -56.5
t-26 -46t-42 -30.5t-57 -11q-68 0 -109 40t-41 109zM714 134q0 27 13 48.5t33.5 36t45.5 22.5t49 8q30 0 56 -6t45.5 -20.5t30.5 -37.5t11 -56q0 -30 -9 -56.5t-26 -46t-42 -30.5t-57 -11q-68 0 -109 40t-41 109z" />
    <glyph glyph-name="perthousand" unicode="&#x2030;" horiz-adv-x="1228" 
d="M630 153q0 -25 14.5 -36t37.5 -11t34.5 18t11.5 38t-11.5 29.5t-30.5 9.5q-23 0 -39.5 -11.5t-16.5 -36.5zM1013 153q0 -25 14.5 -36t37.5 -11t34.5 18t11.5 38t-11.5 29.5t-30.5 9.5q-23 0 -39.5 -11.5t-16.5 -36.5zM170 523q0 -23 12.5 -35t35.5 -12q25 0 37.5 16.5
t12.5 39.5q0 20 -11.5 29.5t-30.5 9.5q-23 0 -39.5 -11.5t-16.5 -36.5zM18 532q0 41 12.5 74.5t36 58.5t56.5 38.5t74 13.5q84 0 130 -49.5t46 -131.5q0 -37 -13.5 -69.5t-37.5 -57t-56 -38.5t-69 -14q-40 0 -73 12t-56.5 35t-36.5 55.5t-13 72.5zM624 702q28 0 46 -20.5
t18 -47.5q0 -26 -16 -48q-31 -46 -62.5 -91t-62.5 -92q-56 -84 -110.5 -168t-112.5 -167q-19 -26 -45.5 -46t-60.5 -20q-27 0 -46 15.5t-19 44.5q0 15 5 28.5t13 26.5q23 40 50 78t53 76q62 90 122.5 178.5t122.5 178.5q9 13 20 26.5t24 24t28.5 17t32.5 6.5zM478 162
q0 41 12.5 74.5t36 58.5t56.5 38.5t74 13.5q84 0 130 -49.5t46 -131.5q0 -36 -13 -68t-36.5 -57t-55 -39.5t-67.5 -14.5q-82 0 -132.5 45t-50.5 130zM861 162q0 41 12.5 74.5t36 58.5t56.5 38.5t74 13.5q84 0 130 -49.5t46 -131.5q0 -36 -13 -68t-36.5 -57t-55 -39.5
t-67.5 -14.5q-82 0 -132.5 45t-50.5 130z" />
    <glyph glyph-name="guilsinglleft" unicode="&#x2039;" horiz-adv-x="354" 
d="M338 207q0 -13 -2 -27t-7.5 -25t-15 -18t-25.5 -7q-28 0 -62.5 5.5t-68 17t-62 28.5t-43.5 40q-32 47 -32 104q0 28 16.5 59t46 60t69 52.5t84.5 35.5q17 5 30 5q39 0 50.5 -17.5t11.5 -52.5q0 -19 -14 -34t-35 -27t-45.5 -22.5t-45.5 -21.5t-35 -24t-14 -30q0 -5 5.5 -7
t8.5 -3q29 -9 61.5 -17.5t60 -18.5t45.5 -23t18 -32z" />
    <glyph glyph-name="guilsinglright" unicode="&#x203a;" horiz-adv-x="348" 
d="M10 460q0 14 2 27.5t7.5 24.5t15 18t25.5 7q28 0 62.5 -5.5t68 -17t62 -28.5t43.5 -40q32 -47 32 -104q0 -28 -16.5 -59t-46 -60t-69 -52.5t-84.5 -35.5q-17 -5 -30 -5q-39 0 -50.5 17.5t-11.5 52.5q0 20 14 34.5t35 26.5t45.5 22.5t45.5 22t35 24t14 29.5q0 5 -5.5 7
t-8.5 3q-29 9 -61.5 17.5t-60 18.5t-45.5 23t-18 32z" />
    <glyph glyph-name="fraction" unicode="&#x2044;" horiz-adv-x="555" 
d="M485 702q28 0 46 -20.5t18 -47.5q0 -26 -16 -48q-31 -46 -62.5 -91t-62.5 -92q-56 -84 -110.5 -168t-112.5 -167q-19 -26 -45.5 -46t-60.5 -20q-27 0 -46 15.5t-19 44.5q0 15 5 28.5t13 26.5q23 40 50 78t53 76q62 90 122.5 178.5t122.5 178.5q9 13 20 26.5t24 24
t28.5 17t32.5 6.5z" />
    <glyph glyph-name="Euro" unicode="&#x20ac;" horiz-adv-x="816" 
d="M483 708q61 0 118 -15q19 -5 49 -17t58 -29.5t48 -38.5t20 -45q0 -15 -7.5 -28.5t-19 -24.5t-26 -17.5t-28.5 -6.5q-28 0 -55.5 9t-56 19.5t-57.5 19t-60 8.5q-42 0 -76.5 -15.5t-58.5 -50.5h45q14 0 45.5 -0.5t63.5 -6t56 -17t24 -32.5q0 -18 -16.5 -30t-42.5 -19
t-57.5 -10t-61 -3.5t-54 0t-36.5 0.5l2 -36q16 0 32 0.5t32 0.5q14 0 46 -0.5t64.5 -6t57.5 -17t25 -33.5q0 -17 -12.5 -28.5t-32 -18t-43.5 -9.5t-47 -4t-43 -0.5t-31 0.5q28 -32 67.5 -48t81.5 -16q38 0 70 17t60 37.5t53.5 37.5t49.5 17q29 0 50 -21t21 -50
q0 -28 -27.5 -58t-65.5 -56t-78 -44.5t-65 -23.5q-22 -5 -43.5 -6.5t-44.5 -1.5q-55 0 -109 14.5t-100.5 43t-82 70.5t-53.5 96q-11 2 -31 5.5t-39.5 10t-33.5 17t-14 25.5q0 12 12 20.5t28 13t32.5 7t25.5 2.5q-1 12 -1 24v24q-11 2 -27.5 6t-32.5 10.5t-27 16.5t-11 25
q0 14 14 23.5t33 15.5t38.5 8.5t29.5 1.5q19 61 54 106t81.5 74t103 43.5t117.5 14.5z" />
    <glyph glyph-name="trademark" unicode="&#x2122;" horiz-adv-x="863" 
d="M570 473q-2 -18 -4.5 -39.5t-9 -40t-20.5 -31t-38 -12.5q-37 0 -57 17.5t-30 44t-12 58t-2 58.5q0 23 1.5 58.5t9.5 68.5t26 57t51 24q25 0 43.5 -7.5t32 -21t23 -32t18.5 -39.5q5 -12 11.5 -32t14.5 -29q5 2 9 15.5t10 33.5t15 42.5t23.5 41.5t35 32t50.5 13
q29 0 44.5 -19t23 -46t9 -56t1.5 -49q0 -21 -0.5 -57t-6 -72.5t-17 -66.5t-33.5 -40q-15 -7 -34 -7q-31 0 -44.5 14.5t-17.5 35.5t-3.5 45.5t-2.5 44.5l-10 -22.5t-13.5 -25.5t-17.5 -21t-22 -9t-21 8t-15.5 19t-11.5 23t-9 21zM124 568q-19 0 -38.5 5t-35 15.5t-25.5 26
t-10 37.5q0 32 21.5 49.5t50.5 22.5q66 9 132 9q24 0 52 -1.5t52.5 -10t40.5 -26t16 -50.5q0 -35 -23.5 -57.5t-58.5 -22.5q-8 0 -16 0.5t-16 0.5q1 -26 2 -52.5t1 -52.5q0 -18 -2.5 -37.5t-10 -36t-21.5 -27.5t-37 -11q-21 0 -34.5 12.5t-22 32t-12 44t-5 49t-1 46
t0.5 35.5z" />
    <glyph glyph-name="minus" unicode="&#x2212;" horiz-adv-x="516" 
d="M14 367q0 35 23 56.5t58 21.5q10 0 19 -0.5t19 -0.5q42 0 84.5 3.5t84.5 3.5q24 0 58 -2t65 -11.5t53 -28.5t22 -53q0 -30 -15 -49t-37.5 -30.5t-49.5 -15.5t-50 -4q-32 0 -63.5 1.5t-63.5 1.5q-28 0 -64 1.5t-67.5 11.5t-53.5 32t-22 62z" />
    </font>
</defs>
</svg>
